<?xml version="1.0" encoding="utf-8"?>
<!-- Generator: Adobe Illustrator 19.0.0, SVG Export Plug-In . SVG Version: 6.00 Build 0)  -->
<svg version="1.1" id="Layer_1" xmlns="http://www.w3.org/2000/svg" xmlns:xlink="http://www.w3.org/1999/xlink" x="0px" y="0px"
	 viewBox="-168 368.9 110 104" style="enable-background:new -168 368.9 110 104;" xml:space="preserve">
<g id="_x23_000000ff">
	<path d="M-168,368.9c13.7,0,27.3,0,41,0c0,2.7,0,5.3,0,8c-10.7,0-21.3,0-32,0c0,11,0,22,0,33c-3,0-6,0-9,0
		C-168,396.2-168,382.5-168,368.9z"/>
	<path d="M-99,368.9c13.7,0,27.3,0,41,0c0,13.7,0,27.3,0,41c-3,0-6,0-9,0c0-11,0-22,0-33c-10.7,0-21.3,0-32,0
		C-99,374.2-99,371.5-99,368.9z"/>
	<path d="M-123.9,396.9c7.3,0,14.6,0,21.9,0c8.5,16.1,17.3,31.6,25.7,47.8c-5.4,0-10.9,0-16.3,0c-1.4-2.6-2.8-5.2-4.2-7.8
		c-9.5,0-19,0.1-28.5,0c1.4-3.3,2.8-6.9,4.3-10.2c6.6,0,13.1,0.1,19.7,0c-2.9-6.8-6.2-13.3-9.5-19.9c-0.8,0-2.3,0-3,0
		c-6.3,12.7-12.7,25.1-19,37.8c-3.9,0-11.6,0.1-15.5,0C-140.5,428.2-132,412.6-123.9,396.9z"/>
	<path d="M-168,431.9c3,0,6,0,9,0c0,11,0,22,0,33c10.7,0,21.3,0,32,0c0,2.7,0,5.3,0,8c-13.7,0-27.3,0-41,0
		C-168,459.2-168,445.6-168,431.9z"/>
	<path d="M-67,431.9c3,0,6,0,9,0c0,13.7,0,27.3,0,41c-13.7,0-27.3,0-41,0c0-2.7,0-5.3,0-8c10.7,0,21.3,0,32,0
		C-67,453.9-67,442.9-67,431.9z"/>
</g>
</svg>
