<?xml version="1.0" encoding="utf-8"?>
<!-- Generator: Adobe Illustrator 19.0.0, SVG Export Plug-In . SVG Version: 6.00 Build 0)  -->
<svg version="1.1" id="Layer_1" xmlns="http://www.w3.org/2000/svg" xmlns:xlink="http://www.w3.org/1999/xlink" x="0px" y="0px"
	 viewBox="-82 226.6 425.9 388.1" style="enable-background:new -82 226.6 425.9 388.1;" xml:space="preserve">
<style type="text/css">
	.st0{fill:#01081B;}
	.st1{fill:#CCCCCC;}
	.st2{fill:#58EB62;}
	.st3{fill:#3DB746;}
	.st4{fill:#5FE568;}
	.st5{fill:#FEFEFE;}
	.st6{fill:#CCCCCB;}
	.st7{fill:#7E7C7D;}
	.st8{fill:#C9CECC;}
	.st9{fill:#CCCCCD;}
	.st10{fill:#7C7D7D;}
	.st11{fill:#18621F;}
	.st12{fill:#FCFEFF;}
	.st13{fill:#CBCDCD;}
	.st14{fill:#F6ED8E;}
	.st15{fill:#B5B96E;}
	.st16{fill:#17631A;}
	.st17{fill:#186219;}
	.st18{fill:#BBB76F;}
	.st19{fill:#686448;}
	.st20{fill:#B9B77E;}
	.st21{fill:#67634F;}
	.st22{fill:#00081C;}
	.st23{fill:#1A5A2A;}
	.st24{fill:#F3EF9A;}
	.st25{fill:#7D7D7D;}
	.st26{fill:#7D7E84;}
	.st27{fill:#FCFFFC;}
	.st28{fill:#CACECD;}
	.st29{fill:#57EE60;}
	.st30{fill:#F3EF8D;}
	.st31{fill:#B8B873;}
	.st32{fill:#3AB842;}
	.st33{fill:#676447;}
	.st34{fill:#BBB670;}
	.st35{fill:#3EB746;}
	.st36{fill:#7B7D7D;}
	.st37{fill:#57EC5E;}
	.st38{fill:#3CB847;}
	.st39{fill:#3DB846;}
	.st40{fill:#3EB745;}
	.st41{fill:#176419;}
	.st42{fill:#61C26E;}
	.st43{fill:#FEFFFF;}
	.st44{fill:#FFFFFF;}
	.st45{fill:url(#SVGID_1_);}
	.st46{fill:url(#SVGID_2_);}
	.st47{fill:url(#SVGID_3_);}
	.st48{fill:url(#SVGID_4_);}
	.st49{fill:url(#SVGID_5_);}
	.st50{fill:url(#SVGID_6_);}
</style>
<path class="st0" d="M78,234.9c14.9,2.1,30,2.8,45,2c15.8,0.2,32.8,3.3,44.8,14.3c7.2,6.5,10.7,15.9,12.1,25.3
	c18.6,3.2,36.8,8.9,54.2,16.2c11.5,5.1,22.9,10.6,33.2,17.9c-5.2,33.1,1.6,67,14.2,97.7c0.6,1.2,0.9,3,2.5,3.2
	c8.2,1.2,16.5,1.9,24.7,3.5c8.2,33.5,17.5,66.9,26.2,100.3c-31.3,4.7-62.5,10.2-93.4,16.7c-30.1,30.9-66.3,56-105.8,73.5
	c-2.3,1-4.8,2.4-7.2,0.9C90.1,589.8,54.9,566,25.1,536.8c-2.2-2-3.9-5-7.1-5.4c-28.2-5.8-56.6-10.9-85.1-15.2
	c-2-0.3-3.9-0.6-5.9-1.1c9.2-33.2,18-66.6,26.3-100c8.5-1.6,17.1-2.4,25.6-3.7C-11.5,389-5.3,365.2-4,340.9
	c0.1-10.1,0.4-20.3-1.7-30.2c18.3-12.6,39.2-21,60.2-27.8C43.9,275.3,36.7,263,35.8,250c15.7,7.1,34.1,6.7,50.1,1
	C81,247.2,77.8,241.2,78,234.9 M85.9,243.1c5.9,6.1,15.1,6.2,23,5.4c-20.2,9.3-43.2,16.5-65.4,10.8c0.6,0.7,1.8,2,2.4,2.7
	c6.5,8.1,16.7,13.3,27.1,13.6c10,0.3,19.6-3.3,28.1-8.4c-0.8,3.7-2.8,7-5.1,10c7.8-2.2,9.8-10.7,13.5-16.9c7.5-6.6,18.2-10.9,28.2-8
	c5.2,1.6,10.2,4.1,14.3,7.7c2.8,4.5,4.5,9.8,8.1,13.9c2,1.9,4.7,3,7.2,4.1c-1.2-10.5-8.5-19-16.6-25.2c0-0.3,0-0.8,0.1-1
	c6.1,3.3,11.8,7.3,16.6,12.3c-2.1-5.9-6.8-10.6-11.8-14.2c-7.8-5.1-17.1-7.7-26.4-7.1C114.7,243.4,100.3,243.6,85.9,243.1
	 M116.1,263.2c3.7,8.1,6.6,16.6,8.3,25.4c-0.2,2.1,0.6,4.2,0.8,6.2c1.4-2.1,3.5-3.6,6-4.4c1.8,1.2,3.5,2.3,5.3,3.5
	c0,0.3,0,1-0.1,1.3c1.3-4,1.4-8.3,2.6-12.4c1.7-6.8,4.2-13.3,7-19.7c-3.8-3.5-8.8-5.4-13.9-5.5c-0.3-0.1-0.8-0.4-1-0.5l-0.7,0.4
	C125.2,257.9,119.9,259.5,116.1,263.2 M109.7,274c1.3,5.5,4.6,10.4,6.2,15.8c-3-4-6-8.1-9.2-12l-0.3,1.1c-2.6,1.8-4.9,3.9-7.5,5.7
	c2.1,7.4,8.3,13.2,14.8,17.1c0.4,0.8,1.4,1.2,2.2,1.6c2.4,1.6,4.7-2,5-4.1c0.2-11.2-3.6-22-7.7-32.2
	C111.9,269.1,110.6,271.5,109.7,274 M148.6,266.4c-4,10.9-8.5,22.3-7.6,34.1c1.1,1.2,2.1,2.5,3.3,3.7c1.3-0.7,2.5-1.5,3.7-2.4
	c6.5-4,12.6-9.6,15.2-17c-2-2.2-4.6-3.7-6.7-5.8c-0.5-0.4-1-0.7-1.5-1.1c-2.9,3.1-5.1,6.7-7.8,10c1.6-4.6,3.9-9,5.7-13.5
	C151.5,271.7,150.7,268.6,148.6,266.4 M47.2,268.9c6.2,12.3,20.8,17.5,33.9,16.4c0.3,2.2,0.4,4.4,0.4,6.7c3.9-2.9,7.2-7.6,6.6-12.7
	c-4,0.6-7.9,1.1-11.9,1C65.4,280,55.6,275,47.2,268.9 M90.9,290.8c-2.3,4.2-3.1,9.2-2.8,13.9c0.4,2.8,1.9,5.3,3.2,7.8
	c5.3,10.2,11.9,20,21.1,27c2.8,2.2,6,3.7,9.3,4.8c2.7,6.9,4.1,14.2,5.5,21.4l1-0.1c0.2,2.1-0.7,6,2.8,5.3c0.7-0.1,1.9-0.3,2.6-0.3
	c1.4-8.2,3.3-16.4,5.7-24.4c0.5-2.6,3.4-2.6,5.3-3.8c7.7-4,13.5-10.6,18.5-17.6c4.2-6.2,8-12.7,10.8-19.7c0.1-4.5-0.3-9.1-2.2-13.2
	c-0.7-1.6-1.9-3.2-3.8-3.4c-2.4,2.6-4.3,5.7-6.8,8.3c-5.3,5.9-11.8,10.6-18.7,14.4c-2-3.9-4.1-8-7.6-10.8c-0.8-1.8-2.7-2.8-4.3-3.8
	l0.1,0.4c-1.3,1-2.8,1.8-3.6,3.2c-3.4,2.9-5.8,6.8-7.4,11c-9.9-4.9-18.4-12.5-24.8-21.6C94,287.8,91.7,289.4,90.9,290.8 M34,305.9
	c-2.9,1.3-6.1,2.1-8.2,4.6c9.9,1,19.5-2,29.2-2.9c9-1.4,18-1.9,27.1-2.9c-0.4-1.9-0.8-3.8-1.3-5.6c-3.6,2-7.6,3.1-11.6,3.4
	c2.6-3.3,5.8-6.3,6.8-10.5C61.7,295.6,47.6,300.3,34,305.9 M179.4,304.7c15.1,1.2,30.2,3.3,45.2,5.3c6.5,1.5,13,2.9,19.6,3.6
	c-4.8-3.2-10.3-5.3-15.7-7.3c-4.1-2.2-8.6-3.4-12.8-5.3c-10.5-3.4-20.9-7.4-31.8-9.2C180.6,295.1,180.9,300.5,179.4,304.7
	 M84.3,321.8c1.1,4.1,2.5,8.1,3.6,12.2c-1.5-1.3-3.1-2.7-4.6-4c-1.6,1.6-3.2,3.2-4.8,4.8c2.3,16.5,7.1,34.5,20.7,45.4
	c4.2-2.1,6.9-6.2,8.8-10.5c0.2-0.1,0.6-0.4,0.8-0.6c-0.6,5.1-1.5,10.4-4.7,14.6c3,3.8,7.5,5.9,12.1,6.9c2.3-3.9,5.3-7.4,8.4-10.7
	c0-4.4-0.7-8.7-1.9-12.9c-3.1-1.8-6.4-3.1-9.8-4.4c2.9-1.4,6-0.5,8.9,0.2c-0.3-1.6-0.7-3.1-1-4.7c-4.1-1.3-8.4-2.4-12.5-3.8
	c-2.6-3.9-4.3-8.3-6.7-12.3c-1.2,0.4-2.5,0.8-3.7,1.2c0.4,2,1.1,4.1,0.6,6.2c-1.9-2.3-4.1-4.3-5.9-6.6c1.1-4.8,1.1-9.7,2-14.6
	c-2.8-3.4-5-7.2-7.5-10.8c-0.3-1.2-0.8-2.4-1.3-3.5C85.3,316.6,84.5,319.1,84.3,321.8 M167.7,328.1c0.4,5,1.1,10,1.6,15
	c-2.5,2.6-4.9,5.2-7.3,7.9c0.6-2.4,1.1-4.8,1.7-7.3c-0.8-0.4-2.5-1.1-3.3-1.4c-1.7,3.3-3.4,6.7-5.1,10c-0.6,1-1.1,2.4-2.4,2.6
	c-3.8,1.3-7.7,2.3-11.5,3.5c-0.3,1.4-0.6,2.8-1,4.2c3.2-0.9,6.4-0.8,9.6-0.2c-3.6,1.5-7.4,2.5-10.6,4.8c-1.5,4.1-1.8,8.5-2.1,12.8
	c3.4,3.1,5.7,7.3,8.9,10.5c4.5-0.7,8.7-3.1,11.6-6.6c-3-4.4-4.1-9.7-4.7-14.9c0.2,0.3,0.6,0.9,0.8,1.2l0.3,0.1c1.9,4,4.6,7.8,8.6,10
	c13.5-11,18.3-28.9,20.6-45.4c-1.5-1.5-2.9-2.9-4.4-4.4l0-0.6c-1.6,1.3-3.2,2.5-4.8,3.7c0.8-3.4,2-6.7,2.9-10.1c1-3-0.4-5.9-1-8.8
	C174,319.5,171.2,324,167.7,328.1 M41.5,332.7c-3.8,5.1-6.5,11.2-6.9,17.7c10.6,20.3,25.4,38.7,44.4,51.7c3.8,0.4,7.5-0.2,11.3-0.2
	c-16.5-13.7-26.3-33.7-31.8-54.1c0.9,9.4,1.9,18.9,4.5,28c-0.8-1-1.6-1.9-2.5-2.8c-3.1-5.1-6.4-10.1-9.1-15.5
	C47.1,349.7,44.4,341.1,41.5,332.7 M70,335.8l0.5,0.3c0.5,19,6.9,38.3,19.8,52.5c10.6,11.9,25.4,19.7,40.9,23
	c16.8-3,32.2-12.4,43.1-25.5c11.7-14.3,17.3-33,17.7-51.3l-0.7,0.7c-1.4-0.9-2.8-1.8-4.2-2.8c-0.6,13.6-4.1,27.3-11.1,39.2
	c-7.1,12.2-18.8,21.4-32.3,25.5c-3-5.2-6.6-10.3-11.4-14c-0.3-0.4-0.8-1-1-1.4c-1.6,1.3-3.2,2.6-4.5,4.1c-3.3,3.4-6,7.1-8.3,11.2
	c-11.4-3.4-21.7-10.5-28.8-20c-9.5-12.8-14.1-28.9-14.7-44.7C73.5,334,71.8,335.1,70,335.8 M220.2,332.7
	c-3.6,14.3-10.3,27.7-18.5,39.9c-0.7,0.4-1.4,0.8-2,1.2c1.5-8,3.6-16,3-24.2c-5,19.7-15.1,38.6-30.7,51.9c4.5,0.2,9.7,2,13.6-1.1
	c13.6-10.4,25.5-23,34.6-37.6c2.6-4.3,5.6-8.4,6.9-13.3C226.9,343.4,224.1,337.5,220.2,332.7 M9.7,360.6l-0.6,0.4
	c0.2,1.3,0.1,2.8,1,3.8c2.7,3.6,5.9,6.9,9.2,10c11.1,10.3,23.6,19,36.1,27.4c2.8,2,6.3,1.1,9.5,0.9c4.4-0.6,8.8-0.1,13.2,0
	c-4.1-3.2-8.7-5.8-13-8.7c-16.8-12.9-31.8-28.4-43.4-46.1c-0.7-1-1.5-2-2.3-3C14.5,348.9,10.6,354.3,9.7,360.6 M242.3,345.3
	c-14.9,23.2-34.7,43.3-58.3,57.5l1,0.1c3.6,0.6,7.3-0.1,10.9,0.3c2.7,0.1,5.4,0.7,8,0.3c3.5-1.4,6.4-4.1,9.6-6.1
	c11.1-7.7,22.1-15.8,31.8-25.3c2.7-2.6,5.4-5.3,7.2-8.6c0.9-1.6,0-3.4-0.2-5l-0.7,0.1C250.7,353.1,246.8,348.5,242.3,345.3
	 M9.3,375.3c-4.3,7.9-6.5,16.7-7.2,25.6c14.1-3.2,28.7-1.5,43-0.1C32.1,394,19.4,386.1,9.3,375.3 M250.9,376.8
	c-9.1,9.5-20.3,16.8-32,22.7c1,1.1,2.6,0.8,3.9,0.7c12.3-1.1,24.7-1.7,36.9,0.5c-0.6-8.1-2.5-16.2-6.2-23.5
	C253.2,375.9,251.7,375.9,250.9,376.8 M93.6,412.5c-1.1,20.5-2.2,40.9-3.3,61.4c5.4-0.3,10.9,0.3,16.3-0.5
	c1.8-6.5,0.9-13.5,1.3-20.2c2-0.1,3.9-0.2,5.9-0.3c4.2,6.5,8,13.2,12.6,19.4c5.2,2.1,11.2,0.6,16.7,1.2c1.3-0.2,4.3,0.8,4.2-1.3
	c-4.9-7.5-10.3-14.8-15.4-22.2c5.4-1.1,11.2-5.1,10.9-11.2c-0.5-7.1,0.8-14.5-1.7-21.3c-3.9,1.2-8,2.5-12.2,2
	c-7.5-0.9-14.2-4.6-21.1-7.4C103.1,411.9,98.4,412.4,93.6,412.5 M152,414.8c0.1,12.7,1.2,25.4,1.2,38.1c0,5.4,0.2,11.5,4.1,15.7
	c4.3,4.4,10.8,5.3,16.7,5.5c7.6,1.1,15.4,0.3,23,1.4c3.4,0.3,6.8,0.5,10.2,0.3c2.2-0.4,3.6-2.8,3.5-4.9c-1.5-13.7-3-27.3-4.5-41
	c-0.5-7.5-6.6-14.1-13.9-15.7c-9.7-1-19.5-1.3-29.3-1.5C159.3,412.9,154.3,411,152,414.8 M35.2,416.3c-1.3,5.7-1.8,11.6-2.8,17.4
	c-2,14.8-4.4,29.5-6.5,44.3c15.6-1,31.1-2.5,46.8-3.4c0.6-4.5,1.3-9,1.2-13.6c-9.8-0.6-19.4,1-29.2,1.4c0.1-3.2,0.5-6.4,1.1-9.6
	c5.8,0.1,11.4-1.1,17.2-1.1c1.3,0,3.5,0,3.7-1.8c0.2-3.7,0.7-7.3,1-10.9l-0.7-1c-6.6-0.5-13.1,0.8-19.7,1c0.5-3.5,0.6-7.1,1.2-10.6
	c5.2-0.6,10.4-0.7,15.6-1.1c-0.1,0.9-0.2,2.6-0.3,3.5c4.4-0.2,8.9-0.2,13.3-0.9c1.2-5.2,0.7-10.9,1.3-16.3
	C64,414,49.6,415.3,35.2,416.3 M213.1,415.7c2.7,20.5,5.1,41,7.4,61.6c6.9,0.4,13.7,1.7,20.7,1.6c0.1-4.4-0.9-8.8-1.5-13.1
	c-2.4-15.3-4.6-30.6-6.8-45.9c-0.1-1.1-0.5-2.6-1.9-2.6C225,416.7,219.1,415.9,213.1,415.7 M3.9,419c-2.1,9.6-3.7,19.3-5.7,29
	c-7.5,1.1-15,2.2-22.5,3.2c1.1-5.7,2.4-11.4,3.5-17.1c0.7-3.7,1.9-7.3,1.7-11.1c-5.7,0.8-11.3,1.7-16.9,2.6
	c-1.8-0.1-1.4,2.2-1.9,3.3c-5.2,23.7-11.1,47.3-16.2,71c9.6,2.8,19.1,5.9,28.8,8.2c-5.2-3.6-10.8-6.8-16.3-10.1c3-1,8.3,0.3,9-4
	c1.9-8.7,3.5-17.4,5.6-26.1c7.4-1.2,14.9-2.1,22.3-3.3c-1.6,8.4-3.1,16.9-4.7,25.3c-0.3,1.3-0.9,3.5,1.4,3
	c6.7-0.3,13.4-1.3,20.1-2.4c0.4-1.2,0.7-2.5,0.9-3.7c3.4-21.7,6.7-43.3,10.1-65c-0.3-1.3,1.4-4.3-1-4.1
	C15.9,417.8,9.9,418.5,3.9,419 M246.6,427.6c-2.6,4.5-1.8,10-1,14.8c1.6,9.9,3.2,19.8,4.7,29.7c1.9,12.3,13.3,22.2,25.6,23
	c9.6,1.1,19.1,3.2,28.7,3.9c-5.2,3.6-10.8,6.5-16.1,10c9.8-1.9,19.3-5.2,28.9-7.8c-1.5-7-3.3-14-4.9-21c-6.3-0.9-12.6-2-18.9-3.1
	c0.1,1,0.4,3,0.5,4c-5.4-0.7-10.9-1.4-16.3-2.4c-3.3-0.6-5.2-3.8-5.8-6.8c-1.8-9.4-3.6-18.8-5.3-28.2c-0.4-2.1-0.7-5.7,2.1-6.1
	c5.6,0,11.2,1.4,16.8,2.1c0.2,1.4,0.4,2.8,0.6,4.2c6.1,1.1,12.3,2.1,18.5,3c-1.5-6.2-2.8-12.5-4.4-18.7c-0.4-1.4-1.9-1.5-3-1.7
	c-12.4-2.1-24.9-3.8-37.4-5.6C254.8,420.3,249.2,422.8,246.6,427.6 M68.9,494.9c10.8,14.4,26.8,23.9,42.9,31.6
	c-20.1-3.7-38.8-13.8-53.5-27.8c-1.1-0.8-1.8-2.3-3.3-2.1c-3.8,0.3-7.6,1-11.5,1.4c10.2,10.7,22.3,19.4,35.4,26.1
	c16.4,8.6,34,14.3,51.8,19.3c31.8-8.6,64.4-20.9,87.5-45.4c-4.1-0.4-8.1-1.3-12.2-1.4c-2.6,1.8-4.6,4.2-7,6.2
	c-11.6,9.8-25.2,17.4-39.9,21.6c-2.3,0.8-4.7,1.3-7.2,1.3c15.1-7.9,30.6-16.8,40.9-30.8c-20.6-2.4-41.4-3.8-62.1-4
	C110,491.1,89.4,492.7,68.9,494.9 M24.8,502.9c2.8,4.8,6.8,8.8,10.3,13c25.6,28.5,58.8,50.8,95.8,61.5c0-3.3,0-6.5-0.1-9.7
	c25.6-3.5,49.8-14.2,70.6-29.2c12.4-9.2,24-19.8,33.1-32.3c-3,0.8-4.8,3.3-7.1,5.1c-26.2,22.1-57.4,39.3-91.4,45.6
	c-6.1,1.5-12.2-0.4-18.1-1.6C82.8,546.8,51.3,527.1,24.8,502.9z"/>
<path class="st0" d="M108.1,439.8c0.3-5,0.5-10,0.7-14.9c5,0.2,10-0.2,14.9,0.1c0.3,0.3,1,0.8,1.3,1.1c0.4,3.3,0.2,6.6,0.1,9.9
	c0,2.1-2.2,3.3-4.1,3.4C116.6,439.7,112.4,439.7,108.1,439.8z"/>
<path class="st0" d="M169.9,426.9c4.4,0,8.9,0.1,13.2,0.9c3.1,0.5,5.3,3.3,5.7,6.4c0.8,9,1.3,18,2.3,26.9c-4-0.4-8.1-0.8-12.2-1
	c-1.9,0-3.8-0.6-5.3-1.8c-3-2.1-1.9-6.2-2.6-9.3C171,441.6,170.2,434.2,169.9,426.9z"/>
<path class="st1" d="M72.8,247.2c-0.8-2.8-1.6-6.2-2.1-10.2c-0.4-4-0.4-7.5-0.1-10.4c2.5,0.5,5.1,0.9,7.8,1.3c3.6,0.5,7,0.8,10.3,1
	c3.3,0.2,7.2,0.4,10.9,0.6c7.4,0.4,11.2,0.7,12.6,0.7c5.6-0.1,11.6,0,17.8,0.3c5.3,0.3,10.3,0.7,15.1,1.2c3.6,0.8,8,2,12.7,4.2
	c6,2.7,10.7,6,14,8.7c1.6,1.6,3.1,3.1,4.7,4.7c4.7,6.2,8.8,13,9.8,20.8c2.3,0.4,5.2,1,8.6,1.8c5,1.2,8.8,2.2,11.3,2.9
	c3.4,1,6,1.7,9.5,2.8c2.5,0.8,2.3,0.8,13.8,5c0.9,0.3,2.9,1.1,5.5,2.1c1.3,0.5,2.4,1.1,3.4,1.5c1.3,0.6,2.2,1.1,2.7,1.3
	c2.1,1.1,7.1,3.6,13.8,7c4.2,2.2,8.7,4.7,13.3,7.7c2.8,1.8,5.4,3.5,7.8,5.3c-0.7,3-1.3,6.3-1.8,9.9c-0.5,3.7-0.8,7.2-0.9,10.4
	c-0.1,2.1-0.3,6.9,0.3,15.7c0.4,5.5,1.1,12.7,2.4,21.1c1.4,6.4,3.2,13.1,5.3,20.1c1.5,5,3.1,9.7,4.7,14.2c0.2,0.9,1.7,5,1.6,5.4
	c3.4,0.7,21.6,2.5,27,3.8c0.4,2,0.9,4,1.4,6c0.8,2.6,1.4,5.3,2,8c0.5,1.5,3.1,11.4,3.9,14.9c0.4,1.4,2.5,9.4,3,12.1
	c0.4,1.1,5.6,20.6,6,22.8c0.9,2.9,1.6,5.8,2.4,8.7c0.1,0.6,4.1,14.1,4.4,17.9c0.3,0,5.6,17.5,6.1,22.6c0,0-3.1,0.6-5.2,1.2
	c-6.3,0.2-22.1,3.1-24.2,3.1c-0.4,0.3-27.2,5.3-34.1,6.4c-1.9,0.5-12.4,2.4-15.8,2.9c-6.3,1.7-12.8,2.7-19.2,3.9
	c-2.9,3.1-6.4,5.6-9.4,8.7c0,0-2.4,2.5-3.5,3.7c-7.7,6.5-15.4,13.1-23.3,19.4c-0.9,0.6-2.7,1.8-2.7,1.8c-11,8-22.1,16-34.1,22.5
	c-1.4,0.9-2.7,1.8-4.1,2.7c-2.6,1.2-8.8,4.9-8.8,4.9c-2.6,1.3-5.2,2.5-7.9,3.6c-3.3,1.8-13.6,6.6-20.8,8.9
	c-2.7-0.9-7.9-2.4-10.6-3.3c0,0-6.7-3.6-10.2-5.1c-4.1-2-8.2-4.1-12.1-6.5c-2.6-1.1-5.1-2.5-7.4-4c-1.5-0.7-2.9-1.5-4.4-2.3
	c-1.3-0.9-2.7-1.8-4-2.7c-8.2-5.1-16.4-10.2-24-16.1c-1.6-1.2-3.3-2.4-5-3.5c0,0-3.8-2.7-5.3-4.3c-3.6-2.2-6.5-5.2-9.9-7.7
	c0,0-2.9-2.7-4.4-4c-6.1-5.1-11.4-10.9-17.3-16.3c-8-2.3-98.6-17.7-98.6-17.7c0.8-4.1,29.7-112.9,29.8-113.5
	c6.4-0.2,24-2.6,26.4-3.3c1.5-4.9,10.4-34.8,10.8-36.5c0.3-1.6,0.6-3.3,1-4.9c0.4-2.2,0.6-4.4,1.1-6.5c0.1-3.2,0.7-6.3,1.2-9.4
	c0.1-9.1,0.3-18.2,0-27.3c-0.5-4.1-1.6-8.2-2.1-12.4c3.5-2.7,7.1-5.1,10.9-7.3c3.6-2.5,42.2-19.9,42.7-20.1c-2.4-3.9-4.8-8.6-6.9-14
	c-1.2-3-2.2-5.9-3-8.7c-1.1-5.1-2.1-10.2-3-15.5c-0.3-1.4-0.5-2.9-0.8-4.3c0.9,0.5,1.9,0.9,2.8,1.4c4,1.9,7.9,3.6,11.8,5.1
	c3.1,1.2,6.3,2,9.5,2.6c2.7,0.4,5.7,0.8,8.9,0.9C64.2,247.9,68.8,247.6,72.8,247.2z M78,234.9c-0.2,6.3,3,12.3,7.9,16.1
	c-16,5.7-34.5,6.1-50.1-1c1,13.1,8.1,25.3,18.8,32.9c-21.1,6.8-41.9,15.2-60.2,27.8c2.1,9.9,1.8,20.1,1.7,30.2
	c-1.3,24.3-7.5,48.1-17.1,70.4c-8.5,1.3-17.1,2-25.6,3.7C-55,448.5-63.8,481.8-73,515c1.9,0.5,3.9,0.8,5.9,1.1
	c28.5,4.3,56.9,9.5,85.1,15.2c3.2,0.4,4.9,3.5,7.1,5.4c29.8,29.3,65,53.1,103.3,69.6c2.4,1.5,4.9,0,7.2-0.9
	c39.5-17.5,75.7-42.6,105.8-73.5c31-6.5,62.1-12,93.4-16.7c-8.7-33.4-17.9-66.7-26.2-100.3c-8.1-1.6-16.4-2.3-24.7-3.5
	c-1.6-0.1-1.9-2-2.5-3.2c-12.6-30.7-19.4-64.6-14.2-97.7c-10.3-7.2-21.7-12.8-33.2-17.9c-17.4-7.3-35.5-13-54.2-16.2
	c-1.4-9.4-4.9-18.9-12.1-25.3c-12-11-29.1-14.1-44.8-14.3C108,237.7,92.9,237,78,234.9z"/>
<path class="st1" d="M84.3,321.8c0.2-2.7,1-5.2,1.6-7.8c0.4,1.2,0.9,2.3,1.3,3.5c0,3,0.6,5.9,1.9,8.5c2.6,5.2,2.3,11.2,3.7,16.8
	c1.8,2.4,4.1,4.3,5.9,6.6c4.3,5.4,8.5,11.2,10,18.1c0.9-1.5,1.8-3,2.7-4.5c0.4-0.1,1.2-0.4,1.5-0.5c3.3,1.3,6.7,2.6,9.8,4.4
	c1.2,4.2,1.8,8.5,1.9,12.9c-3.2,3.3-6.1,6.7-8.4,10.7c-4.6-1-9.1-3.1-12.1-6.9c3.2-4.2,4.1-9.5,4.7-14.6c-0.2,0.1-0.6,0.4-0.8,0.6
	c-2.9,1.5-6,4.8-9.4,3.6c-5.9-5-8.7-12.6-11.5-19.6c-2.4-7.7-5.8-15.7-3.8-23.9c1.6,1.3,3.1,2.7,4.6,4
	C86.7,329.9,85.3,325.9,84.3,321.8z"/>
<path class="st1" d="M68.9,494.9c20.5-2.2,41.1-3.8,61.7-3.9c-0.1,17.5-0.1,34.9,0,52.4c-17.7-5-35.4-10.7-51.8-19.3
	c-13.1-6.8-25.2-15.5-35.4-26.1c3.8-0.4,7.6-1.1,11.5-1.4c1.5-0.2,2.3,1.4,3.3,2.1c14.7,14,33.4,24.1,53.5,27.8
	C95.8,518.8,79.8,509.3,68.9,494.9z"/>
<path class="st2" d="M85.9,243.1c14.4,0.5,28.8,0.3,43.1-0.4c9.3-0.7,18.7,2,26.4,7.1c-0.4,0.4-1.4,1.1-1.8,1.5
	c-1-0.3-2-0.5-2.9-0.8c-7.7-3.5-16.3-5.3-24.8-3.6c-8.7,1.4-15.9,6.9-23.9,10.2c-12.3,5.4-25.6,9.5-39.1,8.9
	c-5.9-0.4-11.6-2-17.1-4.1c-0.6-0.7-1.8-2-2.4-2.7c22.3,5.7,45.3-1.5,65.4-10.8C101.1,249.3,91.8,249.2,85.9,243.1z"/>
<path class="st3" d="M102.1,257.1c8-3.3,15.2-8.7,23.9-10.2c8.4-1.6,17,0.2,24.8,3.6l-0.1,1.2c0,0.3-0.1,0.8-0.1,1
	c8.1,6.2,15.4,14.7,16.6,25.2c-2.5-1.2-5.1-2.2-7.2-4.1c-3.6-4-5.3-9.3-8.1-13.9c-4.1-3.6-9.1-6.1-14.3-7.7c-10-3-20.7,1.4-28.2,8
	c-3.6,6.1-5.7,14.6-13.5,16.9c2.3-3,4.3-6.3,5.1-10c-8.4,5.1-18.1,8.8-28.1,8.4c-10.4-0.3-20.6-5.5-27.1-13.6
	c5.5,2.1,11.2,3.7,17.1,4.1C76.5,266.6,89.9,262.5,102.1,257.1z"/>
<path class="st4" d="M155.5,249.8c5,3.7,9.6,8.3,11.8,14.2c-4.8-5-10.5-9.1-16.6-12.3l0.1-1.2c1,0.3,1.9,0.5,2.9,0.8
	C154.1,251,155,250.2,155.5,249.8z"/>
<path class="st5" d="M116.1,263.2c3.9-3.6,9.1-5.3,14.3-5.7c-3.1,1.7-6.7,3-9.1,5.8c1.4,8.3,5.6,16.8,3,25.4
	C122.7,279.8,119.7,271.3,116.1,263.2z"/>
<path class="st6" d="M130.4,257.5l0.7-0.4c-0.3,11.1-0.3,22.3,0,33.4c-2.5,0.7-4.6,2.2-6,4.4c-0.2-2.1-0.9-4.1-0.8-6.2
	c2.5-8.6-1.6-17.1-3-25.4C123.8,260.5,127.3,259.2,130.4,257.5z"/>
<path class="st7" d="M131.1,257.1c0.3,0.1,0.8,0.4,1,0.5c2.9,1.8,6.3,3,8.5,5.6c0.3,2-0.9,3.9-1.3,5.8c-2.7,8-2.5,16.6-2.9,24.9
	c-1.8-1.2-3.6-2.3-5.3-3.5C130.8,279.4,130.8,268.2,131.1,257.1z"/>
<path class="st8" d="M132.1,257.6c5.1,0.2,10.1,2,13.9,5.5c-2.8,6.4-5.3,12.9-7,19.7c-1.2,4.1-1.3,8.4-2.6,12.4c0-0.3,0-1,0.1-1.3
	c0.4-8.4,0.1-16.9,2.9-24.9c0.4-1.9,1.6-3.8,1.3-5.8C138.4,260.6,135,259.4,132.1,257.6z"/>
<g id="_x23_cccccdff">
	<path class="st9" d="M109.7,274c0.9-2.5,2.2-4.9,3.5-7.2c4.1,10.3,7.9,21.1,7.7,32.2c-0.3,2.1-2.5,5.7-5,4.1
		c-0.8-0.4-1.7-0.8-2.2-1.6c-1.8-3.9-5.4-6.5-7-10.5c-1.8-3.8-1.9-8.3-0.4-12.3l0.3-1.1c3.2,3.9,6.1,8,9.2,12
		C114.2,284.3,111,279.5,109.7,274z"/>
</g>
<g id="_x23_7c7d7dff">
	<path class="st10" d="M148.6,266.4c2.1,2.3,3,5.3,4.3,8c-1.8,4.5-4.1,8.9-5.7,13.5c2.6-3.3,4.9-7,7.8-10c0.5,0.4,1,0.7,1.5,1.1
		c-0.2,3.5,0.8,7.3-0.7,10.6c-1.8,5-5.6,8.7-9,12.5l1.3-0.3c-1.2,0.9-2.4,1.7-3.7,2.4c-1.1-1.2-2.2-2.5-3.3-3.7
		C140.1,288.6,144.5,277.3,148.6,266.4z"/>
</g>
<g id="_x23_18621fff">
	<path class="st11" d="M47.2,268.9c8.4,6.2,18.3,11.1,28.9,11.3c4,0.1,8-0.4,11.9-1c0.5,5.1-2.7,9.8-6.6,12.7c0-2.2-0.1-4.5-0.4-6.7
		C68,286.4,53.4,281.1,47.2,268.9z"/>
</g>
<g id="_x23_fcfeffff">
	<path class="st12" d="M98.9,284.4c2.6-1.8,4.9-3.9,7.5-5.7c-1.5,3.9-1.4,8.4,0.4,12.3c1.6,4,5.2,6.6,7,10.5
		C107.3,297.6,101.1,291.9,98.9,284.4z"/>
</g>
<g id="_x23_cbcdcdff">
	<path class="st13" d="M155.7,289.6c1.4-3.4,0.5-7.1,0.7-10.6c2.1,2.1,4.7,3.7,6.7,5.8c-2.5,7.4-8.7,13-15.2,17l-1.3,0.3
		C150.1,298.3,154,294.6,155.7,289.6z"/>
</g>
<g id="_x23_f6ed8eff">
	<path class="st14" d="M90.9,290.8c0.7-1.4,3.1-3.1,4-0.9c6.4,9,14.8,16.6,24.8,21.6c1.6-4.1,4-8,7.4-11c-2.3,4.5-5,8.7-6.3,13.6
		c-11.1-4.2-21.2-11.2-27.9-21c-2.8,3.5-4.3,8-4.2,12.5l-0.4-0.9C87.8,300,88.6,295,90.9,290.8z"/>
</g>
<g id="_x23_b5b96eff">
	<path class="st15" d="M161.3,297c2.4-2.6,4.4-5.7,6.8-8.3c1.9,0.2,3,1.8,3.8,3.4c1.9,4.1,2.3,8.7,2.2,13.2
		c-0.6-4.5-2.2-8.8-4.8-12.5c-6.5,10.1-16.9,16.8-27.8,21.4c-1.4-4.9-4-9.2-6.3-13.7c3.5,2.9,5.6,6.9,7.6,10.8
		C149.5,307.6,155.9,302.9,161.3,297z"/>
</g>
<g id="_x23_17631aff">
	<path class="st16" d="M34,305.9c13.7-5.6,27.7-10.3,42-13.8c-1,4.2-4.3,7.2-6.8,10.5c4.1-0.3,8-1.4,11.6-3.4
		c0.5,1.9,0.9,3.7,1.3,5.6c-9,0.9-18.1,1.4-27.1,2.9c-9.8,0.9-19.4,3.9-29.2,2.9C27.9,308,31.1,307.2,34,305.9z"/>
	<path class="st16" d="M203.9,370.9c7.2-9,13.5-18.8,18.1-29.5c1.8,2.6,3.6,5.3,5,8.1c-1.3,4.9-4.4,9-6.9,13.3
		c-9,14.6-21,27.2-34.6,37.6c-3.8,3.2-9.1,1.3-13.6,1.1c15.6-13.3,25.7-32.2,30.7-51.9c0.6,8.2-1.5,16.2-3,24.2
		c0.7-0.4,1.4-0.8,2-1.2C202.5,372.1,203.3,371.6,203.9,370.9z"/>
	<path class="st16" d="M245.3,353.6c2.1,1.7,4.2,3.5,6.4,5.1l0.7-0.1c0.2,1.6,1.1,3.4,0.2,5c-1.8,3.3-4.6,5.9-7.2,8.6
		c-9.6,9.6-20.7,17.6-31.8,25.3c-3.2,2-6.1,4.6-9.6,6.1c-2.7,0.3-5.4-0.2-8-0.3c-3.6-0.3-7.3,0.3-10.9-0.3c2.3,0.1,4.7-0.2,6.7-1.5
		C212.5,389.2,230.4,372.5,245.3,353.6z"/>
</g>
<g id="_x23_186219ff">
	<path class="st17" d="M179.4,304.7c1.5-4.2,1.2-9.7,4.6-12.8c10.9,1.8,21.3,5.8,31.8,9.2c4.2,1.8,8.7,3.1,12.8,5.3
		c0.4,1,0.8,2.1,1.1,3.1c-1.7,0.2-3.4,0.4-5.1,0.6C209.6,308,194.5,305.9,179.4,304.7z"/>
</g>
<g id="_x23_bbb76fff">
	<path class="st18" d="M88.6,305.6c0-4.5,1.4-9,4.2-12.5c6.7,9.8,16.9,16.9,27.9,21c1.3-4.9,4-9.2,6.3-13.6c0.9-1.4,2.4-2.2,3.6-3.2
		c0.4,2.3,0.4,4.6-0.3,6.9c-1,2-2.3,3.9-3.6,5.8l0.3-1.9c-5.6,4.1-2.7,11.6-2.8,17.4c-5.6-0.9-11.1-2.6-15.7-6
		c-3.5-2.1-6.1-5.8-10.1-7c-0.3-0.1-1-0.3-1.4-0.4c6.3,11.5,17.6,19.4,29.6,24.3c1.3,2.4,2.7,4.8,4,7.2c0.6,9.2-0.1,18.4,0.4,27.6
		c-3.5,0.7-2.6-3.2-2.8-5.3c-0.4-8.2-1.7-16.5-4.5-24.2c-5.8-1.7-11-4.9-15.3-9.1C100.4,324.6,93.9,315.4,88.6,305.6z"/>
</g>
<g id="_x23_686448ff">
	<path class="st19" d="M141.3,314.3c10.9-4.6,21.3-11.3,27.8-21.4c2.7,3.7,4.2,8,4.8,12.5c-2.8,7-6.6,13.5-10.8,19.7
		c-5,6.9-10.8,13.6-18.5,17.6c-1.9,1.1-4.8,1.2-5.3,3.8c-2.4,8-4.3,16.2-5.7,24.4c-0.6,0.1-1.9,0.3-2.6,0.3
		c-0.5-9.2,0.2-18.4-0.4-27.6c2.3-3,3.2-7.4,7.1-8.7c8.6-3.7,16.5-9.2,22.5-16.5c1.3-1.5,2-3.3,2.6-5.2c0.9-1.4,2-2.8,3-4.2
		c-4.6,3.7-8.6,8.2-13.7,11.2c-4.4,2.8-9.5,4.6-14.7,5.2c0.1-4.4,0.9-8.9,0.1-13.3c-1.2-2.8-3.2-5-5.3-7.2c-0.2-0.1-0.7-0.2-0.9-0.3
		c-0.3-0.1-0.9-0.3-1.1-0.4c0.7-2.2,0.6-4.6,0.3-6.9l-0.1-0.4c1.6,1,3.5,1.9,4.3,3.8C137.3,305,139.9,309.4,141.3,314.3z"/>
</g>
<g id="_x23_b9b77eff">
	<path class="st20" d="M131.6,304.5c0.2,0.1,0.7,0.2,0.9,0.3c2,2.1,4.1,4.4,5.3,7.2c0.8,4.4-0.1,8.9-0.1,13.3
		c5.2-0.6,10.2-2.4,14.7-5.2c5.1-3,9.1-7.5,13.7-11.2c-1.1,1.4-2.1,2.8-3,4.2c-7,8.8-17.7,14.5-28.8,15.8c0.9-5.7,1-11.4,1.9-17.1
		C134.6,309.4,133.2,306.9,131.6,304.5z"/>
</g>
<g id="_x23_67634fff">
	<path class="st21" d="M88.2,304.8l0.4,0.9c5.3,9.8,11.9,19,19.9,26.8c4.3,4.2,9.5,7.4,15.3,9.1c2.9,7.7,4.1,16,4.5,24.2l-1,0.1
		c-1.4-7.2-2.8-14.5-5.5-21.4c-3.3-1.1-6.6-2.6-9.3-4.8c-9.2-7-15.8-16.9-21.1-27C90.1,310.1,88.6,307.6,88.2,304.8z"/>
</g>
<g id="_x23_00081cff">
	<path class="st22" d="M130.4,304.1c0.3,0.1,0.9,0.3,1.1,0.4c1.6,2.4,3,4.9,4.5,7.3c-1,5.6-1,11.4-1.9,17.1
		c11.1-1.3,21.8-7.1,28.8-15.8c-0.6,1.9-1.3,3.7-2.6,5.2c-6,7.2-13.9,12.8-22.5,16.5c-3.9,1.3-4.9,5.7-7.1,8.7
		c-1.3-2.4-2.7-4.8-4-7.2c-11.9-4.9-23.2-12.8-29.6-24.3c0.3,0.1,1,0.3,1.4,0.4c7,9.3,17.9,15,29.3,16.7c-0.5-5.1-1-10.2-1.6-15.3
		c-0.2-1.3,0.2-2.5,0.7-3.7C128.2,308.1,129.4,306.2,130.4,304.1z"/>
</g>
<g id="_x23_1a5a2aff">
	<path class="st23" d="M229.7,309.5c-0.4-1-0.7-2.1-1.1-3.1c5.4,2,10.9,4.1,15.7,7.3c-6.6-0.7-13.2-2.1-19.6-3.6
		C226.3,309.9,228,309.7,229.7,309.5z"/>
</g>
<g id="_x23_f3ef9aff">
	<path class="st24" d="M124.4,325.3c0.1-5.8-2.8-13.2,2.8-17.4l-0.3,1.9c-0.4,1.2-0.9,2.4-0.7,3.7c0.5,5.1,1,10.2,1.6,15.3
		c-11.4-1.6-22.3-7.4-29.3-16.7c4,1.3,6.6,4.9,10.1,7C113.2,322.7,118.8,324.5,124.4,325.3z"/>
</g>
<g id="_x23_7d7d7dff">
	<path class="st25" d="M167.7,328.1c3.5-4.1,6.3-8.6,8.5-13.4c0.6,2.9,2,5.9,1,8.8c-1,3.4-2.1,6.6-2.9,10.1c1.6-1.2,3.2-2.5,4.8-3.7
		l0,0.6c0.3,3.2,0.8,6.5-0.1,9.6c-2.2,8.8-4.9,17.7-9.3,25.7c-1.8,3.1-4,6.2-7,8.2c-2.8,0-4.8-2-7.1-3.2c-0.3-0.1-1-0.3-1.3-0.4
		l-0.3-0.1c-0.2-0.3-0.6-0.9-0.8-1.2c0.6,5.2,1.7,10.5,4.7,14.9c-2.9,3.5-7.1,5.9-11.6,6.6c-3.2-3.2-5.5-7.4-8.9-10.5
		c0.3-4.3,0.5-8.7,2.1-12.8c3.1-2.3,7-3.3,10.6-4.8c-3.2-0.6-6.4-0.7-9.6,0.2c0.3-1.4,0.6-2.8,1-4.2c3.8-1.2,7.7-2.2,11.5-3.5
		c1.4-0.2,1.8-1.6,2.4-2.6c1.7-3.3,3.4-6.7,5.1-10c0.8,0.4,2.5,1.1,3.3,1.4c-0.6,2.4-1.1,4.8-1.7,7.3c2.4-2.7,4.8-5.3,7.3-7.9
		C168.8,338,168.1,333.1,167.7,328.1z"/>
	<path class="st25" d="M130.6,490.9c20.8,0.2,41.5,1.6,62.1,4c-10.3,14-25.8,22.9-40.9,30.8c2.5,0,4.9-0.6,7.2-1.3
		c14.7-4.2,28.2-11.8,39.9-21.6c2.4-2,4.4-4.5,7-6.2c4.1,0.1,8.1,1,12.2,1.4c-23.1,24.6-55.7,36.9-87.5,45.4
		C130.5,525.9,130.5,508.4,130.6,490.9z"/>
</g>
<g id="_x23_7d7e84ff">
	<path class="st26" d="M89,326.1c-1.3-2.7-1.9-5.6-1.9-8.5c2.5,3.6,4.7,7.4,7.5,10.8c-0.9,4.8-0.9,9.8-2,14.6
		C91.3,337.3,91.6,331.3,89,326.1z"/>
</g>
<g id="_x23_fcfffcff">
	<path class="st27" d="M78.4,334.8c1.6-1.6,3.2-3.2,4.8-4.8c-2,8.2,1.4,16.2,3.8,23.9c2.7,7,5.6,14.6,11.5,19.6
		c3.4,1.2,6.5-2.2,9.4-3.6c-1.8,4.2-4.5,8.3-8.8,10.5C85.5,369.3,80.7,351.3,78.4,334.8z"/>
</g>
<g id="_x23_cacecdff">
	<path class="st28" d="M179.1,340c0.9-3.2,0.4-6.4,0.1-9.6c1.5,1.5,2.9,2.9,4.4,4.4c-2.3,16.5-7.2,34.4-20.6,45.4
		c-4-2.1-6.7-6-8.6-10c0.3,0.1,1,0.3,1.3,0.4c2.3,1.2,4.3,3.3,7.1,3.2c3-2,5.2-5,7-8.2C174.2,357.7,176.8,348.9,179.1,340z"/>
</g>
<g id="_x23_57ee60ff">
	<path class="st29" d="M41.5,332.7c2.9,8.4,5.5,17,9.8,24.9c2.7,5.4,6.1,10.3,9.1,15.5c-4.4-3.6-7.1-8.7-10.4-13.2
		c-4-5.7-7-12-10.2-18.2c-1.9,2.8-3.6,5.8-5.2,8.8C35,343.9,37.7,337.8,41.5,332.7z"/>
</g>
<g id="_x23_f3ef8dff">
	<path class="st30" d="M70,335.8c1.8-0.8,3.5-1.9,5-3.1c0.5,15.8,5.2,31.9,14.7,44.7c7.1,9.6,17.3,16.7,28.8,20
		c2.2-4.1,5-7.9,8.3-11.2c0.1,2.5-1.7,4.5-2.8,6.7c-1.7,2.8-2.4,6-3.2,9.2c-15.4-3.8-29.1-14-37-27.8c-6.7-11.1-9.9-24-11.2-36.8
		c-0.5-0.4-1.5-1-2-1.4L70,335.8z"/>
</g>
<g id="_x23_b8b873ff">
	<path class="st31" d="M187,332.8c1.4,0.9,2.8,1.9,4.2,2.8c-0.6,0.6-1.2,1.2-1.8,1.8c-1.2,15.3-5.9,30.6-15.1,42.9
		c-8.1,10.7-19.9,18.5-33,21.8c-1-7.1-5.1-12.9-9.1-18.6c4.9,3.7,8.5,8.7,11.4,14c13.5-4,25.3-13.3,32.3-25.5
		C182.9,360.1,186.5,346.4,187,332.8z"/>
</g>
<g id="_x23_3ab842ff">
	<path class="st32" d="M220.2,332.7c3.9,4.8,6.7,10.6,6.8,16.9c-1.4-2.9-3.2-5.5-5-8.1c-4.5,10.7-10.8,20.4-18.1,29.5
		c-0.6,0.7-1.4,1.2-2.2,1.7C209.9,360.4,216.6,347.1,220.2,332.7z"/>
</g>
<g id="_x23_676447ff">
	<path class="st33" d="M191.3,335.5l0.7-0.7c-0.4,18.3-6,37-17.7,51.3c-11,13-26.3,22.4-43.1,25.5c-0.3-9.9-0.3-19.7,0-29.6
		c0.3,0.4,0.8,1,1,1.4c4,5.7,8.1,11.5,9.1,18.6c13.1-3.3,24.9-11.1,33-21.8c9.3-12.4,14-27.7,15.1-42.9
		C190.1,336.7,190.7,336.1,191.3,335.5z"/>
</g>
<g id="_x23_bbb670ff">
	<path class="st34" d="M70.5,336.1c0.5,0.3,1.5,1,2,1.4c1.3,12.8,4.5,25.7,11.2,36.8c7.9,13.8,21.6,24,37,27.8
		c0.8-3.1,1.5-6.4,3.2-9.2c1.1-2.1,2.9-4.1,2.8-6.7c1.4-1.6,2.9-2.9,4.5-4.1c-0.3,9.9-0.3,19.7,0,29.6c-15.5-3.3-30.2-11.1-40.9-23
		C77.4,374.4,70.9,355.1,70.5,336.1z"/>
</g>
<g id="_x23_3eb746ff">
	<path class="st35" d="M34.7,350.4c1.6-3,3.3-6,5.2-8.8c3.2,6.2,6.2,12.5,10.2,18.2c3.3,4.5,6,9.6,10.4,13.2
		c0.9,0.9,1.7,1.8,2.5,2.8c-2.7-9.1-3.6-18.6-4.5-28c5.5,20.4,15.4,40.3,31.8,54.1c-3.8,0.1-7.5,0.7-11.3,0.2
		C60.1,389.1,45.2,370.7,34.7,350.4z"/>
	<path class="st35" d="M24.8,502.9c26.5,24.2,58,44,93.2,52.4c5.9,1.2,12,3.1,18.1,1.6c33.9-6.3,65.1-23.5,91.4-45.6
		c2.3-1.8,4.2-4.3,7.1-5.1c-9.1,12.5-20.8,23-33.1,32.3c-20.8,15-45.1,25.7-70.6,29.2c0.1,3.3,0.1,6.5,0.1,9.7
		c-37-10.7-70.2-32.9-95.8-61.5C31.5,511.6,27.6,507.7,24.8,502.9z"/>
</g>
<g id="_x23_7b7d7dff">
	<path class="st36" d="M98,343.3c1.2-0.4,2.5-0.8,3.7-1.2c2.4,4,4.1,8.4,6.7,12.3c4.1,1.4,8.3,2.5,12.5,3.8c0.3,1.6,0.6,3.1,1,4.7
		c-2.9-0.7-6-1.6-8.9-0.2c-0.4,0.1-1.2,0.4-1.5,0.5c-0.9,1.5-1.8,3-2.7,4.5c-1.6-6.9-5.7-12.7-10-18.1
		C99.1,347.4,98.4,345.3,98,343.3z"/>
</g>
<g id="_x23_57ec5eff">
	<path class="st37" d="M9.7,360.6c0.9-6.3,4.8-11.6,9.8-15.3c0.8,1,1.6,1.9,2.3,3c11.6,17.8,26.6,33.2,43.4,46.1
		c1.1,1.9,2,3.8,3.2,5.7c-13.1-7.5-24.7-17.4-35.5-28c-5.9-5.6-10.7-12.3-16.2-18.4C13.6,355.2,12.3,358.7,9.7,360.6z"/>
</g>
<g id="_x23_3cb847ff">
	<path class="st38" d="M242.3,345.3c4.5,3.2,8.4,7.8,9.4,13.4c-2.2-1.6-4.3-3.4-6.4-5.1c-14.9,18.9-32.8,35.7-53.6,47.9
		c-2,1.3-4.4,1.5-6.7,1.5l-1-0.1C207.6,388.6,227.4,368.5,242.3,345.3z"/>
</g>
<g id="_x23_3db846ff">
	<path class="st39" d="M9.7,360.6c2.7-1.9,3.9-5.4,7-6.9c5.5,6,10.3,12.7,16.2,18.4c10.8,10.5,22.4,20.5,35.5,28
		c0.9,0.5,1.9,1.1,2.8,1.6c-5.2,0.6-10.5,0.8-15.7,0.5c-12.6-8.4-25-17.1-36.1-27.4c-3.3-3.1-6.5-6.3-9.2-10c-1-1.1-0.9-2.5-1-3.8
		L9.7,360.6z"/>
</g>
<g id="_x23_3eb745ff">
	<path class="st40" d="M9.3,375.3c10.1,10.8,22.8,18.8,35.8,25.5c-14.3-1.4-28.9-3.1-43,0.1C2.8,392,5.1,383.1,9.3,375.3z"/>
</g>
<g id="_x23_176419ff">
	<path class="st41" d="M250.9,376.8c0.8-0.9,2.3-0.9,2.7,0.4c3.7,7.3,5.6,15.4,6.2,23.5c-12.2-2.3-24.6-1.7-36.9-0.5
		c-1.4,0.1-2.9,0.5-3.9-0.7C230.7,393.6,241.9,386.3,250.9,376.8z"/>
</g>
<g id="_x23_61c26eff">
	<path class="st42" d="M65.1,394.4c4.4,2.9,8.9,5.5,13,8.7c-4.4-0.1-8.8-0.5-13.2,0c-3.2,0.2-6.7,1.1-9.5-0.9
		c5.2,0.3,10.5,0.1,15.7-0.5c-0.9-0.5-1.9-1.1-2.8-1.6C67.2,398.2,66.2,396.2,65.1,394.4z"/>
</g>
<g id="_x23_feffffff">
	<path class="st43" d="M93.6,412.5c4.7-0.2,9.5-0.6,14.2-0.3c6.9,2.8,13.6,6.5,21.1,7.4c4.2,0.5,8.3-0.8,12.2-2
		c2.5,6.8,1.2,14.3,1.7,21.3c0.3,6.1-5.5,10-10.9,11.2c5.1,7.4,10.4,14.7,15.4,22.2c0.1,2-2.9,1-4.2,1.3c-5.5-0.6-11.5,0.9-16.7-1.2
		c-4.6-6.2-8.4-13-12.6-19.4c-2,0.1-3.9,0.2-5.9,0.3c-0.4,6.7,0.5,13.7-1.3,20.2c-5.4,0.8-10.8,0.2-16.3,0.5
		C91.5,453.5,92.5,433,93.6,412.5 M108.1,439.8c4.3-0.1,8.6-0.1,12.8-0.3c1.9-0.1,4.1-1.3,4.1-3.4c0.2-3.3,0.3-6.6-0.1-9.9
		c-0.3-0.3-1-0.8-1.3-1.1c-5-0.4-10,0-14.9-0.1C108.6,429.8,108.3,434.8,108.1,439.8 M93.9,465.4c-1.1,1.9-0.2,4,0.8,5.7
		c3.4-0.7,6.8-0.6,10.2-0.3c-0.4-0.4-0.8-0.9-1.2-1.3c1.8-1.9,1.2-4.6,1-6.9c0.5-2.2,0.3-4.5,0.3-6.7c0-1.8,0-3.7,0.1-5.5
		c3.5,0,6.9,0,10.4,0c0.3,0.4,0.9,1.1,1.1,1.4c0.4,0.9,0.9,1.9,1.3,2.9c1.4,2.1,2.9,4.3,4.3,6.5c1.8,2.7,3.3,5.8,6,7.7
		c4.4,1.4,9.1,0.8,13.7,1.2c-2.3-4.1-4.9-8-7.5-11.8c-0.8-1.1-1.6-2.1-2.4-3.2l-0.4,0c-1.4-2.5-2.7-5-4.2-7.5c3.2-0.1,7-0.2,9.1-3
		c-13.9-0.5-27.8,0.2-41.8,0.3C93.8,451.6,93.7,458.5,93.9,465.4z"/>
	<path class="st43" d="M35.2,416.3c14.4-1,28.8-2.4,43.2-2.7c-0.6,5.4-0.1,11.1-1.3,16.3c-4.4,0.7-8.9,0.7-13.3,0.9
		c0.1-0.9,0.3-2.6,0.3-3.5c-5.2,0.4-10.4,0.5-15.6,1.1c-0.6,3.5-0.7,7.1-1.2,10.6c6.6-0.3,13.1-1.5,19.7-1l0.7,1
		c-0.3,3.6-0.8,7.3-1,10.9c-0.1,1.8-2.3,1.8-3.7,1.8c-5.8,0-11.4,1.2-17.2,1.1c-0.6,3.2-1,6.4-1.1,9.6c9.7-0.4,19.4-2,29.2-1.4
		c0.1,4.6-0.6,9.1-1.2,13.6c-15.6,0.9-31.2,2.4-46.8,3.4c2.1-14.8,4.5-29.5,6.5-44.3C33.4,427.9,33.9,422,35.2,416.3 M32.9,448.9
		c-0.2,1.3-0.3,2.6-0.4,3.9c-0.5,2-0.9,4.1-1.1,6.2c-0.3,2-0.8,3.9-0.9,5.9c-0.8,3.2-1.4,6.5-0.4,9.8c13.2-1.3,26.5-1.7,39.8-2.9
		c0.2-0.5,0.7-1.4,1-1.9l-0.7-0.1c0.4-2.1,0.6-4.1,0.9-6.2c-9.6,0.1-19.2,1.1-28.8,1.8c-0.2-1.1-0.3-2.2-0.5-3.3
		c0.5-2.8,0.9-5.6,1-8.4c0.3-1.1,0.5-2.3,0.7-3.4c6.8-0.5,13.7-0.9,20.5-1.5c0.1-0.6,0.3-1.7,0.4-2.2
		C53.9,446.9,43.4,447.8,32.9,448.9z"/>
</g>
<g id="_x23_ffffffff">
	<path class="st44" d="M152,414.8c2.4-3.8,7.3-1.9,10.9-2c9.8,0.2,19.6,0.5,29.3,1.5c7.3,1.6,13.4,8.1,13.9,15.7
		c1.6,13.7,3,27.3,4.5,41c0.1,2.1-1.3,4.5-3.5,4.9c-3.4,0.2-6.8,0-10.2-0.3c-7.6-1.2-15.4-0.3-23-1.4c-5.9-0.2-12.4-1.1-16.7-5.5
		c-3.9-4.2-4.1-10.3-4.1-15.7C153.2,440.2,152.1,427.5,152,414.8 M169.9,426.9c0.3,7.4,1.1,14.7,1.2,22.1c0.6,3.1-0.4,7.2,2.6,9.3
		c1.5,1.2,3.4,1.7,5.3,1.8c4.1,0.2,8.1,0.6,12.2,1c-0.9-9-1.5-17.9-2.3-26.9c-0.4-3-2.6-5.9-5.7-6.4
		C178.8,427,174.4,426.9,169.9,426.9 M155.7,444.8c0,0.8,0.1,2.5,0.1,3.3c0.1,2.3,0.1,4.6,0.1,6.9c0.1,2.4,0.4,4.7,0.6,7.1
		c1.4,6.2,8.4,8.3,14,8.6c8.7,1.9,17.7,0,26.5,1.7c2.9,0.8,5.5-0.3,7.7-2.1c-0.2,1-0.3,1.9-0.5,2.9c1.1-0.8,3.3-1.2,3.1-2.9
		c0.1-4.1-0.1-8.4-1.1-12.4c0-1.9-0.2-3.8-0.4-5.7l-0.4,0c-0.1-1.8-0.2-3.5-0.3-5.2c-4.2-0.1-8.4-0.5-12.6-0.9
		c0.1,2.6,0.3,5.1,0.5,7.7c0.2,2.9,0.5,5.8,1.1,8.7c-0.9,0.5-1.7,1.7-2.9,1.6c-4-0.3-8.1-1.4-12.1-0.7c-3.1-0.8-6.5-1.6-8.7-4.1
		c-1.8-2-1.5-4.8-2-7.3c0-0.8-0.1-2.3-0.2-3c-0.1-1.3-0.2-2.6-0.2-4C164.1,444.9,159.9,444.8,155.7,444.8z"/>
	<path class="st44" d="M213.1,415.7c6,0.1,11.9,1,17.9,1.5c1.4,0,1.7,1.5,1.9,2.6c2.2,15.3,4.4,30.6,6.8,45.9
		c0.5,4.4,1.6,8.7,1.5,13.1c-6.9,0.1-13.8-1.2-20.7-1.6C218.2,456.8,215.8,436.2,213.1,415.7 M219.9,448.1c0.3,2.2,0.6,4.5,0.9,6.7
		c0.3,4.7,1.1,9.3,1.9,14c0.3,1.8-0.6,5.3,2,5.5c4.4,0.5,8.8,0.6,13.2,1.4c0-4.3-0.5-8.6-1.4-12.8c-0.6-4.4-1.3-8.9-1.8-13.3
		C229.7,448.6,224.8,448.6,219.9,448.1z"/>
	<path class="st44" d="M3.9,419c6-0.5,12-1.2,18-1.3c2.4-0.1,0.8,2.8,1,4.1c-3.4,21.7-6.7,43.4-10.1,65c-0.2,1.3-0.5,2.5-0.9,3.7
		c-6.7,1-13.4,2.1-20.1,2.4c-2.3,0.5-1.7-1.6-1.4-3c1.6-8.4,3.1-16.9,4.7-25.3c-7.4,1.2-14.9,2.1-22.3,3.3
		c-2.1,8.6-3.7,17.4-5.6,26.1c-0.6,4.2-6,3-9,4c5.5,3.3,11.1,6.4,16.3,10.1c-9.7-2.2-19.2-5.4-28.8-8.2c5.1-23.7,11.1-47.3,16.2-71
		c0.5-1.1,0.1-3.4,1.9-3.3c5.6-0.9,11.3-1.9,16.9-2.6c0.3,3.8-1,7.4-1.7,11.1c-1.1,5.7-2.4,11.4-3.5,17.1c7.5-1,15-2,22.5-3.2
		C0.3,438.4,1.9,428.7,3.9,419 M-37.8,457c-1.3,0.1-2.6,0.1-3.9,0.2c-0.3,1.3-0.5,2.7-0.7,4.1l-0.2-0.6c-1.9,7.8-3.2,15.8-5.2,23.6
		c-0.9,3.8-1.6,7.6-2.2,11.4c4.9-0.4,9.8-0.7,14.6-2c0.7-4.1,1.9-8.2,2.2-12.4c1.8-5.2,2.3-10.7,3.9-16c8.9-1.5,17.9-2.3,26.7-4
		c1.9,3.5-0.8,7.6-0.7,11.3c-1.2,5.6-2.2,11.3-2.6,16.9c5.3-0.1,10.6-1,15.8-1.7c0.8-4.4,1.8-8.8,2-13.3c0.7-2.5,1-5.1,1.3-7.7
		c0.3-2,0.6-4,0.9-6c0.6-3.5,1.2-6.9,1.6-10.4C-2.2,452.2-20,454.4-37.8,457z"/>
	<path class="st44" d="M246.6,427.6c2.5-4.7,8.2-7.3,13.5-6.6c12.5,1.8,25,3.5,37.4,5.6c1.1,0.3,2.6,0.4,3,1.7
		c1.6,6.2,2.9,12.5,4.4,18.7c-6.2-0.9-12.4-1.9-18.5-3c-0.2-1.4-0.4-2.8-0.6-4.2c-5.6-0.7-11.1-2.1-16.8-2.1c-2.9,0.4-2.5,4-2.1,6.1
		c1.8,9.4,3.6,18.8,5.3,28.2c0.6,3,2.6,6.2,5.8,6.8c5.4,1,10.8,1.7,16.3,2.4c-0.1-1-0.4-3-0.5-4c6.3,1.1,12.6,2.2,18.9,3.1
		c1.7,7,3.4,13.9,4.9,21c-9.6,2.6-19.1,5.9-28.9,7.8c5.2-3.5,10.9-6.5,16.1-10c-9.6-0.7-19.1-2.8-28.7-3.9
		c-12.3-0.9-23.7-10.7-25.6-23c-1.6-9.9-3.1-19.8-4.7-29.7C244.8,437.5,244.1,432.1,246.6,427.6 M249.9,450.9
		c0.5,3.6,1.1,7.1,1.7,10.7c0.3,2,0.6,3.9,1,5.9c0.4,4,1.5,7.8,3,11.4c2,4.3,5.7,7.4,9.7,9.8c6.5,3.9,14.4,3.8,21.7,4.9
		c8.7,0.8,17.1,3.1,25.9,3c-0.6-4.5-1.5-9-2.2-13.5c-4.4-1.3-9-2-13.5-2.5c0.2,1.3,0.4,2.6,0.6,4c-6.2-1-12.5-1.9-18.7-2.8
		c-3.7-0.3-6.5-3-8.6-5.8c-0.8-2.8-1.4-5.7-2-8.6c-0.6-3.4-1.2-6.8-1.8-10.2c-0.3-1.5-0.6-3-0.9-4.5
		C260.5,451.9,255.2,451.4,249.9,450.9z"/>
</g>
<linearGradient id="SVGID_1_" gradientUnits="userSpaceOnUse" x1="117.904" y1="472.0768" x2="115.362" y2="443.0223">
	<stop  offset="0" style="stop-color:#F0F0F0"/>
	<stop  offset="1" style="stop-color:#A2A5A6"/>
</linearGradient>
<path class="st45" d="M134.3,458.2c-0.8-1.1-1.6-2.1-2.4-3.2l-0.4,0c-1.4-2.5-2.7-5-4.2-7.5c3.2-0.1,7-0.2,9.1-3
	c-13.9-0.5-27.8,0.2-41.8,0.3c-1,6.8-1,13.7-0.8,20.5c-1.1,1.9-0.2,4,0.8,5.7c3.4-0.7,6.8-0.6,10.2-0.3c-0.4-0.4-0.8-0.9-1.2-1.3
	c1.8-1.9,1.2-4.6,1-6.9c0.5-2.2,0.3-4.5,0.3-6.7c0-1.8,0-3.7,0.1-5.5c3.5,0,6.9,0,10.4,0c0.3,0.4,0.9,1.1,1.2,1.4
	c0.4,1,0.8,1.9,1.3,2.9c1.4,2.1,2.9,4.3,4.3,6.5c1.8,2.7,3.3,5.8,6,7.7c4.4,1.3,9.1,0.8,13.7,1.2C139.5,465.9,137,462,134.3,458.2z"
	/>
<linearGradient id="SVGID_2_" gradientUnits="userSpaceOnUse" x1="230.2018" y1="476.2647" x2="227.6762" y2="447.3971">
	<stop  offset="0" style="stop-color:#F0F0F0"/>
	<stop  offset="1" style="stop-color:#A2A5A6"/>
</linearGradient>
<path class="st46" d="M236.4,462.9c-0.6-4.4-1.3-8.9-1.8-13.3c-4.8-0.9-9.8-0.9-14.7-1.5c0.3,2.2,0.6,4.5,0.9,6.7
	c0.3,4.7,1.1,9.3,1.9,14c0.3,1.8-0.6,5.3,2,5.5c4.4,0.5,8.8,0.6,13.2,1.3C237.8,471.3,237.3,467,236.4,462.9z"/>
<linearGradient id="SVGID_3_" gradientUnits="userSpaceOnUse" x1="50.8414" y1="473.4587" x2="48.5628" y2="447.4141">
	<stop  offset="0" style="stop-color:#F0F0F0"/>
	<stop  offset="1" style="stop-color:#A2A5A6"/>
</linearGradient>
<path class="st47" d="M71.1,463.6c-9.6,0.1-19.2,1.1-28.8,1.8c-0.2-1.1-0.3-2.2-0.5-3.3c0.5-2.8,0.9-5.6,1-8.4
	c0.3-1.1,0.5-2.3,0.7-3.4c6.9-0.5,13.7-0.9,20.5-1.5c0.1-0.6,0.3-1.7,0.4-2.2c-10.5,0.2-21,1.1-31.5,2.3c-0.2,1.3-0.3,2.6-0.4,4
	c-0.5,2-0.9,4.1-1.1,6.2c-0.3,2-0.8,3.9-1,5.9c-0.8,3.2-1.4,6.5-0.4,9.8c13.2-1.3,26.5-1.7,39.8-2.9c0.2-0.5,0.7-1.4,1-1.8l-0.7-0.1
	C70.6,467.8,70.9,465.7,71.1,463.6z"/>
<linearGradient id="SVGID_4_" gradientUnits="userSpaceOnUse" x1="283.6105" y1="499.1973" x2="279.1595" y2="448.3228">
	<stop  offset="0" style="stop-color:#F0F0F0"/>
	<stop  offset="1" style="stop-color:#A2A5A6"/>
</linearGradient>
<path class="st48" d="M310.7,483.1c-4.4-1.3-9-2-13.5-2.5c0.2,1.3,0.4,2.7,0.6,4c-6.2-1-12.5-1.9-18.7-2.8c-3.7-0.3-6.5-3-8.6-5.8
	c-0.8-2.8-1.4-5.7-2-8.6c-0.6-3.4-1.2-6.8-1.8-10.2c-0.3-1.5-0.6-3-0.9-4.5c-5.3-0.8-10.5-1.3-15.8-1.8c0.5,3.6,1.1,7.1,1.7,10.7
	c0.3,2,0.6,3.9,1,5.9c0.4,4,1.5,7.8,3,11.4c2,4.3,5.7,7.4,9.7,9.8c6.5,3.9,14.4,3.8,21.7,4.9c8.7,0.8,17.1,3.1,25.9,3
	C312.2,492.1,311.3,487.6,310.7,483.1z"/>
<linearGradient id="SVGID_5_" gradientUnits="userSpaceOnUse" x1="-15.4269" y1="492.7408" x2="-18.8512" y2="453.6011">
	<stop  offset="0" style="stop-color:#F0F0F0"/>
	<stop  offset="1" style="stop-color:#A2A5A6"/>
</linearGradient>
<path class="st49" d="M-37.8,457c-1.3,0.1-2.6,0.2-3.9,0.2c-0.3,1.3-0.5,2.7-0.7,4.1l-0.2-0.6c-1.9,7.8-3.2,15.8-5.2,23.6
	c-0.9,3.8-1.6,7.6-2.2,11.4c4.9-0.4,9.8-0.7,14.6-2c0.7-4.1,1.9-8.2,2.2-12.4c1.8-5.2,2.3-10.7,3.8-16c8.9-1.5,17.9-2.3,26.7-4
	c1.9,3.5-0.8,7.5-0.7,11.3c-1.1,5.6-2.1,11.3-2.6,16.9c5.3-0.1,10.6-1,15.8-1.7c0.8-4.4,1.8-8.8,2-13.3c0.7-2.5,1-5.1,1.3-7.7
	c0.3-2,0.6-4,0.9-5.9c0.6-3.5,1.2-7,1.6-10.5C-2.2,452.2-20,454.4-37.8,457z"/>
<linearGradient id="SVGID_6_" gradientUnits="userSpaceOnUse" x1="182.8971" y1="474.3967" x2="180.1167" y2="442.6156">
	<stop  offset="0" style="stop-color:#F0F0F0"/>
	<stop  offset="1" style="stop-color:#A2A5A6"/>
</linearGradient>
<path class="st50" d="M206.4,457.8c0-1.9-0.8-5.6-0.8-5.6c-0.1-1.7-0.2-3.4-0.3-5.1c-4.2-0.3-8.5-0.7-12.7-1c0.2,2.5,0.4,5,0.6,7.6
	c0.2,3,0.5,6,1.1,9c-1.1,0.5-2.2,1.5-3.5,1.3c-3.8-0.4-7.6-1.2-11.5-0.5c-3.1-0.8-6.5-1.5-8.7-4c-1.9-2-1.6-4.9-1.9-7.4l-0.2,0.5
	c0-0.9,0-2.6,0-3.5c-0.1-1.3-0.2-2.6-0.3-3.9c-4.2-0.1-8.3-0.1-12.5-0.2c0,0.8,0.1,2.5,0.1,3.3c0.1,2.3,0.1,4.6,0.2,6.9
	c0.2,2.4,0.4,4.8,0.5,7.2c1.2,4.3,5.2,7,9.5,7.8c6.6,1.2,13.3,1.8,20,1.5c6.6-0.3,13.1,1.7,19.7,0.9c1-0.2,1.8-1.1,1.7-2.2
	C207.6,466.1,207.3,461.8,206.4,457.8z"/>
</svg>
