<?xml version="1.0" encoding="utf-8"?>
<!-- Generator: Adobe Illustrator 19.0.0, SVG Export Plug-In . SVG Version: 6.00 Build 0)  -->
<svg version="1.1" id="Layer_1" xmlns="http://www.w3.org/2000/svg" xmlns:xlink="http://www.w3.org/1999/xlink" x="0px" y="0px"
	 viewBox="-125 185.5 228.5 303.2" style="enable-background:new -125 185.5 228.5 303.2;" xml:space="preserve">
<style type="text/css">
	.st0{fill:#FE2428;}
	.st1{fill:#A90710;}
	.st2{fill:url(#SVGID_1_);}
</style>
<path class="st0" d="M-82.7,200.1l-18.7,62.3l6.9,22.5l-17.4,6.9l17.1,45.2l3.9,35.3l12.9,11.1l33-135.4l-20.3-5.2
	c-3.5-3-10.7-9.9-14.7-21.2C-83.2,212.5-83.1,204.5-82.7,200.1z"/>
<path class="st1" d="M-103.3,220.5c4.4-13.4,12.7-25.2,22.6-35c-2.4,10.7-3.3,22.1,0.5,32.7c1,2.7,2.4,5.3,3.6,7.9
	c-2.4-2.2-5-4.2-7.5-6.2c5,8.9,10.7,17.7,12.3,27.9c0.8,5.5,1.2,11.6-1.6,16.6c-1.3,2.6-5,3.1-6.9,0.9c-6.4-6.3-6.8-15.8-9-24.1
	c-4.6,8.2-7.4,18-4.8,27.4c3.7,13.6,15,23,21.3,35.1c2.8,4.9,3.3,10.6,2.8,16.1c-2.2-3.6-4.2-7.5-7.4-10.4c-4.4-4-9.9-6.2-15.1-9
	c-3.6-1.9-6.7-4.6-9.8-7.2c0.4,14.2,9.4,25.9,16.5,37.5c5.4,7.9,10,16.5,11.9,25.9c-1.4-1.9-2.8-3.8-4.5-5.4
	c-2.7-2.4-6.2-3.8-8.9-6.1c-1.7-1.7-2.9-3.7-4.3-5.7c-0.9,7,0,14.1,1,21.1c0.9,5.9,3.8,11.2,5.8,16.8c-14.4-11.3-26.6-25.6-34.9-42
	c6.6,1.7,13.5,4.1,20.3,2.5c0.4-0.5,1.2-1.5,1.6-2c-12.8-14.3-23.4-31.6-26.4-50.8c-2.7-15.1,1.4-30.9,10-43.5
	c2.5,10.3,4.6,20.8,9.1,30.5c0.7,1.9,2.3,3.3,4.3,3.6c0-4.8-1.9-9.3-3-13.9C-107.4,248.3-107.6,233.8-103.3,220.5z"/>
<path class="st0" d="M-124.1,218c-1.5-3.2-0.9-6.8,0.2-10c1.5,3.2,3.3,6.3,5.7,8.8c2.3,2.8,5.3,5.3,6.2,9c0.7,2.8-0.4,5.5-1.2,8.1
	C-116.5,228.4-121.3,223.9-124.1,218z"/>
<path class="st0" d="M-73.1,213.7c6.1,1.2,7.8,7.6,10.4,12.4c-0.9-0.1-2.5-0.3-3.4-0.4C-69.3,222.3-70.3,217.4-73.1,213.7z"/>
<linearGradient id="SVGID_1_" gradientUnits="userSpaceOnUse" x1="-102.44" y1="354.26" x2="103.48" y2="354.26">
	<stop  offset="0" style="stop-color:#FE2428"/>
	<stop  offset="1" style="stop-color:#B4081F"/>
</linearGradient>
<path class="st2" d="M103.5,452.5c-25.3-14.6-50.5-29.4-75.9-43.8l0-0.3C4.2,395-19.3,381.7-42.5,367.8c0.1-33.9,0-67.9,0-101.8
	c24.5-0.2,49,0,73.6-0.1c13.6,0.1,27.3,0,40.9,0.1c-0.1,10.8-0.1,21.5,0,32.3c-23.7,0.3-47.3,0.2-71,0.1c0,10.5-0.1,21,0.1,31.5
	c23.6,0,47.2-0.1,70.8,0.2c0.2,12.9,0.2,25.9,0,38.8c-12.7,7.6-25.5,15-38.3,22.5c10,6.2,20.4,11.8,30.7,17.7
	c13.2-7.5,26.2-15.1,39.3-22.8c-0.1-50.5,0-101-0.1-151.5c-52.8,0-105.5,0-158.3,0c-4.4-0.3-9.4,2-13.4-0.7c-2.9-2.5-5.6-5.3-8.3-8
	c-2.4-2.2-5-4.2-7.5-6.2c5,8.9,10.7,17.7,12.3,27.9c0.9,5.5,1.2,11.6-1.6,16.6c-1.3,2.6-5,3.1-7,0.9c-6.4-6.3-6.8-15.8-9-24.1
	c-4.6,8.2-7.4,18-4.8,27.4c3.7,13.6,15,23,21.3,35.1c2.8,4.9,3.3,10.6,2.8,16.1c-2.2-3.6-4.2-7.5-7.4-10.4c-4.4-4-9.9-6.2-15.1-9
	c-3.6-1.9-6.7-4.6-9.8-7.2c0.4,14.2,9.4,25.9,16.5,37.5c5.4,7.9,10,16.5,11.9,25.9c-1.4-1.9-2.8-3.8-4.5-5.4
	c-2.7-2.4-6.1-3.8-8.8-6.1c-1.7-1.7-2.9-3.7-4.3-5.7c-0.9,7,0,14.1,1,21.1c0.9,5.9,3.8,11.2,5.8,16.8l0.1,0.3
	c1.9,1.4,3.7,2.9,5.4,4.5c7.5,7.5,17.4,11.7,26.7,16.5c26,15,51.9,30.1,77.9,45.1c0.4,0.1,1.1,0.2,1.5,0.3l-0.5,0.2
	c25.8,14.7,51.4,29.9,77.3,44.5C103.4,476.6,103.4,464.6,103.5,452.5z"/>
<path class="st0" d="M-124.2,314.5c2.3,0.7,4.8,1.2,6.4,3.1c3.3,3.7,4.7,8.6,7.3,12.7c-1.5-0.2-2.9-0.4-4.4-0.5
	C-119.8,325.9-120.2,319.1-124.2,314.5z"/>
</svg>
