<?xml version="1.0" encoding="utf-8"?>
<!-- Generator: Adobe Illustrator 19.0.0, SVG Export Plug-In . SVG Version: 6.00 Build 0)  -->
<svg version="1.1" id="Layer_1" xmlns="http://www.w3.org/2000/svg" xmlns:xlink="http://www.w3.org/1999/xlink" x="0px" y="0px"
	 viewBox="-21.5 280.2 549.1 281.3" style="enable-background:new -21.5 280.2 549.1 281.3;" xml:space="preserve">
<style type="text/css">
	.st0{fill:#231D49;}
	.st1{fill:#39A2DB;}
</style>
<g id="_x23_231d49ff">
	<path class="st0" d="M510,438.5c-7.6-0.4-15.3,0.9-22.9,0.9c-42.7,2.2-85.4,5.2-128.1,8.1c-43.6,3.5-87.3,6.8-130.8,11.9
		c-30.7,3.8-61.5,7.2-92.1,12.1c10.7-23.2,22.8-45.7,34.1-68.6c3-6.2,7.3-12,7.6-19.1c0.3-4.4-2.2-8.6-6.2-10.5
		c-6.7-3.4-14.4-2.8-21.6-2.9c-13-0.3-25.9,1.2-38.8,2.3c-2,0.3-4.2,0.3-6,1.1c-3.2,2.6-5,6.9-4.4,11c0.3,5.4,2.6,11.7,8.3,13.4
		c9,0.4,18-0.8,26.9-1.8c-5.4,8.7-12.4,16.6-21.3,21.8c-7.7,4.6-17.7,6-25.8,1.7c-3.8-1.6-6.4-5.3-7-9.3c-1.8-12,2.1-23.9,6.2-35
		c7.1-17.7,16.3-34.6,28.3-49.5c6.9-8.4,14.4-16.5,23.5-22.5c2.9-2,6.3-3,9.8-3.2c-0.8,4.6-3.3,8.6-5.3,12.7
		c-3.5,7.3-7.9,14.3-11,21.8c3,5.6,9.8,7.6,15.2,10.4c3.7,1.2,8.8,4.7,12.1,1.1c4.1-4.7,6.4-10.7,8.8-16.4
		c3.1-8.2,6.5-16.4,7.3-25.2c0.6-5.7-3-10.8-7.2-14.3c-8-6.7-18.5-11.5-29.2-10.2c-9.8,1.6-18.9,6.1-27.1,11.7
		c-16.1,11-28.8,26.4-38.9,42.9c-12.7,20.2-21.8,43.1-23.6,67c-0.1,2.7-2.1,4.8-3.5,7c-6.1,9-12.9,18-22.4,23.7
		c-4.4,2.6-9.4,4.7-14.6,3.8c-2.3-0.5-3.8-3-3.3-5.3c1.4-7.7,5.3-14.7,9-21.5c5.9-10.1,11.7-20.3,17.8-30.2c1.4-2.3,2.7-5.1,1.5-7.8
		c-2.1-4.6-6.4-7.8-10.8-10.2c-3.9-2.1-9.4-2.4-12.5,1.3c-6.9,7.4-11.8,16.4-17,25c-6,10.6-12.2,21.3-15.5,33.1
		c-2.2,6.9,0.1,14.5,4.3,20.1c3.3,4.3,7.3,8.8,12.8,10c14.1,3.4,29-1.7,40.5-10.1c6.6-4.7,11.8-11.1,16.7-17.4
		c4.6,7.4,10.5,14.2,18.2,18.4c6.8,3.7,14.4,6.1,22.2,7.1c12.5,1.6,26-2.9,33.8-13c-7.4,13.9-15,27.6-22.6,41.4
		c-8.9,1.9-17.8,4-26.7,5.9c-13.5,2.9-27.3,6.6-39,14.2c-10.9,7-19.5,18.1-22.4,30.9c-1.5,6.9-0.9,14.6,3,20.5
		c6,8.9,17.2,13.8,27.8,12.2c10.9-1.5,20.5-7.5,29-14.2c16.8-13.7,31.1-30.3,42.9-48.4c29.4-5.8,59.2-9.3,89-13.2
		c51.9-6.2,104-10.6,156.2-14.6c42.3-3.1,84.6-5.8,127-7.8c4.7-0.4,9.7,0.1,14-2.3c5.7-3.1,9.8-9.3,9.8-15.9
		C515.7,441.7,513.2,438.6,510,438.5z M68.7,523.6c-7.5,7.3-15.1,14.7-24.3,19.8c-3.3,1.8-7.4,3.2-11,1.8c-3.8-2-3.9-7.2-2.1-10.6
		c3.4-6.5,9.2-11.2,15.3-15c11.3-7.3,24.7-10.3,37.7-13.1C79.6,512.6,74,518,68.7,523.6z"/>
	<path class="st0" d="M457.9,346.8c7.2-7.9,16.3-14.9,27-16.9c9.2-2.1,17.6,4.2,24,10c6,5.5,4,14.5,1.4,21.2
		c-4,8.9-10,17.4-18.3,22.8c-7.9,5-17-0.3-24.4-3.6c-2.1,6.3-3.6,13.1-1.8,19.7c1.1,4.4,6,6,10.1,6.1c8,0,15.6-3.5,21.6-8.7
		c7.4-6.4,12.9-14.5,18.6-22.3c1.5-2.2,4.1-4,6.9-3.2c4.8,0.8,5.6,7.2,3.4,10.7c-4.6,8.1-10.8,15.1-17.2,21.8
		c-9,8.9-20.3,16.5-33.3,17.3c-10.1,0.9-19.8-3.4-28.2-8.5c-4.1-2.4-6.6-6.7-8.3-11.1c-5.7,6.4-11.7,12.6-17.9,18.5
		c-5.9,5.5-13.1,10.6-21.5,11c-4.5,0.5-8.4-2.3-11.7-4.9c-4.6-3.8-9-8.2-11.2-13.8c-1.1-2.4-0.8-5.2,0-7.7
		c2.9-8.8,6.8-17.3,10.6-25.8c-16,14.2-30.2,30.4-42.5,47.8c-2.5,4.1-8.1,3.1-12.2,3.1c-4.2-0.7-9.7-0.5-12.4-4.4
		c0.3-3.4,1.6-6.5,2.6-9.7c3.4-11,7.3-21.8,10.8-32.7c-12.7,11.8-24.8,24.3-36.9,36.6c-3.2,3.1-4.2,7.7-6.7,11.2
		c-2,2.4-5.6,2.4-8.4,1.7c-5.7-1.6-10.7-5.1-15.1-9.1c-8.8,7.4-19.8,14.3-31.9,12.5c-5.5-0.6-10.1-4.4-12.4-9.5
		c-4.5,4.8-9.7,10.1-16.6,10.8c-6.4,0.8-12.2-3.1-16.4-7.6c-5.6-5.6-9.3-13.3-9.4-21.3c-0.6-10.3,3.8-20.1,9-28.7
		c6.1-9.6,13.2-18.6,21.8-26.1c6.1-5.1,13.5-9.7,21.8-9.6c6.4,0.7,10.1,6.8,13.2,11.8c3.2-3.6,6.3-9.3,12-8c5.5,1,11.7,2.5,15.3,7.1
		c2.2,2.8,0.3,6.2-1.2,8.8c-7.8,13.3-16.6,26.1-22.4,40.5c-1.4,3.9-3,8.1-2.6,12.3c0.4,2.7,4.1,2,5.8,1c7.9-4.5,13.5-12,19.3-18.8
		c4.3-4.8,6.6-10.8,9.7-16.3c4.9-9.2,10-18.4,15.9-27.1c2.6-3.6,5.2-7.5,8.8-10.2c2.8-2.2,6.4-0.3,9.4,0.5c4.6,1.8,9.9,3.7,12.6,8.2
		c1.9,3.1-1.3,5.8-2.7,8.4c-3.6,6.3-7.2,12.6-10,19.2c10.4-11.9,20.9-24,33.6-33.5c3.8-2.7,8.8-5.9,13.4-3.3
		c6.3,4.3,10.2,12.3,9.4,19.9c-1.5,6-4.5,11.5-6.3,17.5c11.6-13.1,24.1-25.6,37.3-37.2c3.7-3.1,7.4-6.4,11.9-8.4
		c3.8-1.5,7.7,1,9.8,4.1c4.4,6.3,6.9,14.5,5.2,22.2c-3.2,5.3-7.3,10.2-10.3,15.7c-5,8.9-10.2,17.8-13.1,27.6c-0.8,2.4-1.2,5-0.2,7.5
		c7.4-2.8,12.6-9,17.8-14.6c5.6-6.6,11.7-13.1,16.1-20.7C443.9,366.8,449.8,355.9,457.9,346.8 M486.2,351c-5.1,4.5-8.9,10.3-12.5,16
		c2.3,0.8,4.7,2.2,7.3,1.7c2.4-1,4-3.3,5.3-5.4c2.7-4.6,5.2-9.5,5.1-14.9C489.5,349,487.6,349.6,486.2,351 M231.6,366.6
		c-4.2,3.5-7.1,8.3-10,12.9c-5.3,9-10.3,18.2-14,28c-1.4,3.5-2,7.3-2,11c5.9-1.5,9.4-6.8,12.6-11.5c7.6-10.8,11-23.8,17.9-35.1
		c1.7-2.1,0.9-4.7,0.3-7C234.7,365.3,232.9,365.3,231.6,366.6z"/>
</g>
<path class="st1" d="M61,324.9c0-0.1-0.1-0.2-0.1-0.2c-0.4-0.6-1-1.1-1.8-1.2c-10-2.1-20-8.8-21.9-19.4c-0.6-1.9-0.3-5.7-3.2-5.4
	c-0.1,0-0.2,0-0.2,0c-0.1,0-0.2,0-0.2,0c-2.9-0.2-2.5,3.6-3.2,5.4c-2,10.6-11.9,17.4-21.9,19.4c-0.7,0.2-1.4,0.6-1.8,1.2
	c0,0.1-0.1,0.2-0.1,0.2c-0.4,0.6-0.4,1.3,0,1.9c0.1,0.1,0.1,0.2,0.2,0.3c0.4,0.6,0.9,1,1.6,1.1c7,1.5,14,4.6,18.3,10.6
	c2.8,3.4,3.9,7.7,4.4,12c0.1,0.8,0.6,1.5,1.3,1.9l0.2,0.1c0.4,0.2,0.8,0.3,1.2,0.2c0.4,0.1,0.8,0,1.2-0.2l0.2-0.1
	c0.7-0.4,1.2-1.1,1.3-1.9c0.6-4.3,1.7-8.6,4.4-12c4.2-6,11.3-9.1,18.3-10.6c0.7-0.1,1.2-0.5,1.6-1.1c0.1-0.1,0.1-0.2,0.2-0.3
	C61.3,326.3,61.3,325.5,61,324.9z"/>
</svg>
