<?xml version="1.0" encoding="utf-8"?>
<!-- Generator: Adobe Illustrator 21.0.0, SVG Export Plug-In . SVG Version: 6.00 Build 0)  -->
<svg version="1.1" id="Layer_1" xmlns="http://www.w3.org/2000/svg" xmlns:xlink="http://www.w3.org/1999/xlink" x="0px" y="0px"
	 viewBox="0 0 500 500" style="enable-background:new 0 0 500 500;" xml:space="preserve">
<style type="text/css">
	.st0{fill:#1F221D;}
	.st1{fill:#AA1B2F;}
	.st2{fill:#931C2C;}
	.st3{fill:#E6E8E9;}
	.st4{fill:#BAC0C1;}
	.st5{fill:#871325;}
	.st6{fill:#BF203A;}
	.st7{fill:#E99320;}
	.st8{fill:#FFFFFF;}
</style>
<g>
	<path class="st0" d="M365.8,493.8c16.7,0,31-14.1,32.6-26.8l11.2-76.6l-6.8-0.6l13.1-70.1h-29.9l-19.9-0.1l-30.6-0.1l-0.2,0
		l-108.8-0.6h-7.1l-89.4,0.2l-30.5,0.3l2,177.4l28.8-0.3l114.8-2.7L365.8,493.8z"/>
	<polygon class="st1" points="151.6,333.1 144.5,399.2 135.2,336.7 118.1,336.9 119.7,478.1 130.4,477.9 129.1,376.4 140.9,428.3 
		141,429.1 147.7,429 160.6,367.9 158.3,474.2 171.5,474.1 169.9,332.9 	"/>
	<polygon class="st1" points="177,343.6 180.1,352 180.1,475.2 194.5,475.2 196.1,334.8 177,334.8 	"/>
	<path class="st1" d="M365.7,350.2l11.8-1l2.5,13.3h9.5l2.7-25.9l-32.4-2.6l-6.8,8.4l-2.4,68.7l22.7,5.1l-5.8,45.6l-12.8-2.4
		l1.2-15.1h-12l-0.5,31.1h23.6c5.3,0,13.9-6,14.3-11.1l6.6-59.5l-24.5-4.5L365.7,350.2z"/>
	<polygon class="st1" points="291.1,334.8 291.1,471.8 307.3,471.8 303.6,336.1 	"/>
	<g>
		<polygon class="st1" points="282.6,351.7 282.6,334.8 249.5,334.8 245.5,475.2 262.4,475.2 262.4,424.1 280.2,421.1 280.2,410.8 
			261.5,410.8 261.5,351.7 		"/>
		<path class="st1" d="M202.9,346v63.3l19.8,5.4l4,47.4h-23.7v14h25.4c5.5,0,11.9-6.2,11.9-11.7V404l-21.8-5.9l-2.5-47.6l24.3-3.4
			v-10.5h-29.5C206.5,336.6,202.9,341.8,202.9,346z"/>
	</g>
	<path class="st1" d="M348.1,344.5l2.8-9.1l1.7-7.3l-13.3,8.9l-27-0.9l-2.5,16.8l12.4-1.1l-3.4,122.4l0,0.9h16.4V351.5l0.5-0.1
		c1.7,0.1,3.2-0.1,4.8-0.7C342.8,349.7,346.1,347.8,348.1,344.5z"/>
	<g>
		<polygon class="st2" points="119.2,428.4 119.7,478.1 130.4,478 129.8,430.5 		"/>
		<polygon class="st2" points="159.1,436.4 158.3,474.2 171.5,474.1 171.1,438.8 		"/>
		<polygon class="st2" points="180.1,475.3 194.5,475.3 194.9,443.5 180.1,440.6 		"/>
		<path class="st2" d="M372.2,424.8l-4.7,36.9l-12.8-2.4l1.2-15.1h-12l-0.5,31.1h23.6c5.3,0,13.9-6,14.3-11.1l4.6-41.4L372.2,424.8z
			"/>
		<polygon class="st2" points="245.5,475.3 262.4,475.3 262.4,440.9 246.4,443.2 		"/>
		<polygon class="st2" points="291.1,436.7 291.1,471.8 307.3,471.8 306.3,434.5 		"/>
		<path class="st2" d="M226.6,462.1h-23.7v14h25.4c5.5,0,11.9-6.2,11.9-11.7v-20.4l-14.8,2.2L226.6,462.1z"/>
		<polygon class="st2" points="318.8,474.3 318.8,475.3 335.2,475.3 335.2,430.3 320,432.5 		"/>
		<g>
			<path class="st2" d="M248.7,363c4.3-0.3,8.7-0.9,12.8-1.8v-9.4h21.1v-16.9h-33.1L248.7,363z"/>
			<path class="st2" d="M203.8,341.9c2.1,6.2,6,14.2,12.5,18.9l-0.5-10.4l24.3-3.4v-10.5h-29.5C207.8,336.6,205.2,339,203.8,341.9z"
				/>
		</g>
	</g>
	<path id="Base_57_" class="st0" d="M375.2,233.3l20.9,12.1l-15.9-34.7c-0.8-1.7-6.5-13.2-22.8-22.7c5.1,0,11.7,0.8,11.7,0.8
		c-10.1-9-24.7-12.5-32.2-13.8c-3.2-3.9-7.9-8-10.6-10.2c11.2-11.4,27.1-32.4,32.2-63.9c6.2-38.2-7.8-75.3-24-90.8
		c-1.7-1.6-3.4-3-5-4.1l0,0c-2.7-1.8-7.2-3.6-8-3.9c-4.4-1.3-8.2-1.2-11.2-0.6c-31.3,6.5-35.1,76.9-35.1,77.6
		c-0.1,4.3,0.2,10.4,0.6,17.4c0.3,5.7,0.6,12.2,0.8,18.7l-1.2,0.8c-1.3,0.8-10,6.8-16,20.1c-6.3-1.1-16.4-2.3-28-1.9
		c11.2-43.4,5-68.5-2.6-82.3c-3.8-6.8-11.1-10-19-8.4c-22.2,4.7-55.8,54.1-58.9,86.8c-1.8,19.2,1.7,38.7,6,54.1l6.2,18.6
		c0,0-6.2,11.5-0.2,37.1c0,0-20.7,22.5-13.3,48c0,0,3.4-6,7-9c0.6,7,2.5,14.7,6.9,22.1l8.2,13.6l9.8-10.2c2,1.5,4.3,3,6.8,4.3
		c10.7,5.6,13.2,8.1,13.3,8.2c0,0,3.4,20.9,16.5,28.4c0,0-1.3-5.4-1.3-9.3c3.9,4.7,9.6,8.5,17.7,9.8c0.5,0.1,1,0.2,1.6,0.2
		c19.3,2.2,41.7-4.2,52.3-14.9l3.2-3.2l0.3-4.6c0,0,0.1-0.8,0.3-2.1l13.1-15.4c1.9-2.2,7.7-7.7,12.3-9.2c5.4-1.8,17-9.3,27.4-19.8
		l-3.8,35.2l27.8-42.5c1.1-1.7,10.5-16.8,6.4-35.7C375.3,233.8,375.3,233.6,375.2,233.3z"/>
	<path id="Face_105_" class="st3" d="M301.2,155.7c6.6-24.7,1.9-40.4-0.1-55.9c-2-15.4,3.9-35.4,3.9-35.4c13.6,23,7.6,52.7,7.6,52.7
		c3.7-1,10.8-13.2,10.8-13.2c2.2,22.8-12.2,36.7-12.2,36.7c2.4,0.3,5.4,0,5.4,0C313.4,146.7,301.2,155.7,301.2,155.7z M219.5,210.3
		c4.8-1.9,9.3-12.2,11.1-18.9l0.1-0.3c1.5-4.4,3.8-8.1,6.9-11c-11.3,0.1-29.4,1.4-37.8,7.9c-7.4,5.7-11.5,12.4-13.7,17.3
		c1-0.1,2.1-0.1,3.1,0.1c4,0.6,7.7,3.2,10.2,5.8C199.6,211.4,205.9,217.5,219.5,210.3z M182.6,263.6c4,8.6,16.1,11.3,18.5,11.7
		c0.1,0,0.1,0,0.2,0c6.7,1.1,15.3-7.1,18-9.8l-14-13.1c-12.7,0.3-18.3-5.6-19.4-6.9l-0.9-0.1C181.1,252.6,180.3,258.7,182.6,263.6z
		 M177.7,195c-2.9-8-11.8-36.5-3.3-55.3c0,0-7.5,26.7,9.7,47.3c4.4-4.8,9.2-9,14-12.5c-2.4,0.6-4.3,1-4.7,1.1l-8.4,1.6l5.7-6.3
		c6.3-7.1,16.5-11.9,25.3-14.9c-5.1-0.8-9.4-2.8-9.6-2.9l-6.8-3.1l7.1-2.3c3-1,6-1.7,9-2.3c14.8-46.6,10.5-73.4,2.6-87.6
		c-8.2-14.7-51.7,37.7-55.1,73.6c-2.6,27.1,7,55.6,11.8,68.1C175.7,198,176.7,196.5,177.7,195z M295.9,111.3
		c-5.1-32.7,3.8-65.9,14.1-77c0,0-4.1,16.5,3.2,33.9c7.4,17.4,6.3,28.3,5.7,32.1c0,0,7.2-5.8,7.9-11.5c0,0,4,30.6-4,42.6
		c0,0,6.3-1.9,7-2.7c0,0-11.5,23.5-28.7,32.6l6.7,3.5c0,0,31.5-21.3,38.6-65.8c7.2-44.5-16.6-89-33.6-85.5c-17,3.5-25,49.9-25.4,66
		c-0.4,16.1,6.3,67.5-6.1,79.3c0,0,5.7-15.3,0.8-32.5c0,0-12.5,8.1-15.8,28.9l-2.9-5.8c0,0-29-7.6-56,1.1c0,0,7.4,3.4,13.8,2.9
		c6.4-0.4,9.7,0.1,11.7,0.9c0,0-28.1,4.9-40.2,18.4c0,0,7.5-1.5,11.2-3.5c3.7-2.1,10.7-4.8,16.6-5.3c0,0-54.1,25.6-47.4,61.3
		c1.1-7.1,2.4-12.8,6.6-16.7c1.3-4.4,5.4-15.1,17.1-24.2c11.6-9,37.1-9.2,47.8-8.9c4-1.8,8.3-2.7,12.7-3c-0.6-3.3-1.9-5.8-2-5.8
		l-4.2-7.3l7.3,4.4c4,2.7,6.5,6.1,8,8.8c6.6,0.5,12.8,1.8,17.5,2.7c2.2,0.5,4,0.8,5.3,1c8.3,1.1,12.1,0.6,12.8,0.4l8.8-3.2
		c-6.8-5-14.6-10.3-21.3-13.2C289.5,160.3,301,144.1,295.9,111.3z M343.3,210.6c0,0,16-0.6,25.9,5.1c0,0-8.1-17.8-37.9-25.2
		c0,0,11.9-3.2,18.1-2.9c0,0-7.9-1.3-16.6-1.2l-2.6,1c-12.6,4.9-23.6,12.1-25.4,16.6c-1.2,2.8-2.6,5.4-4.1,7.8
		c26,26,18.3,51.1,18.3,51.1c-1.9-22.2-15.8-36.8-24.3-43.8c-3.4,3.3-7.1,5.7-11.3,7.3c-5.6,2.1-12,2.7-18.9,1.7
		c0.8,1.8,2.6,6.8,0.5,13.7c0,0-0.6-10.2-7.7-15.2c-7-1.9-13-4.7-17-6.6c-1.1-0.5-2-0.9-2.7-1.2c-1.5-0.7-3.2-1.2-4.9-1.5
		c-2-0.4-7.5-0.8-15.7,2.3c-9.6,3.6-21.6,10.9-25.2,15.3c-4.3,6.5-1.6,9.3-1.2,9.6c3,1.4,6.3,2.3,9.8,2.6c5,0.5,13.1-6.3,22.9-19.1
		l0.4-0.6c1-1.3,3.4-2.4,5.3-1.9c1,0.2,2.4,1,2.9,3.4c1,4.9-1.1,6.7-1.2,6.7l-1.1,0.9l0-1.4c0-0.3-1-0.8-2.1-1l-15.3,17.2l10.1,12.6
		c23.3-7.3,58.8-23.4,63.5-25.5c-0.4-2.2-0.2-3.6,0.7-4.4c1.1-1,3.1-0.8,6.3,0.5c0.3,0.1,0.8,0.4,1,1.1c1.8,5.3-13.5,32.9-22.8,48.8
		c-4.3,7.3-8,8.6-11,9.6l-0.2,0c-19.1,4.8-30.9,5.8-37.3,4.7c-3.2-0.5-5-1.5-5.7-2.8c-1.2-2.4-1-4.1-0.7-5.1c-6.4-1.3-13-8-14.2-9.3
		c-13.3-1.4-21.1-10.5-22.8-13.6c-5-11-0.7-19.4,2.1-23.2c-1.1-0.4-2.5-1-3.9-2C162.9,256,160.2,271,160.2,271s5.4-9.8,11.3-13.4
		c0,0-8,20,2.5,37.4c0,0,2.6-2.7,2-13.9c-0.3-3.9,1.3-8,1.3-8s-0.4,16.1,16.7,25.2c16.4,8.7,17.4,11.7,17.4,12
		c0-0.2-0.7-4.1,1.8-7.9c0,0-0.3,16.9,4.8,24.5c0,0-0.9-6.2,3.3-11.3c0,0,0.6,17,16.3,18.8c15.7,1.8,34.4-3.4,42.2-11.3
		c0,0,1.5-24.2,20.4-35.2c0,0-3.8,7.1-4.1,10.5c0,0,8.3-9.8,17.8-12.9c9.4-3.1,42.2-29.9,39-50c0,0,7.4,14,5.9,27.8
		C358.8,263.1,378.3,233.2,343.3,210.6z"/>
	<path id="Face_HL_26_" class="st4" d="M239.7,257.8c-6.1,2.3-12.1,4.4-17.4,6.1l-10.1-12.6l7.8-8.8
		C215.7,258.6,231.4,258.7,239.7,257.8z M185,245.5c-3.9,7.1-4.7,13.1-2.4,18.1c4,8.6,16.1,11.3,18.5,11.7c0.1,0,0.1,0,0.2,0
		c3,0.5,6.4-0.9,9.5-2.8c-14.1-5.7-14.6-15.8-13.8-20.9c-6.9-1.6-10.3-5.1-11.1-6.1L185,245.5z M200,228.3c-3.7,2.4-6.7,4.8-8.3,6.6
		c-4.3,6.5-1.6,9.3-1.2,9.6c3,1.4,6.3,2.3,9.8,2.6c1.3,0.1,2.8-0.3,4.5-1.1C192.9,242.8,196.9,233.3,200,228.3z M163.1,131.5
		c-2.6,27.1,7,55.6,11.8,68.1c0.8-1.6,1.8-3.1,2.8-4.6c-2.9-8-11.8-36.5-3.3-55.3c0,0-7.5,26.7,9.7,47.3c4.4-4.8,9.2-9,14-12.5
		c-2.4,0.6-4.3,1-4.7,1.1l-8.4,1.6l5.7-6.3c6.3-7.1,16.5-11.9,25.3-14.9c-12.1-0.6-36.2-3.9-32.6-27.8c3.6-23.8,23.8-31,23.8-31
		c-15.1-3-26.5,11.7-26.5,11.7c16-38.1,37.1-33.6,44.1-30.9c-1.2-8.5-3.6-15.2-6.4-20.2C210,43.1,166.5,95.6,163.1,131.5z
		 M201.3,202c-2.8-5.3-0.2-12.1,2-16.2c-1.3,0.7-2.5,1.4-3.5,2.2c-7.4,5.7-11.5,12.4-13.7,17.3c1-0.1,2.1-0.1,3.1,0.1
		c4,0.6,7.7,3.2,10.2,5.8c0.3,0.3,6.6,6.4,20.2-0.8c0.8-0.3,1.6-0.9,2.3-1.6C216.4,210.2,205.1,209.1,201.3,202z M284.1,137.8
		c-0.2-3.6-0.8-7.6-1.9-11.6c0,0-11.4,7.5-15.3,26.2C268.5,148,273.4,138.5,284.1,137.8z M318.3,29.3c-3.9,0-8.3,5-8.3,5
		s-4.1,16.5,3.2,33.9c7.4,17.4,6.3,28.3,5.7,32.1c0,0,7.2-5.8,7.9-11.5c0,0,4,30.6-4,42.6c0,0,5.6-1.6,6.8-2.6l0.2-0.2
		C354.5,55.3,322.2,29.3,318.3,29.3z M209,175.5c12.5-12.2,41.4-9.5,41.4-9.5c-4.9-5.4-18.8-7.4-18.8-7.4
		c10.1-4.3,19.1-3.1,19.1-3.1c-5.1-4.9-17-7.6-23.8-8.8c-6.3,0.5-13,1.7-19.5,3.8c0,0,7.4,3.4,13.8,2.9c6.4-0.4,9.7,0.1,11.7,0.9
		c0,0-28.1,4.9-40.2,18.4c0,0,7.5-1.5,11.2-3.5c3.7-2.1,10.7-4.8,16.6-5.3c0,0-54.1,25.6-47.4,61.3c1.1-7.1,2.4-12.8,6.6-16.7
		c1.3-4.4,5.4-15.1,17.1-24.2c11.6-9,37.1-9.2,47.8-8.9C228.1,171,209,175.5,209,175.5z M294.7,219.1c-3.4,3.3-7.1,5.7-11.3,7.3
		c-5.6,2.1-12,2.7-18.9,1.7c0.8,1.8,2.6,6.8,0.5,13.7c0,0,1.8-1.9,3.4-9.6C268.3,232.2,286.7,232.2,294.7,219.1z M329.8,208.4
		c5.9-0.6,13.4,2.2,13.4,2.2s16-0.6,25.9,5.1C350.8,196.8,329.8,208.4,329.8,208.4z M345.8,223.4c3.1,3.3,7,11.9,7,11.9
		s7.4,14,5.9,27.8C372.4,236.5,345.8,223.4,345.8,223.4z M225.5,302.4c0,0-7.1,4.2-7.7,5.9c0,0-0.7-6.1,1.1-10.6
		c-1-0.5-1.6-1.1-2-1.7c-1.2-2.4-1-4.1-0.7-5.1c-6.4-1.3-13-8-14.2-9.3c-13.3-1.4-21.1-10.5-22.8-13.6c-5-11-0.7-19.4,2.1-23.2
		c-1.1-0.4-2.5-1-3.9-2C162.9,256,160.2,271,160.2,271s5.4-9.8,11.3-13.4c0,0-8,20,2.5,37.4c0,0,2.6-2.7,2-13.9
		c-0.3-3.9,1.3-8,1.3-8s-0.4,16.1,16.7,25.2c16.4,8.7,17.4,11.7,17.4,12c0-0.2-0.7-4.1,1.8-7.9c0,0-0.3,16.9,4.8,24.5
		c0,0-0.9-6.2,3.3-11.3c0,0,0.6,17,16.3,18.8c15.7,1.8,34.4-3.4,42.2-11.3C279.7,322.9,225.3,349.2,225.5,302.4z"/>
	<path id="Scar_111_" class="st5" d="M317.8,248.1c-5.1-15.7-14.9-25.6-21.3-30.7c1.1-1.2,2.1-2.5,3.1-3.9
		C315.2,229.6,317.8,248.1,317.8,248.1z M263.8,172.4c-1.4-2.2-3.5-4.7-6.6-6.8c0,0,1.6,2.8,2.3,6.8
		C260.9,172.3,262.4,172.3,263.8,172.4z"/>
	<path id="Goggles_Mid_111_" class="st1" d="M186.6,236.1c-1,1.8-1.8,3.7-2.4,5.7c0,0-9.9-1.4-8.3-11.5c1.6-10.1,2.2-16.8,7.9-20.5
		c5.7-3.7,12.9,3.8,12.9,3.8s3.7,3.9,10.2,4.5c0,0-3.9,1.7-8.6,5.2c-10.3-2.4-16.9,7-16.9,7s2.7,0.1,3,1.4
		C185,233.8,185.9,235.2,186.6,236.1z M299.4,181.5c-3.9-0.4-11.7-1.9-11.7-1.9l0,0c-11.4-2-45.2-12.2-53.6,12.6
		c0,0-4.6,17.9-13.1,21.3c0,0,9-1.9,18.1,1.9c8.2,3.5,39.4,21.6,57.6-4c3.5-5.3,5.8-12.8,6.2-14.2c0.5-1.4,1.7-5.3,2.3-6.5
		C307.4,185,303.2,181.9,299.4,181.5z M275.3,211.1c0,0,4.9,0.4,8.8-3.1c0,0-6.6,10.7-19.4,6.8c-12.7-4-11.6-8-18.1-7.4
		c0,0,7.3-9,18.6-14.2c11.3-5.3,22.8-7,22.5-2c0,0-1.4-0.6-2.3-0.3C285.5,190.9,286.1,203.5,275.3,211.1z"/>
	<path id="Goggles_Light_230_" class="st6" d="M322,173.3l-9.3,3.4c0,0-1.9,0.7-0.8,2.3c1.1,1.6,5.3,5.6,5.2,8.2
		c-0.1,2.5,0.7,2.1,0.9,2l0,0c3.4-1.8,7.1-3.5,11-5C326.3,177.1,322,173.3,322,173.3z M314.3,188.5c-0.1-0.8-0.6-2.2-1.3-3.2
		c0,0-1.3-1.9-2.1-2.9c-0.6-0.7-1.1-1.3-1.5-1.8c-1.6-2.1-2.7-1.8-2.7-1.8l-0.2,0.1c-0.1,0-0.2,0.1-0.4,0.2c0,0,0,0,0,0l0,0
		c0,0-0.9,0.7,0.2,1.8c1.1,1.1,5.2,4.4,2.1,11.3c-0.3,0.7-0.8,1.9-0.6,2.5c0.1,0.6,0.6,0.4,0.8,0.3l4.7-3.2
		C314.2,191.2,314.4,189.3,314.3,188.5z M305.1,190.8c-0.2,0.5-0.6,1.5-0.9,2.5c-1.1-3.1-5-7.3-16.7-9.6
		c-20.7-4.2-50.2-0.9-54.2,11.2l0,0c0.5-1.6,0.8-2.7,0.8-2.7c8.4-24.8,42.2-14.6,53.6-12.6l0,0c0,0,7.9,1.5,11.7,1.9
		C303.2,181.9,307.4,185,305.1,190.8z"/>
	<path id="Goggles_Dark_111_" class="st5" d="M313.3,191.8l-3.4,2.3c0.9-2.6,2.4-4.9,4.2-6.8c0.1,0.4,0.3,0.8,0.3,1.1
		C314.4,189.3,314.2,191.2,313.3,191.8z M317.9,189.1L317.9,189.1c3.4-1.8,7.1-3.5,11-5c-0.7-1.9-1.5-3.6-2.4-5
		c-2.4,1-6.5,2.9-10.1,6c0.4,0.7,0.6,1.4,0.6,2.1C316.9,189.7,317.8,189.2,317.9,189.1z M285.5,190.9c0,0,0.6,12.6-10.2,20.2
		c0,0,4.9,0.4,8.8-3.1c6.1-10.3,3.7-16.8,3.7-16.8S286.5,190.6,285.5,190.9z M232.9,195.9L232.9,195.9c-1.8,5.4-5.9,15.2-12,17.7
		c0,0,9-1.9,18.1,1.9c2.7,1.1,7.7,3.8,13.9,6C231.1,213.1,232.9,195.9,232.9,195.9z M184.6,209.4c-0.3,0.1-0.5,0.2-0.8,0.4
		c-5.7,3.7-6.3,10.4-7.9,20.5c-1.6,10.1,8.3,11.5,8.3,11.5c0.6-2,1.4-3.9,2.4-5.7c-0.8-0.9-1.7-2.3-2.3-4.4c-0.3-1.3-3-1.4-3-1.4
		s0.6-0.8,1.6-1.8C181.2,219.7,184.5,209.6,184.6,209.4z"/>
	<path id="Eyes_99_" class="st7" d="M252.9,206.4c0,0,12.4-11.9,29.2-14.1C282.1,192.3,278.5,222.9,252.9,206.4z M184.5,229.4
		c0,0,2.2,0,2.5,2.2c0.2,1.3,0.4,2,0.8,2.5c2.2-3.4,5-6.3,7.7-8.6C192.4,225.2,188.2,225.8,184.5,229.4z"/>
	<path id="Teeth_64_" class="st8" d="M274.9,260c-2.1,2.6-8.4,5.8-8.4,5.8c2.1-1.5,6.2-7.7,6.2-7.7c1.1-2.8,1.3-6.5,1.4-9
		c-13.7,6-34.7,14.7-50.3,19.6l-0.9,0.3c-2.6,2.7-6.6,6.3-11.2,8.8c0,0,10.2,8.2,9.4,15.4c0.3,0.1,1,0.4,2.2,0.6
		c3.8,0.6,13.5,0.8,35.1-4.6l0,0c2.5-0.8,4.9-1.6,8.2-7.3c3.8-6.6,7-12.2,9.6-17C276,262.2,274.9,260,274.9,260z M261.9,282.1
		c0,0-6.3-2.9-8.2-5.7l-24.3,7c2-0.7,24-10.5,24-10.5l7.1,4.8c0,0,3.8-7.2,1.3-16.7C261.8,261.1,267.4,272.5,261.9,282.1z"/>
</g>
</svg>
