<svg xmlns="http://www.w3.org/2000/svg" width="750" height="678">
  <defs>
    <linearGradient id="a" x1="-23480.02%" x2="13466.24%" y1="10042.143%" y2="-5671.471%">
      <stop stop-color="#fff" stop-opacity="0" offset="0%"/>
      <stop stop-color="#fff" offset="100%"/>
    </linearGradient>
    <linearGradient id="b" x1="-23256.84%" x2="13689.41%" y1="3515.343%" y2="-1984.422%">
      <stop stop-color="#fff" stop-opacity="0" offset="0%"/>
      <stop stop-color="#fff" offset="100%"/>
    </linearGradient>
    <linearGradient id="c" x1="-20755.15%" x2="16191.1%" y1="6926.361%" y2="-5295.333%">
      <stop stop-color="#fff" stop-opacity="0" offset="0%"/>
      <stop stop-color="#fff" offset="100%"/>
    </linearGradient>
    <linearGradient id="d" x1="-20407.66%" x2="16538.6%" y1="9404.415%" y2="-7517.938%">
      <stop stop-color="#fff" stop-opacity="0" offset="0%"/>
      <stop stop-color="#fff" offset="100%"/>
    </linearGradient>
    <linearGradient id="e" x1="-20075.65%" x2="16870.6%" y1="11971.4%" y2="-10027.66%">
      <stop stop-color="#fff" stop-opacity="0" offset="0%"/>
      <stop stop-color="#fff" offset="100%"/>
    </linearGradient>
    <linearGradient id="f" x1=".027%" x2="100.01%" y1="49.971%" y2="49.971%">
      <stop stop-color="#9E0000" offset="0%"/>
      <stop stop-color="#600" offset="100%"/>
    </linearGradient>
    <linearGradient id="g" x1="-.011%" y1="49.983%" y2="49.983%">
      <stop stop-color="#fff" offset="0%"/>
      <stop stop-color="#ccc" offset="100%"/>
    </linearGradient>
  </defs>
  <g fill="none">
    <path fill="url(#a)" d="M748.5 129.1c.1.5.1 1 .2 1.4-.1-.4-.1-.9-.2-1.4z"/>
    <path fill="url(#b)" d="M749.2 134c.2 1.4.3 2.7.5 4-.2-1.3-.3-2.6-.5-4z"/>
    <path fill="url(#c)" d="M745.5 184.9c-.2.6-.3 1.2-.5 1.8.2-.5.3-1.2.5-1.8z"/>
    <path fill="#1A1A1A" d="M742.8 186.8c-.4 1.3-.7 2.6-1.1 3.8.4-1.3.8-2.6 1.1-3.8z"/>
    <path fill="url(#d)" d="M741.7 190.6c-.1.4-.3.8-.4 1.3.1-.5.3-.9.4-1.3z"/>
    <path fill="#1A1A1A" d="M741.3 191.9c-.5 1.5-.9 2.9-1.4 4.4.5-1.5 1-3 1.4-4.4z"/>
    <path fill="url(#e)" d="M739.8 196.5c0-.1.1-.2.1-.3 0 .1-.1.2-.1.3z"/>
    <path fill="#FF3500" d="M315 486c57.1-53.5 104.6-101.8 140.8-138l2.5-2.5c.1-.1.3 0 .4-.1 16.5-16.6 25.9-26.2 35.1-35.9.2-.2-.6-2.1-.4-2.3 36.8-38.1 30.9-32.7 53.9-58.2 29.3-32.5 43.9-58.6 43.9-78.5 0-5.9.7-15-5.3-24.1-6.1-9.4-14-14.1-25.1-17.1-15.3-4.1-23.6-3.2-36-3.2H361.2l55.1-57.3L484.1.5h111.7c35.8 0 67.3 9.7 94.6 29 27.3 19.3 40.4 42.2 49.9 65.1 10 24.2 8.9 42 8.9 53.9 0 30.7-10.4 61.8-31.3 93.3s-57.1 72.5-108.7 123.1h111.6L596.3 486H315z"/>
    <path fill="#FF1E00" d="M523.7 305.1s119.8-33.4 208.9-88.9l-2.1 4.3-2.3 4.2-2.3 4.2-2.8 4.8-26.6 26.5-108.7 42.3-60 9.7-4.1-7.1z"/>
    <path fill="url(#f)" d="M723 233.7s-80.1 63.5-264.7 111.8c0 0 146.9-8.6 222.3-55.8 23.5-27.3 30.7-37.9 37.5-48.5 1-1.5 1.9-2.9 2.9-4.5.7-.9 1.4-2.1 2-3z"/>
    <path fill="#fff" d="M260.7 485.9l-29-.5c-65.5 0-120.5-23.3-165-70.1C22.3 368.5 0 312.2 0 246c0-68.7 26.1-127 78.2-175.8C130.3 21.4 192.2.4 263.7.4h171.5L365.9 68l-57.1 58h-50.7c-33.9 0-63.8 10.9-90 34.7-26.1 23.7-39.1 51.9-39.1 86.4 0 31.5 10.5 61.3 31.7 84.7 21.1 23.5 47.3 39.8 78.6 39.8l50.4-44.6h-84.4l69.7-66.8 141-26.9-12 111.8-143.3 140.8z"/>
    <g fill="#fff">
      <path d="M82 622.7l23.8-14.6c2.2 0 3.3 1.1 3.3 3.3v62.1c0 2.1-.5 3.3-1.6 3.7H53.2c-10-2.4-16.8-6.7-20.6-12.7-3-5.5-4.5-9.9-4.5-13.2v-72.8c0-5.4 3-11.5 9-18.5 5.2-3.7 8.9-5.7 11.1-6.2h63.3v1.2l-8.9 21.7c0 2.2 1 1-1.8 1H64.6c-3.6 0-5.8 1.8-6.6 5.3v65c1.4 2.3 2.7 3.8 4.1 4.5h14.4c1.6 0 2.5-.8 2.5-2.5v-25.7"/>
      <path d="M147.8 553.9H191c2.6 0 4.2 4.5 4.9 13.6l21.4 108.1c-.3 1.1-1.1 1.6-2.5 1.6h-25.5c-2.2 0-3.6-3.3-4.1-9.9-1.8-11.8-3.2-18.3-4.1-19.3h-23.4c-1 0-2.8 9.2-5.3 27.5l-1.6 1.6h-28l-1.2-1.2c7.9-40.2 13.8-72 17.7-95.4l5.3-25.1c1-1 2.1-1.5 3.2-1.5zm10.7 71.1l.4.4h15.6l.8-.8-7.8-43.6-.4-.4h-.4c-1.3 0-2.5 4.8-3.8 14.4-2.9 16.5-4.4 26.5-4.4 30zm74.8-71.1h39.9c1.3.9 3.2 8.6 5.8 23l11.9 62.9h2.1c.5 0 4.9-22.5 13.2-67.4 2-12.3 3.5-18.5 4.5-18.5h44l1.2 1.2V669c.2 6-.6 8.8-2.5 8.2h-23c-1.9 0-2.9-2.2-2.9-6.6v-77.3l-1.2-1.6h-1.7c-1.3 0-7.3 28.2-18.1 84.7l-1.2.8h-25.9c-1.3 0-7.3-28.1-18.1-84.3l-1.6-1.5c-1.9.1-2.8.7-2.9 1.9v79.3c.1 3.1-.6 4.6-2.1 4.5h-23.4c-1.1-.4-1.6-1.6-1.6-3.7V557.6c.2-2.5 1.5-3.7 3.6-3.7zm136.8 0h71.1l1.2 1.2v18.5c0 1.9-1 2.9-2.9 2.9h-40.7c-1.6 0-2.5.8-2.5 2.5v21.4l1.2 1.2H432c2.5 0 3.7 1 3.7 2.9v17.7c0 1.6-.8 2.5-2.5 2.5h-34.5c-1.6 0-2.5.8-2.5 2.5v20.6c0 4.7 3.6 7 10.7 7h34.5c1.9 0 2.9 1 2.9 2.9v18.5l-1.2 1.2h-53c-7.8-2.1-13.7-6.2-17.7-12.3-2.7-5.5-4.1-10.9-4.1-16v-90c.2-3.6.7-5.2 1.8-5.2zm88 0H514c7.1 1.7 12.9 5.3 17.3 10.7 3.3 3.7 4.9 10.5 4.9 20.6v9.5c0 9.4-1.6 15.5-4.9 18.5l-1.6 2.1v.8c4.7 4.4 7 10.4 7 18.1v40.7c-.7 1.6-1.8 2.5-3.3 2.5h-23c-2.2 0-3.3-1.2-3.3-3.7v-39.9c-.8-4.7-3.2-7-7-7h-11.5l-1.6 1.6v44.4c0 3-1.1 4.5-3.3 4.5h-23.2c-1.6 0-2.7-1.2-3.3-3.7l-.2-118.4 1.1-1.3zm28.7 25v24.3l1.2 1.2h12.7c3.2 0 5.3-2.5 6.2-7.4v-13.2c-1-4.4-3.7-6.6-8.2-6.6h-10.3l-1.6 1.7zm83.9-25h52.6l1.2 1.2v19.3c0 1.5-.5 2.4-1.6 2.9h-37.4c-4.4 1.3-6.6 3.6-6.6 7v8.6c0 4.5 4.1 7.4 12.3 8.6 2.1 0 10.7 2.1 25.9 6.2 7.4 4.4 11.1 11.8 11.1 22.2v17.3c0 13.5-5.9 22.9-17.7 28l-10.3 2.1h-46.5c-1.5 0-2.7-.8-3.7-2.5v-20.6l2.5-2.1 2.9.4h36.2c4.4-.9 6.6-3.1 6.6-6.6v-10.3c0-3.7-1.8-6.2-5.3-7.4-24.7-5.2-37-8.9-37-11.1-4.7-4-7-10.3-7-18.9v-17.7c0-11.3 5.6-19.6 16.9-25.1l4.9-1.5zm130.3 0c13.4 4.5 20.1 13.7 20.1 27.5v12.7c-1.6 9.3-3 14-4.1 14 0 2.1-10.3 12.2-30.8 30.4L673.9 650v.8l.8.8h44.8l-27.7 25.5h-51.2v-30.8c0-4.9 4.5-10.6 13.6-17.3l17.7-17.3c11.8-10.9 17.7-17.3 17.7-19.3v-4.1c-1-5.2-2.5-8.1-4.5-8.6h-39.6l13.6-25.9H701v.1z"/>
    </g>
    <path fill="url(#g)" d="M723 234s-105.3 82.9-264.6 111.5l35.1-38.3c0-.1 92.5-2.9 229.5-73.2z"/>
  </g>
</svg>
