<?xml version="1.0" encoding="utf-8"?>
<!-- Generator: Adobe Illustrator 20.0.0, SVG Export Plug-In . SVG Version: 6.00 Build 0)  -->
<svg version="1.1" id="Layer_1" xmlns="http://www.w3.org/2000/svg" xmlns:xlink="http://www.w3.org/1999/xlink" x="0px" y="0px"
	 viewBox="0 0 890 1070.3" style="enable-background:new 0 0 890 1070.3;" xml:space="preserve">
<style type="text/css">
	.st0{filter:url(#Adobe_OpacityMaskFilter);}
	.st1{mask:url(#SVGID_1_);fill:url(#SVGID_2_);}
	.st2{fill:#F8F400;}
	.st3{fill:#37C7BA;}
	.st4{fill:#FFFFFF;}
</style>
<defs>
	<filter id="Adobe_OpacityMaskFilter" filterUnits="userSpaceOnUse" x="-23.5" y="95.5" width="956" height="874.9">
		
			<feColorMatrix  type="matrix" values="-1 0 0 0 1  0 -1 0 0 1  0 0 -1 0 1  0 0 0 1 0" color-interpolation-filters="sRGB" result="source"/>
	</filter>
</defs>
<mask maskUnits="userSpaceOnUse" x="-23.5" y="95.5" width="956" height="874.9" id="SVGID_1_">
	<g class="st0">
		<g>
			<path d="M472.6,173.8c0,5.9-1,11.7-3.2,17.1c0.4,0,1.2,0,1.6,0l0-0.2c8.2-0.5,16.5-1,24.7-1.2c3-4.1,6.1-8.1,9.1-12.3l0-0.1
				c-9.8-1.5-19.7-2.4-29.5-3.6l0.2-0.2c-2.5-0.3-5-0.5-7.4,0C469.4,174.5,471.1,173.6,472.6,173.8z"/>
			<path d="M355.6,216.2c5.2,11.7,15.2,20.4,25.9,27.2c6.2,4.2,13.2,7.1,20.6,8.4c18.2,2.9,38.2-1.1,52.4-13.4
				c11.3-10.4,20.2-23,30.3-34.5c-7.4-0.1-14.7,0-22.1,0.2c-6,6.4-12.3,12.9-20.7,16.1c-6.2,3-13.2,2.6-19.9,2.4
				c-10.3-0.7-19.8-5.5-27.7-11.9l-0.8,0c-11.5,1.6-22.8,4.1-34.2,6.1c9.8-4.8,20.2-8.4,30.6-11.7c-6.2-9.2-8.3-20.8-5.2-31.5
				l-1,0.1c-11.1,1-22.1,3.1-33.1,4.8l0,0.5C347.7,191.6,350.5,204.7,355.6,216.2z"/>
			<path d="M292.9,252c-11.8,10.7-26.2,18-41,23.5c-5.5,0.8-10.9,1.9-16.1,3.5c2.6,0.9,5.3,1.5,8.1,2c5,0.9,9.8,2.8,14.7,4
				c12.3,5.4,24.4,12,34.4,21.1c11.3,10.9,18.9,25.1,23.9,39.8c3.9,13.3,4.4,27.2,6.2,40.8c0.9-12.8,2-25.7,4.9-38.2
				c2.7-8.9,6.5-17.5,11.3-25.5c2.8-4.9,6.2-9.4,10-13.5c10.2-10.9,23.6-18.1,37.1-24.2c7-3.2,14.6-4.7,22.1-6.4
				c-13.8-2.2-26.8-7.6-38.7-14.7c-13-7.2-24.1-17.8-31.5-30.8c-3.6-6.4-6.8-13.1-9.1-20.1c-1.6-9.5-3.7-18.9-4.3-28.5
				c-1.7,0.5-3.4,1-5.1,1.4l0,0.1c0.1,0.4,0.4,1.2,0.6,1.6c-0.6,10.1-3.1,19.9-5.5,29.6C309.9,230.3,302.9,242.5,292.9,252z"/>
			<path d="M586.4,193.7c-17.5-4.2-35-8.5-52.7-11.7c-2.2,2.5-4.4,5-6.3,7.7c14.6,0.5,29.2,1.4,43.7,2.8
				C576.1,192.8,581.2,193.8,586.4,193.7z"/>
			<path d="M582.3,279.8c10.4,5.8,21.8,9.8,33.7,11c2.7,0.1,3.9,2.9,5.3,4.8c5.8,8.8,13,16.3,20.6,23.5c2.1,1.9,4.2,3.7,6.4,5.5
				c0.4,0,1.2,0,1.6,0c3.5-7.1,7.6-13.9,12.4-20.2c-13.3-8.9-27.3-16.7-41.5-24.2c16.7,3,32.6,9.1,47.9,16.4
				c6.3-7.6,14.6-13.1,23.4-17.4c-0.7-0.4-1.3-0.8-2-1.2c-8.1-3.8-15-9.5-21.3-15.8c-9.6-7.2-19.2-14.4-29.6-20.5
				c-7.4,6.6-13.7,14.4-19.2,22.6c-1,1.5-2.2,3-4.1,3c-11.7,1.2-23,5.3-33.4,10.7C582.6,278.5,582.4,279.3,582.3,279.8z"/>
			<path d="M173.5,298.5c8.5-7.3,18.4-12.9,29-16.3c4.4-0.7,8.9-1.3,13.2-2.5c-0.7-2.4-3.9-1.9-5.8-2.5c-7.5-1.1-14.4-4.6-21.4-7.3
				l-1-0.3l0.7,0.6c-15.5,17.3-28.7,36.7-39.4,57.4C156.8,317.6,164,307,173.5,298.5z"/>
			<path d="M247.9,250.9c10.1-2.6,18.8-8.8,26.9-15.2c12.4-9.9,19.6-25.3,21-41c-32.2,12.5-61.9,31.1-87.3,54.5
				c5.2,0.8,10.2,2.8,15.5,3.2C232,252.9,240.1,253,247.9,250.9z"/>
			<path d="M448.4,274.1c-6.6,1.6-13.3,2.8-19.6,5c4.3,1.9,9,2.1,13.5,2.7c6.9,2.4,13.7,5.3,19.9,9.3c7,4.6,13.7,10,18.9,16.6
				c11.1,13.4,21.2,27.6,31.6,41.5c0.7,1,1.5,2,2.3,2.9c18.1,24.2,36.5,48.4,58.9,68.8c13,11.9,26.9,23.2,42.8,30.9
				c17.3,8.8,36.7,14.1,56.2,13.6c15.2,0.3,30.2-2.9,44.8-6.9c8.7-2.5,16.8-6.4,24.7-10.8l-0.1-0.5c7.6-4.1,13.8-10.2,19.7-16.4
				c3.6-4.2,7.6-8.4,9.7-13.6c-5.2-9-11-17.7-17.1-26.2l-0.2,0.5c0-1.1-1.1-1.9-1.5-2.8c-0.6,4.9-1.9,9.7-2.9,14.5
				c-3.1,6.5-8.4,11.5-13.7,16.2l-0.4,0.3c-5.6,4.2-12,7.6-19,8.6c-7.5,0.5-15.3,0.7-22.6-1.8c-8.9-3.4-17.6-8-24.4-14.8
				c-9.7-10.3-15.8-23.5-20.1-36.8c-1.8-5.1-2.9-10.4-4.8-15.5c-4.7,6.5-6.7,14.5-6.8,22.4c-0.1,7-0.1,13.9,0.1,20.9
				c0.5,10.8,3,21.4,5.7,31.9c-0.8-0.1-2.4-0.4-3.1-0.5c-15.1-5.8-29.3-15.7-36.8-30.3c-3.1-6.6-5.4-13.7-5.7-21
				c-0.2-8.2-0.3-16.4,1.5-24.4c0.9-6,3.3-11.7,4.1-17.7c-4.7,1.9-8.8,4.7-13.4,6.8c-17.7,8.6-37.1,14.7-56.9,13.9
				c2.8-5.5,7.4-9.6,11.2-14.4c11.2-11.8,23.2-23,36.9-31.9c0.6-0.3,1.9-1,2.5-1.3c0-0.8,0.1-1.6,0.1-2.4
				c-20.5-0.6-40.7-5.1-60.3-10.7c-1.4-0.3-2.9-0.6-4.3-0.9c-15.1-5.1-29.8-11.6-43.8-19.2c-0.6-0.5-1.7-1.4-2.3-1.9
				c20.9-12.5,43.9-21.2,67.5-26.7c13.9-3,28-5.8,42.2-6c0-0.5,0.1-1.5,0.1-2c-15.1-10-28.5-22.3-40.8-35.5
				c-9.1-1.5-18.2-2.5-27.3-3.3c-11.6,14.8-22.3,30.3-34.3,44.8C472.6,260.8,461,268.8,448.4,274.1z"/>
			<path d="M686.3,321.5c-3.1,4.9-6.1,9.9-7.6,15.6c-0.8,3.9-0.7,8-0.5,11.9c0.2,5,2.9,9.3,5.3,13.5c4,6.8,9.5,13.4,17.3,15.9
				c7.2,1.2,15.2,0.8,21-4.2c1.1-1.2,2.2-2.5,3.1-3.8c2-2.8,3.2-6.2,4.4-9.4c-5.4-6.1-11.2-11.8-17.2-17.3
				C704,335.7,695.3,328.4,686.3,321.5z"/>
			<path d="M782.4,391.7l0,0.2c0.3,0.3,0.8,0.8,1,1.1c0.6-3.7,1.4-7.3,2-11c-0.3-1-0.8-1.9-1.2-2.8c-7.1-15-15-29.8-25.7-42.6
				c-10.9-13.3-24.1-24.5-37.4-35.3c-9.6-0.6-19.1,3.5-25.9,10.1C728.5,333,757.4,360.9,782.4,391.7z"/>
			<path d="M66.1,426.1c3.6-3.1,6.9-6.6,10.8-9.2C72.6,419,68.5,421.9,66.1,426.1z"/>
			<path d="M178.8,411.3c-1.6-5.8-4.7-11.2-5.3-17.3c-0.6-7.3-0.6-14.8,0.2-22.1c3.2-10.7,10.1-19.7,18.3-27c5-4,10.7-7.3,17-8.9
				c14.6-2.6,30.8,0.9,41.6,11.4c6.6,6.4,11.3,15.2,11.2,24.6c0.2,5.2,0,10.6-2.4,15.3c-4.1,8.5-12.2,15-21.4,17.2
				c-4.8,0.5-10.2,1-14.5-1.9c-6.6-4-10.8-10.7-16.1-16c-0.5,8.1,1.6,16.3,6,23.2c3.7,5.8,10.2,9.1,16.7,10.8
				c15.1,3.3,32.1-0.1,43.5-10.9c6.3-5.8,12.4-12.1,16.6-19.6c2.4-4.4,4.5-9.1,5.2-14c0.9-8.9,0.5-18-2.4-26.5
				c-3.4-10.3-9.4-19.8-17.9-26.6c-8.9-7.3-18.9-14.2-30.5-16.3c-14.5-2.7-30-0.8-43,6.1c-9.8,4.9-17,13.5-24.1,21.6
				c-3.9,4.5-7.8,9.1-11.4,13.8c-10.8,13.2-21,26.8-31.1,40.4c-5.9,8.2-12.7,15.7-17.7,24.5l-0.3,0.5l-0.8,0.6
				c-4.9,5.2-8.7,11.4-14.2,16.2l0.1,0.5c8.3,2.8,16.3,7.6,20.9,15.3c-1.4,2.9-2.5,5.9-3,9.1c2.9-11.2,10.8-20.4,19.6-27.5
				C150.9,418.8,164.7,413.4,178.8,411.3z"/>
			<path d="M881.3,511.7c-0.7-14-2.1-28-4.1-41.9c-2.2-14.7-5.1-29.2-8.7-43.6c-3.9-15.5-8.7-30.7-14.2-45.6
				c-5.4-14.7-11.8-29-18.7-43c-7.3-14.5-15.3-28.6-24.2-42.2c-8.2-12.5-16.9-24.7-26.4-36.2c-24.5-30.7-53.5-57.6-85.2-80.7l-0.5,0
				c-0.9-0.8-1.8-1.5-2.7-2.2c-32.5-22.8-68.1-41.2-105.6-54.3C501,90,400.3,88.9,309.4,118.6c-48.3,15.7-93.8,39.9-133.7,71.2
				c-29.7,23.3-56.5,50.4-79.1,80.7c-24.5,32.3-44.3,68.2-58.9,106c-8.2,21.7-15,43.9-19.6,66.7c-2.7,12.5-4.9,25.2-6.2,37.9
				c-2,15.1-2.8,30.3-3.2,45.5c-0.3,24.7,1.3,49.4,4.9,73.9l0.1,0c1.8,12.7,4.5,25.3,7.4,37.8l0.2,0c6.6,28.3,16.6,55.9,29,82.2
				c7.2,15.1,15.1,29.9,24,44c11.3,18.3,24,35.7,38,52.1c24.6,29,53,54.8,84.3,76.3l-0.1,0.1c52.3,36,112.4,60.6,175,71.1
				c50,8.4,101.4,8.2,151.3-0.7c43.5-7.8,85.7-22.2,124.9-42.6c38.3-20,73.9-45.7,104.5-76.3l0.2,0c16.2-16.1,31.2-33.3,44.7-51.8
				c10.9-14.7,20.8-30.2,29.8-46.2c12.4-22.4,22.9-45.8,31.2-70c7.3-21,12.9-42.6,16.8-64.4h0.1c3.8-21.5,6.1-43.3,6.7-65.2
				C881.9,535.3,881.9,523.4,881.3,511.7z M709.4,842.4c-38.4,33.2-83.1,58.9-131,75.8c-90.4,31.7-192,30.4-281.4-4.1
				c-26.7-10.2-52.4-23.3-76.4-38.9c-31.8-20.7-60.7-45.9-85.5-74.5c-12.8-14.7-24.5-30.4-35-46.8c-8.8-13.7-16.7-28-23.8-42.6
				C65,687.8,55.9,663.2,49.3,638c-3.3-12.5-6-25.2-8.1-38c-4.1-25.3-5.8-51-5.2-76.6c0.2-12.9,1.2-25.7,2.7-38.5
				c1.5-13,3.7-26,6.5-38.9c5.1-23.1,12.2-45.8,21.2-67.7c16-38.9,38.1-75.3,65.2-107.5c25.9-30.6,56.2-57.4,89.9-79.2
				c21.5-13.9,44.3-25.7,67.9-35.3c78.8-32.2,167.8-38.5,250.5-18.3c40.8,9.9,80.1,26.2,115.9,48.1c36.5,22.3,69.5,50.5,97.3,83
				c10.8,12.7,20.8,26,30,39.9c8.2,12.5,15.7,25.3,22.5,38.6c7,13.7,13.2,27.8,18.6,42.2c4.5,11.9,8.3,23.9,11.7,36.2
				c3.9,14.2,7,28.6,9.3,43.2c2.3,14.1,3.7,28.3,4.5,42.5c0.6,11.8,0.7,23.5,0.4,35.3c-0.7,21.7-3.1,43.4-7.2,64.7
				c-4.1,21.3-10,42.4-17.4,62.8c-8.9,24.5-20.3,48.1-33.8,70.4c-9.7,16-20.5,31.4-32.3,45.9C744.4,809.4,727.6,826.7,709.4,842.4z"
				/>
			<path d="M798.3,564.1l0.6,0.2l-0.3,0.6c0.5,4.7,1.7,9.3,2.3,14c2,13.4,2.1,27,2.2,40.5c-0.8,20.2-2.5,40.4-5.9,60.4
				c4.3-6.8,7.4-14.3,10-21.9c5.3-16.2,8.3-33.1,9.7-50l0.1,0c1-14,1-28.1,0.2-42.1c-1.1-13.3-2.8-26.6-5.4-39.8
				c-2.9-15-6.9-29.8-11.7-44.3c-9.9-3-20.1-9.1-23.1-19.6c-3.8,0.6-7,2.8-10.3,4.4c-6.4,3.1-12.7,6.2-19.2,9
				c-0.7,0.3-1.4,0.6-2,0.9c-15.8,6.8-32.1,13.3-49.4,15.2c-10.2,1.5-20.6,1-30.9,0.9c-18.1-1.3-36.4-4.3-53.2-11.6
				c-17.5-8-33.2-19.4-48-31.6c-6.3-5.5-12.6-10.9-18.4-16.9c-8.7-8.5-15.6-18.5-22.9-28.1c-12.2-16-24-32.2-36.5-48.1
				c-0.7-0.9-1.3-1.8-2-2.6c-5.8-7.2-11.5-14.3-17.6-21.3c-5.5-6.5-11.2-12.9-18.4-17.4c-13.5-8.6-30.4-11.3-46.1-8.7
				c-8.5,1.4-16.3,5.3-23.3,10.2c-11.6,7.5-21.6,18.4-25.7,31.9c-3.5,8.9-3.1,18.5-2.7,27.9c0.5,3.8,1.9,7.3,3.5,10.7
				c4.3,8.6,10.7,16,17.9,22.4c8.7,7.9,20.4,12.6,32.3,12.2c8.2,0.3,16.6-1.7,23.3-6.6c4.2-3.1,6.8-7.9,8.8-12.7
				c2.7-5.2,3.1-11.2,3.4-17c-0.9,0.1-1.8,0.2-2.6,0.4c-0.2,0.7-0.4,1.4-0.6,2c-4,6.9-9.9,13.1-17.3,16.4
				c-13.5,3.6-27.8-5.5-33.2-17.9c-6.6-15.8,1.1-35.2,15.5-43.8c10.6-6.6,23.6-8.7,35.8-6.4c14.7,4.2,26.3,16.3,32.6,29.9
				c1.8,4.1,3.1,8.5,3.1,13c0.1,6.4,0.3,12.8-1.4,19c-1.1,4.5-3.5,8.6-4.2,13.2c17.3,2.8,34.4,10.2,46.4,23.2
				c6.4,6.7,10.9,15.1,14.1,23.8c1.5,4.8,2.9,9.7,3,14.8c0.2,9,0.7,18.2-2.2,26.9c-0.5-0.1-1.5-0.3-2-0.3
				c-10.4-11.4-22.8-20.8-35.7-29.3c-10.6-6.7-22.2-12.6-34.9-13.5c-14.6-2.3-29.4-0.6-44-1.5c-7.4-0.9-14.9-1.3-22.2-3.2
				c-13-3.3-24.9-10-35.4-18.3c-2.9-2.2-5.1-5.1-8.5-6.6c0.2,23.2-5.6,46.5-16.8,66.8c-2.1,2.9-4.1,6-6.1,8.9
				c-2.5-3.2-4.6-6.6-6.9-9.9c-11-20.2-16.2-43.1-16.7-66c-3.9,2.8-7.3,6.3-11.2,9.1c-7.9,5.8-16.6,10.9-26,14
				c-9.4,3.5-19.4,4.2-29.2,5.2c-14.4,0.8-28.9-0.8-43.2,1.4c-14.8,1.2-28.1,8.7-40.1,16.9c-5.5,3.9-11,7.7-16,12.3
				c0.2,0.5,0.5,1.5,0.6,2c2,6.7,2.2,13.6,2.3,20.5c-0.8,5.4-1,11,0.5,16.3c1.7,6.1,5.6,12.3,12.1,14.1c9.2,5,17.3,11.8,24.7,19.2
				c11.3,11.5,21,24.4,30.1,37.7c6.5,9.8,12.7,19.7,18.3,30c2,4.2,3.1,8.8,4.7,13.2c5.3,15.7,10.6,31.4,16,47
				c3.2,9.2,10.2,16.4,18.2,21.6l0.1,0c5.9,3.9,12.6,6.5,19.3,8.6c9.5,3.6,18.6,8.3,27.3,13.6c5.9,3.5,11.3,7.9,17.8,10.3
				c9.9,3.8,21.4,4.6,31.3,0.2c15-6,30.1-11.6,44.7-18.5c5.9-2.6,9-8.7,12.1-14l0.2,0c-0.1-7-0.9-14-2-20.9
				c4.7-6.9,8.7-15.4,5.9-23.8c-4-11.4-15.3-18-25.9-22.3c-0.1-0.5-0.2-1.4-0.2-1.9c-1.1-14.5-0.8-29.6,4.3-43.4
				c2.2-9.6-1.3-19.7-8-26.7c6.5-8.1,12.1-17.1,14.8-27.3l0.1,0c2.3-9.4,1.9-19.6-2-28.6c-4.3-10-11.5-18.7-20.5-24.7
				c0.9,0.1,1.8,0.3,2.7,0.7c15.4,5.4,30.4,12,44.7,19.9c24.1,13.5,46.3,31,63.4,52.8l0.1,0c14.7,19,25.9,40.8,31.3,64.3
				c1.6,7.2,2.9,14.6,2.9,22c-0.6,8.9-0.3,17.9-1.2,26.8c-0.4,7.5-1.9,14.9-2.6,22.3l0.4,0.6l-0.7,0.3
				c-3.8,19.5-10.4,38.5-20.7,55.5l-0.1,0c-17.6,29.3-47,50.3-79.3,60.4c-16.5,5.2-33.8,8.3-51.1,8.2
				c-51.8-5.5-102.2-26.4-141.5-60.8c-15.9-13.8-30.1-29.6-42.5-46.7c-21.4-29.6-37.1-63-47.9-97.8c0.1,4.8,0.3,9.8,1.2,14.5
				c0.1,5.9,1.2,11.7,2,17.5c2.6,16.7,6.2,33.4,11.9,49.3l0.7,0.2l-0.3,0.6c4.8,16.2,12.2,31.7,20.6,46.3l0.7,0.1l-0.2,0.5
				c16.9,29.7,40.9,55.2,68.7,74.9c43.6,30.9,95.7,48.6,148.6,54.4c34.4,4,69.3,1.6,103.1-5.5c35.6-7.5,70-19.8,102.6-35.9
				c18.5-9,36.3-19.3,53.3-30.8c-6.7,12.4-16.6,22.7-27.1,31.9c-14.7,12.7-31,23.4-47.8,33.1c-13,7.4-26.3,14.4-40.3,19.8
				c38-5.5,73.4-22.4,104.6-44.1c12.1-10.3,24.7-20,37.1-29.9c13.5-11.3,25.7-24,36.4-37.9c21.3-27.5,36.9-59.1,47.9-92.1l0.1,0
				c9.9-29.7,16.2-60.5,19.8-91.6c2-19.6,3.6-39.4,2.6-59.1C791.3,542.2,795.4,553.1,798.3,564.1z M223.3,555.7
				c-6.9-5-12.9-11.2-17.8-18.1c-1.3-2.7-2-5.5-2.7-8.4c-2.4-9.8,0.3-19.7-0.2-29.6c1.4,2.1,2.8,4.3,4.3,6.4
				c2.8,4.1,7.1,7.1,9.7,11.4c3.1,4.9,6.3,9.9,7.6,15.6c-0.1,2.7-0.8,5.3-1,8C223.4,545.9,224.7,550.9,223.3,555.7z"/>
		</g>
	</g>
</mask>
<linearGradient id="SVGID_2_" gradientUnits="userSpaceOnUse" x1="454.5049" y1="95.4822" x2="454.5049" y2="970.3644">
	<stop  offset="0" style="stop-color:#B5B200"/>
	<stop  offset="1" style="stop-color:#FEFB00"/>
</linearGradient>
<rect x="-23.5" y="95.5" class="st1" width="956" height="874.9"/>
<g>
	<path class="st2" d="M423.8,64.5c3.9-18.4,7.6-36.8,11.5-55.1c4.5,18.5,9.2,37,13.5,55.6c1.4,6.1-0.9,13.4-6.8,16.3
		c-5,2.4-12.2,2.2-15.7-2.6C423.5,74.6,422.6,69.2,423.8,64.5z"/>
	<path class="st2" d="M498.8,11.4c2.4,19.2,4.3,38.5,6.5,57.7c0.2,5.6-2.1,12.2-7.6,14.5c-5.7,2-12.9,0.1-16.2-5.1
		c-2.6-4-2.8-9.1-1.3-13.5C486.3,47,492.7,29.2,498.8,11.4z"/>
	<path class="st2" d="M368.2,72.1c0.8-18.6,1.1-37.3,2-56c7.5,17.6,15.4,35.1,22.8,52.7c2.4,5.8,1.2,13.3-4.1,17.1
		c-4.6,3.2-11.6,4.1-15.9,0C369.5,82.3,367.8,77.1,368.2,72.1z"/>
	<path class="st2" d="M536,73c9-16.2,17.9-32.4,27-48.5c-1,18.5-2.3,37.1-3.3,55.6c-0.1,5.7-2.8,11.8-8,14.5
		c-6.8,2.9-15.8-1.4-17.8-8.6C532.6,81.6,533.7,76.8,536,73z"/>
	<path class="st2" d="M307.7,30.9c9.8,16.3,19.5,32.7,29.2,49.1c3.2,5.5,3,13.4-2,17.8c-4.1,3.5-10.8,5.3-15.5,1.9
		c-3.9-3-6.3-7.9-6.6-12.8C311.1,68.2,309.3,49.6,307.7,30.9z"/>
	<path class="st2" d="M590.5,90.5c11.1-15.3,22.2-30.5,33.4-45.7c-3.5,18.7-7,37.4-10.5,56c-0.8,4.5-3.5,8.7-7.3,11.2
		c-5.4,3.4-12.5,0.6-16.3-3.9C585.7,103.1,586.7,95.5,590.5,90.5z"/>
	<path class="st2" d="M246.3,50.8c11.1,14.9,22,30,33,45.1c3,3.9,4.6,9.2,3.2,14.1c-1.6,5.7-7.6,9.5-13.4,9.6
		c-6.1-0.3-10.4-6-12-11.5C253.4,88.9,249.9,69.8,246.3,50.8z"/>
	<path class="st2" d="M645.6,112.6c12.4-14.1,24.9-28.1,37.4-42.1c-5.1,17.9-10.3,35.7-15.4,53.6c-1.3,5.5-5.2,10.7-10.7,12.4
		c-7.4,1.6-15.6-4.8-15.7-12.4C641,119.8,642.9,115.7,645.6,112.6z"/>
	<path class="st2" d="M188.6,77.9c12.6,13.6,25,27.3,37.5,41c3.3,3.5,5.6,8.2,5,13.1c-0.7,6.4-6.8,11.4-13.1,11.7
		c-5.8-0.1-10.4-5.1-12.5-10.1C199.9,115.1,194.2,96.5,188.6,77.9z"/>
	<path class="st2" d="M696.5,140.4c13.8-12.6,27.6-25.1,41.5-37.6c-7.4,18-14.8,36.1-22.2,54.1c-2.7,4.9-7.9,9.6-13.8,8.7
		c-6-1.2-11.3-6.5-11.4-12.7C690.3,148.1,692.9,143.6,696.5,140.4z"/>
	<path class="st2" d="M137.2,105.2c13.4,13.1,26.8,26.2,40.1,39.4c3.4,3.2,5.7,7.8,5.3,12.6c-0.4,6.5-6.4,11.9-12.8,12.4
		c-5.7,0-10.4-4.7-12.7-9.6C150.5,141.7,143.9,123.4,137.2,105.2z"/>
	<path class="st2" d="M742.6,170.6c14.6-11.9,29.2-23.7,43.9-35.5c-8.1,17-16.2,34-24.3,51c-1.9,4.3-5.7,7.9-10.2,9.5
		c-5.9,1.9-12-2.5-14.5-7.6C734.5,181.9,737.5,174.5,742.6,170.6z"/>
	<path class="st2" d="M737.5,885.3c2.3-6.2,9.5-10.5,16-8.7c4.5,1.2,8,4.6,10.1,8.7c8.8,16.5,17.4,33,26.1,49.6
		c-15.5-11.4-30.8-23-46.3-34.4C739.2,897,735.9,891,737.5,885.3z"/>
	<path class="st2" d="M167.3,907.2c6.5-4.3,16.2-0.8,19.2,6.2c1.8,5.2-0.5,11.1-4.1,15c-14.1,13.3-28.2,26.5-42.4,39.8
		c6-15.4,12-30.8,18-46.2C160.2,916.5,161.9,910.3,167.3,907.2z"/>
	<path class="st2" d="M693.7,914.8c3.5-5.3,11-8.1,16.9-5.3c4.3,1.9,7.2,6,8.5,10.4c5.8,17.7,11.5,35.5,17.3,53.2
		c-13.3-13.9-26.5-27.9-39.8-41.8C693,926.8,690.8,920,693.7,914.8z"/>
	<path class="st2" d="M208.5,944.9c1-6.2,5.8-12.2,12.4-12.8c5.8-0.4,12.6,2.8,14,8.8c0.9,4.7-0.4,9.8-3.3,13.6
		c-11.5,15.1-22.9,30.3-34.3,45.4C200.9,981.6,204.7,963.2,208.5,944.9z"/>
	<path class="st2" d="M645.1,940.1c4.1-4.5,11.4-6.2,16.8-3.1c4.1,2.3,6.6,6.7,7.5,11.2c3.6,18.5,7.1,36.9,10.6,55.4
		c-11.5-15.7-23.1-31.3-34.6-47C642.5,951.7,641.2,944.7,645.1,940.1z"/>
	<path class="st2" d="M265.4,957.4c5.3-6.1,16.3-5.1,20.7,1.5c2.5,4.6,1.9,10.4-0.5,14.9c-9.6,16.7-19.1,33.3-28.8,50
		c1.2-17.1,2.6-34.2,3.9-51.3C261,967.2,261.5,961.4,265.4,957.4z"/>
	<path class="st2" d="M591.6,963.5c4.8-5.1,13.8-6,18.9-1c3.5,3.1,5,7.9,5.2,12.4c1.7,18.1,3.5,36.3,5.1,54.4
		c-10-16.5-19.8-33-29.7-49.5C588.6,974.8,587.9,968,591.6,963.5z"/>
	<path class="st2" d="M320.7,975.8c4.5-6.2,14.5-6.4,19.8-1.3c3.9,4.3,3.8,10.9,1.8,16c-8,17.5-15.9,35-23.9,52.5
		c-0.3-17.3-0.7-34.7-1-52C317.2,985.8,317.3,980.1,320.7,975.8z"/>
	<path class="st2" d="M537.2,979.3c5.3-5.4,15.5-5.1,20.1,1.2c3.5,4.3,3.4,10.2,3.2,15.4c-0.3,17.1-0.3,34.2-0.9,51.3
		c-8-17.3-15.9-34.6-23.8-51.9C533.6,990.3,533.5,983.6,537.2,979.3z"/>
	<path class="st2" d="M381.9,982c5.2-2.2,12.4-1.4,15.8,3.5c2.5,3.9,2.9,8.9,1.8,13.4c-6,18.4-12.2,36.7-18,55.1
		c-2.6-18.6-4.9-37.3-7.2-56C373.2,991.8,375.8,984.6,381.9,982z"/>
	<path class="st2" d="M436.1,988.9c5.1-2.2,12.3-1.7,15.8,3.2c2.6,4,3.3,9.3,2,14c-4.9,18.3-9.8,36.5-14.7,54.8
		c-3.6-18.7-7-37.3-10.4-56C427.6,998.8,430.2,991.6,436.1,988.9z"/>
	<path class="st2" d="M485,991.1c5.1-3.9,13.4-3.8,17.9,1.1c3.3,3.3,4.5,8.2,4.1,12.8c-1.2,18.7-2.6,37.3-3.9,55.9
		c-7.1-17.9-14.1-35.8-21.2-53.7C480.2,1001.9,480.6,995,485,991.1z"/>
</g>
<g>
	<path class="st3" d="M383.8,173.8l-0.5,0c0.5,0,0.9-0.1,1.4-0.1L383.8,173.8z"/>
	<path class="st3" d="M390,205.2c25.8-7.9,52.6-12.2,79.4-14.3c2.2-5.4,3.2-11.3,3.2-17.1c-1.4-0.2-3.2,0.7-4.3-0.5l-0.3-0.2
		c-27.7-2.4-55.6-2.3-83.3,0.5l0.1,0C381.7,184.4,383.8,196,390,205.2z"/>
	<path class="st3" d="M527.3,189.6c2-2.6,4.1-5.2,6.3-7.7c-9.6-1.7-19.1-3.5-28.8-4.7c-3,4.1-6.1,8.1-9.1,12.3
		C506.3,189.3,516.8,189.3,527.3,189.6z"/>
	<path class="st3" d="M394.3,210.8c7.9,6.4,17.4,11.2,27.7,11.9c6.7,0.2,13.7,0.6,19.9-2.4c8.3-3.2,14.7-9.7,20.7-16.1
		c-23.3,0.8-46.5,3-69.5,6.6l0.4,0L394.3,210.8z"/>
	<path class="st3" d="M541.3,252.2c-23.6,5.6-46.7,14.3-67.5,26.7c0.6,0.5,1.7,1.4,2.3,1.9c14,7.7,28.7,14.1,43.8,19.2
		c1.4,0.3,2.9,0.5,4.3,0.9c19.7,5.6,39.8,10,60.3,10.7c-0.1,0.8-0.1,1.6-0.1,2.4c-0.6,0.3-1.9,1-2.5,1.3
		c-13.7,8.8-25.7,20-36.9,31.9c-3.8,4.7-8.5,8.9-11.2,14.4c19.8,0.8,39.3-5.3,56.9-13.9c4.5-2.1,8.7-4.9,13.4-6.8
		c-0.8,6-3.2,11.7-4.1,17.7c-1.8,8-1.7,16.3-1.5,24.4c0.2,7.3,2.5,14.5,5.7,21c7.6,14.6,21.8,24.5,36.8,30.3
		c0.8,0.1,2.4,0.4,3.1,0.5c-2.6-10.5-5.2-21.1-5.7-31.9c-0.2-7-0.2-13.9-0.1-20.9c0.2-7.9,2.1-16,6.8-22.4c1.9,5.1,3,10.4,4.8,15.5
		c4.3,13.3,10.4,26.5,20.1,36.8c6.8,6.8,15.5,11.4,24.4,14.8c7.2,2.5,15,2.3,22.6,1.8c7-1,13.4-4.5,19-8.6l0.4-0.3
		c5.3-4.7,10.6-9.7,13.7-16.2c1-4.8,2.4-9.6,2.9-14.5c-7.4-9.7-15.1-19.3-23.6-28c-1.2,3.2-2.4,6.6-4.4,9.4c-1,1.3-2,2.6-3.1,3.8
		c-5.8,5-13.8,5.4-21,4.2c-7.8-2.5-13.3-9.1-17.3-15.9c-2.4-4.2-5.1-8.5-5.3-13.5c-0.2-4-0.3-8,0.5-11.9c1.5-5.6,4.5-10.7,7.6-15.6
		c-7.7-6-15.7-11.7-23.9-17.1c-4.8,6.3-8.9,13.1-12.4,20.2c-0.4,0-1.2,0-1.6,0c-2.2-1.8-4.3-3.6-6.4-5.5
		c-7.6-7.2-14.9-14.8-20.6-23.5c-1.5-1.9-2.6-4.7-5.3-4.8c-11.9-1.2-23.3-5.3-33.7-11c0.1-0.5,0.3-1.3,0.4-1.8
		c10.4-5.4,21.6-9.5,33.4-10.7c1.9,0,3.1-1.5,4.1-3c5.5-8.2,11.8-16,19.2-22.6c-29.5-17.5-62.8-27.8-96.5-33
		c12.3,13.2,25.7,25.6,40.8,35.5c0,0.5-0.1,1.5-0.1,2C569.3,246.4,555.2,249.2,541.3,252.2z"/>
	<path class="st3" d="M721.1,301.3c-9.5-7.6-19.2-14.8-28.8-22.2c-8.8,4.3-17.1,9.8-23.4,17.4c9,4.5,17.8,9.4,26.3,14.9
		C702,304.8,711.5,300.8,721.1,301.3z"/>
	<path class="st3" d="M669,262.2c6.3,6.3,13.2,12,21.3,15.8C683.4,272.5,676.1,267.4,669,262.2z"/>
	<path class="st3" d="M76.9,417c-4,2.6-7.2,6.1-10.8,9.2c-0.3,0.7-1,2.1-1.3,2.8c12.1-1.4,24.6-1.5,36.5,1.5l0.7-0.2
		c5.5-4.7,9.3-10.9,14.2-16.2C103.1,412.2,89.3,411.9,76.9,417z"/>
	<path class="st3" d="M785.4,382c-0.6,3.7-1.4,7.3-2,11c6.6,8.4,13.1,16.8,18.5,25.9C796.8,406.5,791.2,394.2,785.4,382z"/>
	<path class="st3" d="M762.1,431c-5.9,6.2-12.1,12.3-19.7,16.4l0.1,0.5c-7.8,4.4-16,8.4-24.7,10.8c-14.6,4-29.6,7.2-44.8,6.9
		c-19.5,0.5-38.8-4.9-56.2-13.6c-15.9-7.8-29.8-19-42.8-30.9c-22.4-20.4-40.8-44.6-58.9-68.8c-0.8-1-1.6-1.9-2.3-2.9
		c-10.4-13.9-20.6-28.1-31.6-41.5c-5.2-6.6-11.9-12-18.9-16.6c-6.2-4-13-6.9-19.9-9.3c-4.6-0.6-9.3-0.8-13.5-2.7
		c6.4-2.2,13.1-3.5,19.6-5c12.6-5.3,24.2-13.3,32.8-23.9c12-14.5,22.7-30,34.3-44.8c-10.2-0.9-20.5-1.3-30.8-1.5
		c-10.1,11.5-19,24.1-30.3,34.5c-14.2,12.3-34.1,16.3-52.4,13.4c-7.4-1.3-14.4-4.3-20.6-8.4c-10.6-6.7-20.6-15.5-25.9-27.2
		c-5.1-11.6-8-24.7-5-37.2c-8.8,1-17.3,3.6-25.8,5.8c0.7,9.6,2.7,19,4.3,28.5c2.4,7,5.5,13.7,9.1,20.1c7.3,13,18.5,23.6,31.5,30.8
		c12,7.1,24.9,12.5,38.7,14.7c-7.5,1.7-15.1,3.2-22.1,6.4c-13.5,6-26.9,13.2-37.1,24.2c-3.8,4.1-7.2,8.6-10,13.5
		c-4.8,8-8.7,16.6-11.3,25.5c-2.9,12.5-4,25.4-4.9,38.2c-1.8-13.6-2.3-27.5-6.2-40.8c-5-14.8-12.6-29-23.9-39.8
		c-10-9.1-22.1-15.6-34.4-21.1c-5-1.1-9.7-3.1-14.7-4c-2.7-0.5-5.5-1.1-8.1-2c5.3-1.6,10.7-2.8,16.1-3.5c14.8-5.5,29.2-12.9,41-23.5
		c10-9.5,17-21.7,22.1-34.4c2.3-9.8,4.9-19.6,5.5-29.6c-0.1-0.4-0.4-1.2-0.6-1.6c-8.1,2.4-16.2,5.2-24,8.3c-1.4,15.6-8.6,31.1-21,41
		c-8.1,6.4-16.8,12.6-26.9,15.2c-7.8,2.1-15.9,2-23.9,1.5c-5.3-0.4-10.3-2.4-15.5-3.2c-6.9,6.7-13.9,13.2-19.9,20.7
		c7,2.7,13.8,6.2,21.4,7.3c1.9,0.7,5.1,0.2,5.8,2.5c-4.3,1.2-8.8,1.8-13.2,2.5c-10.7,3.4-20.6,9-29,16.3c-9.6,8.4-16.7,19.1-24.6,29
		c-14.7,26.7-24.8,55.8-31.7,85.4c5-8.7,11.9-16.3,17.7-24.5c10.1-13.6,20.3-27.2,31.1-40.4c3.7-4.7,7.5-9.3,11.4-13.8
		c7.1-8.1,14.3-16.7,24.1-21.6c13.1-6.9,28.6-8.8,43-6.1c11.6,2.1,21.6,9,30.5,16.3c8.5,6.9,14.5,16.3,17.9,26.6
		c2.9,8.5,3.2,17.6,2.4,26.5c-0.8,5-2.8,9.6-5.2,14c-4.2,7.5-10.4,13.7-16.6,19.6c-11.4,10.8-28.4,14.3-43.5,10.9
		c-6.5-1.7-13-5-16.7-10.8c-4.4-6.8-6.4-15.1-6-23.2c5.3,5.4,9.5,12,16.1,16c4.2,2.9,9.6,2.4,14.5,1.9c9.2-2.1,17.3-8.7,21.4-17.2
		c2.4-4.7,2.6-10.1,2.4-15.3c0.2-9.3-4.6-18.2-11.2-24.6c-10.8-10.5-27.1-14-41.6-11.4c-6.3,1.5-11.9,4.9-17,8.9
		c-8.2,7.4-15.1,16.4-18.3,27c-0.8,7.3-0.8,14.8-0.2,22.1c0.5,6.1,3.6,11.5,5.3,17.3c-14.1,2.1-27.9,7.5-39.2,16.3
		c-8.8,7.1-16.7,16.3-19.6,27.5c-0.5,4.6,0.9,9.3,3.8,12.9c4.2,5.4,7.7,11.5,10,18c5-4.6,10.5-8.4,16-12.3
		c12-8.2,25.3-15.7,40.1-16.9c14.3-2.2,28.8-0.6,43.2-1.4c9.8-1,19.9-1.8,29.2-5.2c9.4-3.2,18-8.2,26-14c3.9-2.8,7.3-6.3,11.2-9.1
		c0.4,22.9,5.6,45.8,16.7,66c2.3,3.3,4.4,6.8,6.9,9.9c2-3,4-6,6.1-8.9c11.3-20.3,17-43.6,16.8-66.8c3.4,1.5,5.6,4.5,8.5,6.6
		c10.5,8.3,22.4,15,35.4,18.3c7.2,1.9,14.8,2.3,22.2,3.2c14.7,1,29.4-0.8,44,1.5c12.7,0.9,24.3,6.8,34.9,13.5
		c12.8,8.5,25.2,17.9,35.7,29.3c0.5,0.1,1.5,0.3,2,0.3c2.9-8.7,2.4-17.9,2.2-26.9c-0.1-5.1-1.5-10-3-14.8c-3.2-8.7-7.7-17-14.1-23.8
		c-12.1-13-29.1-20.4-46.4-23.2c0.7-4.6,3.1-8.7,4.2-13.2c1.7-6.2,1.5-12.7,1.4-19c0-4.5-1.3-8.9-3.1-13
		c-6.3-13.7-17.9-25.7-32.6-29.9c-12.2-2.3-25.2-0.3-35.8,6.4c-14.4,8.6-22.1,28-15.5,43.8c5.4,12.4,19.7,21.5,33.2,17.9
		c7.4-3.2,13.2-9.5,17.3-16.4c0.2-0.7,0.4-1.4,0.6-2c0.9-0.1,1.8-0.2,2.6-0.4c-0.3,5.8-0.7,11.8-3.4,17c-2,4.8-4.5,9.6-8.8,12.7
		c-6.7,4.9-15.1,6.9-23.3,6.6c-11.8,0.4-23.5-4.3-32.3-12.2c-7.1-6.4-13.6-13.8-17.9-22.4c-1.6-3.4-3.1-6.9-3.5-10.7
		c-0.4-9.4-0.8-19,2.7-27.9c4-13.5,14-24.3,25.7-31.9c7-4.9,14.8-8.8,23.3-10.2c15.7-2.7,32.6,0,46.1,8.7c7.2,4.5,13,11,18.4,17.4
		c6.1,6.9,11.8,14.1,17.6,21.3c0.7,0.9,1.3,1.7,2,2.6c12.4,15.8,24.3,32,36.5,48.1c7.3,9.6,14.2,19.7,22.9,28.1
		c5.8,6,12.1,11.5,18.4,16.9c14.8,12.2,30.5,23.6,48,31.6c16.8,7.2,35,10.3,53.2,11.6c10.3,0.1,20.6,0.6,30.9-0.9
		c17.3-1.8,33.6-8.4,49.4-15.2c0.7-0.3,1.3-0.6,2-0.9c6.5-2.8,12.9-5.9,19.2-9c3.4-1.6,6.6-3.8,10.3-4.4c3,10.5,13.2,16.7,23.1,19.6
		c-7.4-22.3-16.5-44-28.3-64.3C769.7,422.6,765.7,426.8,762.1,431z"/>
</g>
<g>
	<path class="st4" d="M202.7,499.6c1.4,2.1,2.8,4.3,4.3,6.4c2.8,4.1,7.1,7.1,9.7,11.4c3.1,4.9,6.3,9.9,7.6,15.6
		c-0.1,2.7-0.8,5.3-0.9,8c0.2,4.9,1.5,9.9,0.1,14.7c-6.9-5-12.9-11.2-17.8-18.1c-1.3-2.7-2-5.5-2.7-8.4
		C200.5,519.5,203.2,509.5,202.7,499.6z"/>
</g>
</svg>
