<?xml version="1.0" encoding="utf-8"?>
<!-- Generator: Adobe Illustrator 20.1.0, SVG Export Plug-In . SVG Version: 6.00 Build 0)  -->
<svg version="1.1" id="Layer_1" xmlns="http://www.w3.org/2000/svg" xmlns:xlink="http://www.w3.org/1999/xlink" x="0px" y="0px"
	 viewBox="0 0 719.9 721.6" style="enable-background:new 0 0 719.9 721.6;" xml:space="preserve">
<style type="text/css">
	.st0{fill:#FFFFFF;}
</style>
<g>
	<path d="M360,719.5c-1.4,0-3.1-2.5-4.4-4.2c-0.6-0.8-1.2-1.6-1.7-2.2c-2.7-4-5.4-8.3-8-12.4c-14.4-22.6-29.3-45.9-54.8-56.6
		c-13.1-4.4-23.2-14-26.9-25.8c-0.8-5.5-0.8-11.4-0.8-17.1c0-11.3,0-23.1-6.2-33.3c-10-15.8-7-35.9-4.4-53.6v-0.2
		c0.8-7.4,2.8-14.7,4.8-21.8c3.1-11.3,6.3-22.9,4.8-35.1l-0.6-4.5l-1.4,4.4c-6.7,21.2-10.6,44.4-13.1,62.3
		c-1.8,17-4.1,38.2,7.1,54.8c4.8,8,4.5,16.9,4.1,26.3c-0.4,9.2-0.8,18.7,4.3,27.2c5.1,10.9,15.5,16.1,25.6,21.1l0.6,0.3
		c-1.6,3.7-2.2,7.7-2.8,11.5c-0.4,2.8-0.8,5.6-1.6,8.3c-7.2-4.9-13.9-11.1-20.3-17.2c-4.1-3.9-8.4-7.9-12.7-11.6
		c-44.5-39.4-89.8-82.6-111.5-139.9c-0.5-1.2-1-2.4-1.5-3.6c-3-7.2-6.1-14.6-2.5-21.8v-0.1v-0.1c4.5-13.8,16.1-20.5,28.4-27.6
		c7.5-4.3,15.3-8.8,21.3-15.1c1.2-1.4,2.6-2.8,4.1-4.2c5.5-5.3,11.7-11.3,8.1-19.8l-0.7-1.6l-1,1.4c-1.1,1.5-2.1,3.2-3,4.9
		c-1.4,2.5-2.8,4.8-4.7,6.7c-1.2,0.1-2.5,0.1-3.7,0.1c-15.1,0-30.4-4.1-44.1-11.9c-11.5-6.3-19.6-16.6-27.5-26.6
		c-4.8-6.2-9.8-12.5-15.6-18l-2.9-2.7c-10.7-9.7-21.7-19.8-34.1-27.6l-0.5-0.3l-0.5,0.3c-4.6,2.8-8.3,6.6-12,10.4
		c-3.5,3.6-7.1,7.3-11.4,9.9c0.4-27.6,7-56.7,20.8-91.2c9.2-21.5,21-46.1,38.8-66c17.7,3.9,33,15.3,41.1,30.6
		c1.1,2.8,2.2,5.9,3.3,8.8c4.2,11.6,8.5,23.7,19.5,31.1c5.2,3.1,14.9,8.8,23.5,8.8c3.3,0,6.3-0.9,8.8-2.5l2.4-1.6l-2.9-0.2
		c-16.4-1.4-36-9.2-41.9-26.9c-3.9-26.2-24.6-48.3-49.5-53.3c16.4-18.3,36.2-35.2,58.7-50.3c4.7-3.1,10.3-4.8,16.2-4.8
		c15.9,0,33.3,12.1,33.9,30.1c0,8.7,5,18.1,14.5,19.5c1.8,0.2,3.7,0.3,5.5,0.3c20.7,0,39.9-11.8,56.8-22.2l1.7-1.1
		c5.1,15.8,11.5,31.8,19.2,47.6l0.2,0.4l0.4,0.1c1.6,0.5,2.8,0.8,3.7,0.8c1.3,0,1.9-0.5,2.1-1c0.6-1.1-0.1-2.4-0.7-3.4
		c-23.7-42.3-34.8-94.9-31.3-148.3c12.8-2.4,24.3-3.7,34.3-3.7h0.7c17,3.4,29.4,17.6,40.4,30.2l0.2,0.3l0.1,0.1
		c1.2,0.8,2.3,1.2,3.4,1.2c3.5,0,5.9-3.8,8.1-7.1c1.3-2,2.5-3.9,3.7-4.7c2.2-1.7,4.4-3.6,6.5-5.4c8.5-7.3,17.3-14.8,28.5-14.8
		c0.7,0,1.4,0,2.1,0.1c1.2,0.1,2.4,0.2,3.6,0.3c8.2,0.6,16.6,1.2,24.6,3c16.5,14.3,26.4,29.5,29.4,45.2c3.6,17.7-9.4,33.7-23.9,41.7
		c-3.3,2.2-6.9,4-10.4,5.7c-8.1,4-16.5,8.1-20.9,16.8c-8.9,14.6-1.9,31.9,4.2,43.6c0.8,1.9,2.8,1.9,3.6,1.9c0.2,0,0.9,0,1.1,0
		c0.2,0,0.5,0,0.7,0l2,0.3l-1-1.8c-5.7-10-13.7-29-3.4-43.4c3.6-5.9,10-8.9,16.1-11.8c2.3-1.1,4.8-2.3,7-3.5
		c15.3-7.8,32.9-24.8,32.3-46.6c-1.5-14.6-9.4-28.9-24.2-43.7c-0.5-0.5-1-1-1.5-1.5c-0.7-0.6-1.4-1.2-1.7-1.9
		c43.3,7,78.2,18.7,106.4,35.6l1.1-1.7c-54.4-40.8-123.7-63.2-194.9-63.2c-48,0-95.5,10.4-137.3,30c-18,7.6-34.7,18.3-50.8,28.7
		l-4.6,2.9c-1.3,0.6-2.1,1.8-2.3,3.3l-0.2,2l1.7-1.1c28.8-17.9,63.6-29.6,109.5-36.7c-1.6,29.4,1.6,61.4,9.6,95.1l-0.4,0.2
		c-15.2,10.4-31,21.1-49.1,25.1c-1.4,0.4-2.7,0.6-4.1,0.6c-5.7,0-12.2-3.2-13-10.2c-0.9-13.7-8.9-30.2-24.7-35.8
		c-6.4-2.5-13.2-3.7-20.4-3.7c-10.6,0-21.7,2.8-32.1,8.1c-16.8,7.1-30.2,13.4-42.2,19.8l-0.2,0.1l-0.1,0.2
		C27.4,247.1,9.2,373.9,52.2,481C93.8,589.1,198,671.7,311.6,686.6c6,8,13.4,18.5,19.2,29.7c-55.2-3.6-110.4-21.5-159.5-51.8
		C122,634.1,80.8,592.4,52.1,544C18.6,488,1.4,426.2,2.3,365.4C-0.4,305.2,14.4,244,44.9,188.3c30-54.8,73.3-100.7,125.2-132.7
		C218.8,25.2,274.3,7,330.8,3c9.9-0.7,19.9-1.1,29.7-1.1c49.2,0,95.1,9,136.3,26.7c58.1,23.3,109.5,62.9,148.8,114.7
		c39.5,52,63.6,112.3,69.8,174.3c7.4,63.9-1.4,126.8-25.5,181.9c-50,121.2-170.7,208.1-300.9,216.9c6-10.3,12.3-20.8,20.1-29.7
		C524.9,671,629.6,586.4,669.7,476.2c40.3-105.1,21.5-230-47.8-318l-0.1-0.2l-0.2-0.1c-5-2.3-10.1-4.9-15.1-7.3
		c-15.3-7.6-31.1-15.5-47.9-19l-0.4-0.1l-0.3,0.2c-3.7,2.1-7.9,3.7-12,5.1c-7.5,2.6-15.2,5.4-20.3,12.1c-5.7,6.8-7.9,15.7-9.1,22.7
		l-0.8,4.8l2.7-4.1c5.3-8.2,12.9-18,24.7-21.4c7.4-2.5,13.6-6.2,18.5-11c22.3,16.6,42,31.9,58.1,50.8c-19,3.8-35.8,17.6-44.1,36.4
		c-2.1,3.6-3.1,7.7-4,11.5c-1,4.1-2,7.9-4,11.4c-7.2,11.9-21.9,19.7-39.2,20.8l-1.8,0.1l1.1,1.5c1.6,2.2,3.9,3.3,7,3.3
		c2.7,0,5.6-0.8,8.4-1.6c2.1-0.6,4.1-1.2,5.8-1.3h0.1h0.1c16.1-6,28.2-21.1,30.9-38.5c7.6-19.6,25.2-34.6,45-38.3
		c15.6,18.2,28.4,40.8,40.1,70.8c12.9,33.3,18.8,60.9,18.5,86.5c-4-2.6-7.5-6.2-11-9.7c-3.8-3.9-7.7-8-12.4-10.6l-0.5-0.3l-0.5,0.4
		c-22.1,15.7-41.3,33.7-56.9,53.5c-13.4,20.5-39.9,33.2-69.2,33.2c-0.6,0-1.2,0-1.7,0c-1.7-2.2-3.1-4.7-4.5-7.1
		c-1-1.8-2-3.7-3.2-5.5l-1.1-1.7l-1.3,2.1c-0.9,2.8-2.2,6.6,0.2,9.5c10.7,17,28.3,27.1,45.4,36.9l0.9,0.5c13.7,8.6,23,27,14,41.7
		l-0.1,0.1v0.1c-23.6,64.3-76.9,111.6-124,153.4c-2.6,2.2-5.1,4.6-7.6,7c-4.6,4.4-9.3,8.9-14.7,12.2c-0.6-5.9-2-11.6-3.4-17.2
		c-0.2-0.8-0.4-1.6-0.6-2.5c16.7-7.4,26.5-17.6,29.2-30.2V619v-0.1c0.5-5,0.5-10.2,0.5-15.3c0-12.4-0.1-25.3,7.9-35.6l0.1-0.1v-0.1
		c8.8-20.3,5-43.5,1.6-63.9c-1.8-9.8-4.2-19.6-6.5-29c-1.5-6-3-12.3-4.3-18.4l-0.2-0.8h-0.8c-0.8,0-1.4,0.4-1.9,0.9
		c-1.3,1.6-0.7,4.7,0,8.3c0.5,2.8,1.1,5.9,0.4,7.1l-0.2,0.3l0.1,0.4c7.1,25.8,15.2,55.1,10.5,84.1c-7.2,14-13.5,29.1-11.4,45.6
		c3.9,17.9-9.3,34.5-24.4,40.3c-26.5,9-41.5,32.1-56.1,54.5c-4.6,7-9.3,14.3-14.3,20.8C361.1,719.1,360.5,719.5,360,719.5z
		 M341.2,619.7c7.8,6.3,14.1,15.2,17.8,25.3l1,2.7l0.9-2.8c3-9.5,9.3-18.6,17.5-25.1c4.6,2.9,6.4,9.7,6.2,15l-0.1,3l1.9-2.3
		c9.6-11.8,19.3-24.5,23.7-39.5c6.8,3.1,11.1,7.1,12.8,11.9l0.7,2l1.1-1.9c8.3-14.2,8.3-32.9,0.2-48.9c0.2-2.7,0.3-5.4,0.5-8
		c0.6-11.1,1.2-22.6,5-33.2c2.2-4.7,5.5-9,8.7-13.2c4.8-6.2,9.7-12.6,11.4-20.9c8.8-33.2-8.1-62.2-24.4-90.3
		c-2.1-3.5-4.2-7.2-6.2-10.8c0.9,0.8,1.6,1.9,2.4,3c0.8,1.1,1.6,2.3,2.6,3.2c6.6,8,13.3,16.1,19.8,23.9c13,15.6,26.4,31.7,39.2,47.9
		l0.1,0.2l0.2,0.1c0.4,0.2,0.8,0.3,1.2,0.3c1.4,0,2.2-1.2,2.7-2.2c0.3-0.4,0.5-0.8,0.7-1l0.1-0.1l0.1-0.1
		c18.8-22.7,28.3-44.2,29.2-65.5v-0.1v-0.1c-1-9.8-0.9-19.8-0.9-29.5c0.1-10.3,0.1-21-1.1-31.5c-2.6-28.7-13.8-53.7-31.5-70.5
		c0.3,0.1,0.6,0.3,0.8,0.4l0.3,0.2c4.5,2.2,9.1,4.2,13.6,6.2c7.5,3.3,15.2,6.8,22.5,10.7l8.3,4.5l-7.2-6.1
		c-34.7-29.6-69.2-49.5-102.5-59.3c-8.1-2.1-15.7-3.2-22.7-3.2c-11.5,0-20.9,3-28,8.8l-0.3,0.2l-0.1,0.3
		c-2.5,11.6-4.4,23.4-6.2,34.9c-1.1,7.1-2.3,14.5-3.6,21.7c-2.5-9.7-4-20-5.4-29.9c-1.3-8.8-2.6-17.8-4.6-26.6l-0.1-0.3l-0.2-0.2
		c-6.6-5.9-15.8-8.9-27.5-8.9c-3.3,0-6.9,0.2-10.5,0.7c-42.9,6.8-79.4,33-116,61.7l-5.4,4.2l6.4-2.5c6.6-2.6,13-5.7,19.3-8.8
		c5.7-2.7,11.5-5.6,17.4-8c-0.8,1-1.6,2-2.4,3c-6.6,8.2-13.5,16.6-17.4,26.6c-11.5,23.4-11.4,49.4-11.3,74.6
		c0,10.4,0.1,21.2-0.7,31.6v0.1v0.1c2.5,26.2,18.7,48.9,31.9,63.3l0.8,0.9l0.7-0.9c19.2-23.6,39.1-47.3,58.4-70.2l6.1-7.3
		c-1.9,3.2-3.8,6.5-5.7,9.7c-13.7,23.2-27.9,47.2-27,75c-0.2,19,10.6,34.4,19.7,44c6.7,12.8,7.4,27.7,8.1,42.1
		c0.1,1.6,0.2,3.2,0.2,4.8c-7.9,13.7-8.3,31.5-1,47.8l0.5,1.1l1-0.8c1.7-1.3,3.4-2.9,4.9-4.5c2.8-2.8,5.6-5.7,9.4-7
		c4.7,16.6,15.8,30.5,23.8,39.5l1.8,2l-0.1-2.7C335,629.5,336.6,622.9,341.2,619.7z M541.8,336.3c-6.6,0-14,0.9-19.5,7.2l-0.1,0.1
		l-0.1,0.2c-0.8,2-0.7,4.1-0.7,6.2c0,1.2,0.1,2.4-0.1,3.5l-0.3,2.2l1.8-1.3c2.1-1.4,4.5-2.1,7.5-2.1c2.7,0,5.5,0.5,8.3,1
		c1.3,0.2,2.7,0.5,4,0.7c1.2,0.2,2.4,0.3,3.6,0.3c12.2,0,22-10.1,25.9-19.5l0.1-0.1v-0.2c0-0.1,0.4-0.7,0.6-1.2
		c1.2-2.4,1.6-3.4,1.1-4.1c-0.2-0.3-0.6-0.5-1-0.5s-0.7,0.2-0.9,0.3l-0.1,0.1l-0.1,0.1c-5,6.4-11.9,7.3-18.6,7.3
		c-1.9,0-3.8-0.1-5.7-0.2C545.7,336.4,543.7,336.3,541.8,336.3z M145.4,329.7c4.6,11.9,14.5,24.6,28.3,24.6c1.1,0,2.2-0.1,3.3-0.2
		h0.1h0.1c3.2-1,6.6-1.5,10.4-1.5c2.6,0,5.4,0.2,8.5,0.7l1.3,0.2l-0.1-1.3c-0.1-0.9,0-2.1,0.1-3.2c0.3-3,0.8-7.1-3.7-8.3
		c-4.6-3.9-10-4.4-14.3-4.4c-2.1,0-4.3,0.1-6.4,0.3c-2,0.1-4.2,0.3-6.2,0.3c-1.7,0-3.1-0.1-4.4-0.3h-0.2H162c-0.5,0.1-1,0.1-1.5,0.1
		c-3.4,0-6-2.2-8.8-4.6c-1.6-1.3-3.2-2.7-5-3.6l-2.4-1.3L145.4,329.7z M68.4,269.2c2.8,2.9,6.4,5,9.8,7c4.4,2.5,8.5,4.9,11.2,8.9
		c2.8,3.7,5.3,7.7,7.7,11.6c5.5,8.9,11.2,18.1,20.6,23.7l1.8,1.1l-0.3-2.1c-0.4-2.5-0.7-5.1-0.9-7.6c-1.1-9.5-2.1-19.2-7.9-27.2
		l-0.1-0.1l-0.1-0.1c-9.4-9.1-22.3-12.3-34.8-15.4c-2.1-0.5-4.1-1-6.1-1.6l-3.5-0.9L68.4,269.2z M649.4,267.9c-0.2,0-0.5,0-0.8,0.1
		c-11.5,2.8-23.6,6.1-34.4,12l-0.1,0.1l-0.1,0.1c-10.8,9.7-12.1,25-12.5,38.6l-0.1,1.8l1.5-0.9c8.9-5.1,14.3-13.7,19.5-22
		c5.7-9.2,11.2-18,21.1-22.5h0.1h0.1c0.2-0.1,0.4-0.3,0.8-0.5c6-3.6,6.9-4.6,6.6-5.7C650.8,268.4,650.4,267.9,649.4,267.9z
		 M516.7,202.1c-5,0.3-21.7,2.1-26.3,15.1c-1.4,3.1-2.2,6.5-2.9,9.8c-1,4.7-2,9.2-4.8,12.9l-0.9,1.1l1.4,0.4c0.8,0.2,1.7,1,2.6,1.6
		c1.4,1.1,2.9,2.2,4.6,2.2c0.9,0,1.7-0.3,2.4-0.9c9-4.1,11.8-13.6,14.3-22c0.7-2.3,1.3-4.4,2.1-6.5c1.2-4.6,4.9-6.9,8.8-9.4
		c1.4-0.9,2.9-1.9,4.2-2.9l2.6-2L516.7,202.1z M402,101.4l-2.6,0.6c-4.5,1.2-9.2,2.2-13.7,3.2c-10.8,2.3-22.1,4.7-31.9,10.6
		l-0.1,0.1l-0.1,0.1c-0.2,0.3-1.2,0.8-2,1.2c-2.1,1.1-4.3,2.3-4.4,4c0,0.9,0.5,1.6,1.6,2.2h0.1h0.1c1.7,0.6,3.5,1.3,5.2,2
		c7.8,3,15.8,6,24.1,6l0,0c4,0,7.7-0.7,11.2-2.2l0.2-0.1l0.1-0.1c4.8-4.2,6.8-10,8.8-15.7c1.3-3.6,2.6-7.3,4.5-10.4l1.2-2L402,101.4
		z M360.2,608.1c-0.7,0-2.1-2-3-3.3c-1.1-1.5-2.1-3-3.2-3.5c-1.4-0.6-2.8-1-4.3-1c-4.3,0-8.4,2.7-12.2,5.7
		c-11.7-14-15.6-31.8-10-46.3c0.9,1.9,1.5,4.2,2.2,6.6c0.9,3.3,1.8,6.7,3.6,9.5c1.1,4.4,6.2,9.7,10.9,9.7c1.6,0,3.1-0.6,4.4-1.8
		c1.2,0.7,2.5,1,3.9,1s2.7-0.3,4-0.6s2.6-0.5,3.8-0.5s2.2,0.2,3.2,0.7c0.6,0.6,1.3,0.8,2.1,0.8c1.1,0,2-0.6,2.9-1
		c0.6-0.4,1.3-0.7,1.8-0.7c0.1,0,0.5,0,1,0.7c0.8,1.2,2,1.9,3.4,1.9c1.6,0,3.3-0.9,4.7-1.6c0.4-0.2,0.7-0.4,1.1-0.5l0.2-0.1l0.1-0.2
		c5.4-7,7.5-15.5,9.5-23.7l0.1-0.6c0.2-0.1,0.4-0.1,0.5-0.1c0.5,0,0.7,0.7,0.7,3c0,0.9,0,1.9,0.2,2.8c3.3,12.6-0.1,27.8-8.9,40.8
		c-3.3-2.6-8.4-5.3-13.1-5.3c-4.2,0-7.2,2.2-8.8,6.2C360.7,607.9,360.3,608.1,360.2,608.1z M357.4,575.5
		c-13.2-3.6-20.4-18.9-20.1-32.3c3.9,2.3,8.2,2.8,12.4,3.4c2.2,0.3,4.4,0.6,6.6,1.1c0.4,1.5,0.6,3.3,0.8,5.1
		c0.4,3.1,0.7,6.3,2.3,8.3l1.5,1.9l0.3-2.4c0.6-4.2,1.2-8.6,2.2-12.9c1-0.2,1.9-0.3,2.9-0.5c5-0.8,10.2-1.7,15-4.1
		c-0.2,8.1-3.1,18.8-9.7,25.8C367.5,573.1,362.7,575.3,357.4,575.5z M589.3,539.4c-0.2-7.5,0.6-15.4,1.3-23.1
		c1.8-17.7,3.6-36-6.1-51.7c-5.7-10.7-16-16.7-25.9-22.6c-8.2-4.8-16-9.4-21.5-16.5c18.3-0.8,49.7-5.7,68.6-28.8
		c13.4-20.3,31.5-37.9,52.4-51.1c0.6-0.3,0.9-0.3,1.1-0.3c0.2,0,0.3,0.1,0.3,0.1c0.6,0.6,0.4,2.8,0.4,4.5c-0.1,2-0.2,3.7,0.4,4.8
		c2.2,76.5-37.2,142.5-70.7,184.6L589.3,539.4z M130.4,539C107.5,511.1,89,479.9,77,448.7c-13.4-34.8-19-69.4-16.7-102.9
		c11.6,4.3,21,13.7,30.1,22.8c2.3,2.3,4.6,4.6,7,6.8c4.7,4.2,8.4,9.4,12,14.5c4.7,6.6,9.5,13.4,16.6,18.1
		c14.9,10.6,33.8,16.5,56.4,17.6c-5.7,7.1-14,12.2-21.9,17c-12,7.3-24.3,14.8-29.1,29.6c-4.6,18.5-2.8,38.5-1.2,56.2
		c-0.4,1.4-0.1,3.3,0.2,5.3C130.6,535.6,130.9,537.9,130.4,539z M320.1,533.4c-0.7-0.4-1.3-1.4-1.9-2.7c-0.3-0.6-0.6-1.2-1-1.7
		l-1.4-2.3c-7-11.8-14.3-24-13.7-37.9V488l-0.7-0.2c-1.4-0.5-2.9-0.8-4.4-1.1c-1.3-0.3-2.5-0.6-3.6-0.9c10.1-0.8,19.4-4.8,28.5-8.7
		c9.9-4.3,20.1-8.7,31.2-8.7c0.4,0,0.8,0,1.2,0h1v-1c0.3-6.5,0.2-13.1-0.3-19.5v-0.4l-0.3-0.3c-5.9-6.1-8.8-14.2-11.1-21.3l-0.3-1.1
		l-1,0.4c-1.3,0.6-1.3,2.5-1.3,4.9c0,1.2,0,3.7-0.4,4h-0.1c-6.4-9.6-16.1-15.8-25.6-21.8c-2.4-1.5-4.9-3.1-7.4-4.7
		c1.1,0.2,2.3,0.5,3.5,0.9c1.4,0.4,2.8,0.8,4.2,1l1.2,0.2l-0.1-1.2c-0.8-14.1,3.4-27.9,7.5-41.1c0.9-2.9,1.8-5.9,2.7-8.8
		c0.6-0.1,1.2-0.1,1.8-0.1c-0.6,5.1-1.3,10.3-1.9,15.3c-1.1,8.3-2.3,16.9-2.9,25.4l-0.1,1.1h1.5c5.8,0,11.7,1.8,17.3,3.6
		c5.7,1.8,11.6,3.7,17.6,3.7c2.8,0,5.4-0.4,7.9-1.2l2.5-0.7c8.2-2.3,16.7-4.6,25.3-5.4l1-0.1l-0.1-1c-1-12.3-2.6-24.5-4.7-38.9
		c0.6-0.3,1.3-0.5,2-0.7l0.6,2c4.5,15.2,9.2,30.8,9.4,46.9v1.1l1.1-0.2c1.4-0.2,2.8-0.6,4.1-1c1.1-0.3,2.1-0.6,3.1-0.8
		c-11.9,7.2-23.9,14.8-32.9,25.7c-0.3-1.4-0.4-2.9-0.5-4.4c-0.1-0.9-0.2-1.9-0.3-2.9l-0.3-2.4l-1.5,1.9c-1.7,2.2-2.5,4.9-3.3,7.5
		c-0.9,2.8-1.7,5.4-3.5,7.5c-6,5.3-5.6,12.6-5.2,19.7c0.1,2.4,0.2,4.6,0.1,6.8l-0.1,1.1h1.1c0.6,0,1.2,0,1.7,0
		c10.6,0,20.4,4.3,29.8,8.4c5.8,2.5,11.8,5.2,18,6.8c2.2,0.8,4.6,0.9,6.9,0.9c2.1,0.1,4.2,0.1,5.9,0.7c-0.5,0.1-1,0.3-1.6,0.4
		c-2.4,0.6-4.9,1.2-7.1,2.4l-0.4,0.3l-0.1,0.5c-1.5,15.1-9.6,28.4-17.3,41.3c-0.6,1.1-1.3,2.1-1.9,3.2c0.1-1.8,0.2-3.6,0.4-5.4
		c1-13.6,2-27.8-2.3-40.7l-0.1-0.3l-0.2-0.2c-1.2-1.1-2.1-1.5-2.9-1.5c-0.5,0-1,0.2-1.3,0.5c-1,1-0.9,3-0.9,5.6c0,2.4,0.1,5.6-1,6.3
		c-1.8-0.4-2.6-2.6-3.6-5c-1.1-2.8-2.3-5.9-5.5-5.9c-0.8,0-1.7,0.2-2.7,0.7c-0.4,0.2-0.7,0.2-1,0.2c-1,0-1.9-0.9-2.9-1.8
		c-1.1-1.1-2.4-2.4-4.2-2.4c-0.9,0-1.9,0.3-2.9,1c-0.4,0.2-0.9,0.3-1.3,0.3c-1,0-2-0.7-3-1.4c-1.2-0.9-2.5-1.8-4.3-1.8
		c-0.8,0-1.6,0.2-2.4,0.6l-0.2,0.1l-0.1,0.1c-1.4,1.5-2.8,2.3-4.3,2.3c-0.4,0-0.9-0.1-1.3-0.2c-1-0.7-1.9-1-2.9-1
		c-1.9,0-3.2,1.3-4.3,2.5c-1,1-1.9,1.9-2.8,1.9c-0.4,0-0.8-0.1-1.2-0.4c-1-0.4-1.8-0.6-2.6-0.6c-3.1,0-4.4,3.2-5.5,6
		c-0.9,2.3-1.8,4.5-3.4,4.9c-0.9-0.8-0.9-3.6-0.9-5.8c0-3.2,0-6.8-2.9-6.8c-0.8,0-1.7,0.3-2.9,1.1l-0.4,0.2l-0.1,0.4
		C318.1,504.2,317.6,519.6,320.1,533.4z M293.3,476.4c-0.6,0-1.2,0-1.8,0c-5.8-1.2-12.5-3.2-15.8-7.4c5.4,3.1,11.1,5.9,17.6,5.9
		c1.4,0,2.8-0.1,4.2-0.4c12.6-1.9,25.5-7.9,40.7-18.8c0.3-0.1,0.6-0.2,0.9-0.2c1,0,1.7,0.9,1.9,1.8c0.2,1-0.1,2.2-1.4,2.8h-0.1h-0.1
		C323.1,471,307.6,476.4,293.3,476.4L293.3,476.4z M419.9,476.4c-12.5,0-25.8-6-37.1-11.8c-3.2-1.3-8-4.4-8.2-6.7
		c0-0.3-0.1-1.1,1.2-2.1c4.6,1.1,8.7,4,13.1,7c4.2,2.9,8.5,5.9,13.4,7.3c7.3,3,14.2,4.6,20.5,4.6c6,0,11.3-1.4,15.9-4.3
		c-0.4,0.4-0.8,0.8-1.2,1.1C432.3,474.7,426.4,476.4,419.9,476.4z M293,462c-5.1,0-9.6-1.4-13.4-4c0.5,0.2,0.9,0.4,1.4,0.6
		c3.2,1.4,6.5,2.8,10,2.8c1.9,0,3.7-0.4,5.4-1.3c5.6-1.5,10-5.1,14.2-8.5c1.3-1.1,2.6-2.1,4-3.1c0.2,0,0.4,0,0.7,0
		c1.3,0,2.4,0.5,2.9,1.3c0.3,0.5,0.3,1.2,0,1.9C311.3,458,301.6,462,293,462L293,462z M422.9,462c-8.4,0-18.1-3.8-24.7-9.6
		c-0.6-0.6-0.8-1.3-0.7-2s0.6-1.3,1.3-1.7c3.7,0.3,6.8,2.8,10,5.5c3.3,2.8,6.8,5.6,11.2,6.3c1.6,0.6,3.3,0.9,5,0.9
		c3.6,0,6.9-1.3,10.1-2.9C431.2,461.3,426.6,462,422.9,462z M289.4,446.2c-0.5,0-1.1,0-1.6,0c-4-1.2-7.9-2.7-9.1-5.3
		c3.2,2.3,6.7,3.4,10.7,3.4c8.5,0,18.3-5.1,30-15.6c0.4-0.2,0.8-0.4,1.1-0.4c1,0,1.8,0.8,2,1.7c0.2,0.8-0.2,1.5-1.2,2l-0.1,0.1
		l-0.1,0.1C313.5,438.5,302,446.2,289.4,446.2L289.4,446.2z M425.2,446.2c-7.4,0-15.5-3.5-20.2-6.6c-0.9-0.8-2.4-1.7-4-2.7
		c-3-1.8-6.8-4-7.3-6.4c-0.1-0.7,0-1.4,0.5-2.1c0.3-0.1,0.6-0.1,0.9-0.1c2.2,0,4,1.8,5.8,3.6c0.5,0.5,1,1,1.5,1.5
		c7.3,6.7,16.4,10.7,24.2,10.7c3.5,0,6.7-0.8,9.6-2.3C433.7,444.7,430,446.2,425.2,446.2z M467.4,377.2c0.4-13.3,0.8-31.6-13.3-39
		H454h-0.1c-0.4-0.1-0.9-0.3-1.4-0.5c-1.8-0.7-3.8-1.4-5.7-1.4c-1.4,0-2.6,0.4-3.4,1.3h-0.1l-0.1,0.1c-1.7,3.2-4.7,5.1-8,7.2
		c-1.4,0.9-2.9,1.9-4.3,2.9l-0.6,0.4l0.2,0.7c0.2,0.5,0.4,1,0.6,1.5c0.6,1.5,1.1,3,1.2,4.6c-8.7-4.2-16.2-6.3-22.9-6.3
		c-6.2,0-11.6,1.9-16,5.5c-2.4,1.2-4,3.4-5.4,5.5c-1.1,1.6-2.2,3.2-3.6,4.1c1.2-7.2,6.2-13.1,10.6-17.5l1.3-1.3l-1.8-0.4
		c-3.4-0.7-6.9-1.1-10.3-1.1c-2.4,0-4.8,0.2-7.2,0.5c3.4-5.3,11.2-7.3,17.3-7.3c1,0,1.9,0,2.8,0.1l0.5,0.1l0.3-0.4
		c9.5-11.3,19.2-21.8,32.6-25.1c2.1-0.7,4.3-1.1,6.5-1.1c6.2,0,12.5,2.7,16.6,4.7l0.9,0.4l0.5-0.8c4.5-8.2,0.8-16.6-2.4-24
		c-0.2-0.5-0.5-1.1-0.7-1.6c9.3,3.9,15.7,14,15.3,24.3v0.1v0.1c0.3,1.9-0.2,4-0.8,6.2c-0.9,3.5-1.7,7.1,0.8,10.4
		c7.4,14.2,7.5,32.6,0.1,49.2C467.4,378.6,467.4,377.9,467.4,377.2z M415.8,329.6c-4.6,0.8-7.9,5.1-10.1,8.2l-0.5,0.7l0.5,0.6
		c3.9,4.3,9.4,6.7,15.7,6.7c9.6,0,18-5.5,21-13.6c1.3-2.8,1.1-5.9-0.5-8.6c-2-3.2-5.6-5.2-9.2-5.2c-1.2,0-2.3,0.2-3.4,0.7l-0.1,0.1
		l-0.1,0.1c-0.6,0.5-1.6,1-2.6,1.6c-2.2,1.1-4.5,2.3-4.9,4.3c-0.2,1,0.1,2,0.8,3.1c0.6,2.6,3.5,2.6,4.7,2.6c0.3,0,1.2,0,1.4,0
		c0.4,0,0.7,0,0.9,0c-0.1,0.2-0.2,0.4-0.4,0.8l-0.1,0.1v0.2c-0.8,2.9-3.4,3.9-5.6,3.9c-2.9,0-5.9-1.7-6.2-5.1l-0.1-1.1L415.8,329.6z
		 M255.1,379c-1.2-0.9-1.8-2.9-2.4-5.6c-0.4-1.6-0.8-3.1-1.4-4.3c-3.7-12.8-1.8-27.7,5.7-43.2l0.2-0.4l-0.1-0.4
		c-5.3-14.1,0.8-30.1,13.7-36.5l0,0c-4.1,7.9-7.7,17.7-3.2,26.3l0.5,0.9l0.9-0.5c5.4-3.1,11.1-4.7,16.5-4.7c3.9,0,7.5,0.8,10.8,2.5
		h0.1h0.1c10.7,3.7,18.3,12.3,25.7,20.6c0.9,1,1.8,2,2.7,3l0.3,0.4h0.5c0.9-0.1,1.7-0.1,2.6-0.1c6.3,0,14.3,2,17.6,7.6
		c-1.5,0-3.1-0.2-4.8-0.4c-2.1-0.2-4.3-0.5-6.3-0.5c-3.3,0-5.6,0.7-7,2.2l-0.8,0.8l0.9,0.7c5.1,3.8,8.8,9.8,10.2,16.3
		c-1.9-1.3-3.5-3.2-5.2-5.1c-3.1-3.4-6.3-7-11.1-8.1c-3-1.1-6.3-1.7-9.7-1.7c-6.4,0-13.2,1.9-20.9,5.9c1.3-5.6-2.6-8.5-6.5-11.3
		c-2.3-1.7-4.7-3.5-6-5.9l-0.2-0.4l-0.4-0.1c-1-0.2-2-0.3-3.1-0.3c-9,0-16.3,8.6-18.6,16.7C254.5,362.9,254.1,371.3,255.1,379z
		 M282.8,336.9c4,5.5,10.7,8.8,17.9,8.8l0,0c4.3,0,8.5-1.1,12-3.3c3.4-1.2,3.6-3.5,3.4-4.8c-0.6-3.7-5.8-7.5-9.1-7.5
		c-0.5,0-0.9,0.1-1.3,0.2l-0.5,0.2l-0.1,0.5c-0.9,3.2-3.7,4.4-6,4.4c-1.7,0-3.3-0.6-4.4-1.7c-0.8-0.8-1.3-1.8-1.4-3
		c2.6,0,5.8-0.2,7.1-2.2c0.8-1.3,0.6-2.9-0.5-5l-0.1-0.3l-0.2-0.1c-0.6-0.4-1.2-0.8-1.9-1.1c-2.8-1.8-5.7-3.6-9.1-3.6
		c-1.1,0-2.2,0.2-3.3,0.6c-3.2,1.5-5.4,4.2-6,7.6C278.7,330.2,280,334.1,282.8,336.9z M339,320.4c-1.7,0-3.4-0.9-4.9-2.6
		c-20.1-18.6-42.8-39.6-71.7-43.4c0.2-0.2,0.6-0.3,1.2-0.5c31.6,3.4,59.1,22.8,77,37.2l0.7,0.6l0.6-0.6c3.4-3.4,3.7-8,4-12.5
		c0.1-1.4,0.2-2.7,0.4-4c0.5,0.1,0.6,0.3,0.7,0.4c0.8,0.9,0.5,3.1,0.3,5s-0.4,3.7,0.1,5c1.2,3.2,0.2,7.9-2.2,11.5
		C343.4,318.9,341.2,320.4,339,320.4z M382.2,320.2c-2.3,0-4.4-1.2-5.7-3.4c-2.5-7-2.1-14.7-1.3-21.6c0.9,1,1,3,1.1,5.8
		c0.1,2.9,0.1,6.1,1.9,8.3c0.8,1.4,1.9,1.7,2.6,1.7c1.8,0,3.4-1.7,5-3.4c0.8-0.8,1.6-1.7,2.2-2h0.1h0.1c18-13.2,42.2-28.8,69.6-31.7
		h0.2l0.2-0.1c0.2-0.1,0.3-0.1,0.4-0.1c0.4,0,0.9,0.8,0.9,1.6c0,0.7-0.2,1-0.7,1c-0.4,0-1.2-0.2-2.6-1.2l-0.4-0.3l-0.4,0.1
		c-27.3,5.5-48.7,25.4-67.6,42.9C386,319.3,384.1,320.2,382.2,320.2z"/>
	<path class="st0" d="M360.5,2.9c49.1,0,94.8,9,135.9,26.6l0,0l0,0c29,11.6,56.5,27.5,81.9,47.1c24.9,19.3,47.2,41.9,66.5,67.2
		c39.4,51.9,63.4,112,69.6,173.8c7.4,63.7-1.4,126.4-25.5,181.4c-12.2,29.8-29,57.9-49.8,83.7c-20.3,25.2-44.2,47.7-70.8,66.9
		c-26.7,19.2-55.6,34.5-86,45.7c-29.9,11-60.6,17.7-91.5,19.9c5.7-9.6,11.6-19.3,18.8-27.6c116-15.9,220.8-100.7,261-211.1
		c40.4-105.5,21.6-230.7-48-319l-0.3-0.4l-0.4-0.2c-5-2.3-10.1-4.9-15-7.3c-15.3-7.6-31.2-15.5-48.2-19.1l-0.8-0.2l-0.7,0.4
		c-3.6,2.1-7.6,3.5-11.9,5c-7.6,2.7-15.5,5.5-20.8,12.4c-5.9,7-8.1,16-9.3,23.1l-1.7,9.6l5.3-8.2c5.2-8,12.7-17.7,24.2-21l0,0l0,0
		c7.2-2.4,13.3-6,18.2-10.6c21.4,15.9,40.5,30.8,56.2,48.9c-18.7,4.3-35,18.1-43.1,36.6c-2.1,3.7-3.1,7.8-4.1,11.7
		c-1,4-1.9,7.7-3.9,11.1c-7.1,11.6-21.4,19.2-38.4,20.3l-3.6,0.2l2.1,2.9c1.8,2.5,4.4,3.7,7.8,3.7c2.8,0,5.8-0.8,8.7-1.7
		c2.1-0.6,4-1.1,5.6-1.3h0.3l0.3-0.1c16.4-6.1,28.7-21.4,31.5-39.1c7.4-19.1,24.4-33.7,43.6-37.5c15.4,18.1,27.9,40.4,39.6,70
		c12.5,32.4,18.4,59.3,18.4,84.2c-3.3-2.4-6.3-5.5-9.2-8.5c-3.9-4-7.8-8.1-12.6-10.8l-1.1-0.6l-1,0.7
		c-22.3,15.9-41.5,33.9-57.2,53.9l-0.1,0.1v0.1c-6.8,10.5-17.1,19-29.8,24.7c-11.6,5.2-24.9,8-38.5,8c-0.4,0-0.8,0-1.3,0
		c-1.5-2-2.8-4.2-4.1-6.6c-1-1.8-2.1-3.7-3.3-5.5l-2.3-3.4l-1.3,3.9l-0.2,0.5c-1,3-2.4,7.1,0.3,10.4c10.8,17.2,28.5,27.3,45.7,37.2
		l0.8,0.5c13.3,8.4,22.4,26.2,13.6,40.4l-0.1,0.2l-0.1,0.2c-23.5,64.1-76.7,111.3-123.7,153c-2.6,2.3-5.2,4.7-7.7,7
		c-4.1,4-8.4,8-13.2,11.2c-0.7-5.4-2-10.6-3.2-15.7c-0.1-0.6-0.3-1.1-0.4-1.7c16.5-7.5,26.3-17.8,29-30.6v-0.1v-0.1
		c0.5-5,0.5-10.3,0.5-15.4c0-12.8-0.1-24.9,7.6-35l0.2-0.2l0.1-0.2c9-20.5,5.1-43.9,1.7-64.5c-1.8-9.8-4.2-19.6-6.5-29.1
		c-1.5-6-3-12.2-4.3-18.4l-0.4-1.6l-1.7,0.1c-1.1,0-2,0.5-2.6,1.3c-1.5,1.9-0.9,5.2-0.2,9.1c0.4,2.2,1,5.5,0.5,6.5l-0.4,0.7l0.2,0.8
		c7.1,25.7,15.2,54.8,10.5,83.5c-7.2,14.1-13.6,29.4-11.4,46.1v0.1v0.1c3.8,17.3-9.1,33.4-23.7,39.1c-26.8,9.2-42,32.4-56.7,54.9
		c-4.6,7-9.3,14.3-14.3,20.8l0,0l0,0c-0.5,0.8-0.9,0.9-1,0.9c-0.9,0-2.8-2.7-3.6-3.8c-0.6-0.8-1.2-1.6-1.7-2.3
		c-2.7-4-5.4-8.2-8-12.3c-14.5-22.7-29.5-46.2-55.3-56.9h-0.1h-0.1c-12.7-4.2-22.5-13.6-26.2-25c-0.8-5.4-0.8-11.2-0.8-16.9
		c0-11.5,0-23.4-6.4-33.9c-9.8-15.5-6.8-35.4-4.3-52.9v-0.2l0,0l0,0c0.8-7.3,2.8-14.6,4.7-21.6c3.1-11.4,6.3-23.1,4.8-35.5l-1.1-9.1
		l-2.8,8.7c-6.8,21.3-10.6,44.6-13.2,62.4l0,0l0,0c-1.8,17.1-4.1,38.4,7.3,55.4c4.7,7.8,4.3,16.5,4,25.7c-0.4,9.3-0.8,19,4.4,27.7
		c5.2,11.1,16.1,16.6,25.8,21.5c-1.4,3.6-1.9,7.3-2.5,10.9c-0.3,2.4-0.7,4.6-1.2,6.8c-6.7-4.7-12.9-10.6-19-16.3
		c-4.1-3.9-8.4-7.9-12.8-11.6c-44.4-39.3-89.6-82.4-111.2-139.5c-0.5-1.2-1-2.4-1.5-3.6c-2.9-7-6-14.2-2.6-21l0.1-0.1v-0.1
		c4.4-13.5,15.9-20.1,28-27.1c7.6-4.4,15.4-8.9,21.5-15.3l0,0l0,0c1.2-1.3,2.5-2.7,4-4.1c5.4-5.2,12.2-11.8,8.4-20.9l-1.4-3.2
		l-2.1,2.8c-1.2,1.6-2.2,3.3-3.1,5c-1.3,2.3-2.6,4.5-4.2,6.3c-1.1,0-2.2,0.1-3.2,0.1c-15,0-30-4.1-43.6-11.8
		c-11.3-6.2-19-16-27.2-26.3c-4.9-6.2-9.9-12.6-15.7-18.1c-1-0.9-1.9-1.8-2.9-2.6c-10.7-9.8-21.7-19.8-34.2-27.7l-1-0.7l-1.1,0.6
		c-4.7,2.8-8.5,6.7-12.2,10.5c-3.2,3.2-6.2,6.3-9.6,8.7c0.6-26.9,7.2-55.3,20.6-88.9c9.1-21.3,20.7-45.6,38.2-65.3
		c17.1,3.9,31.9,15,39.8,29.9c1.2,2.9,2.2,5.9,3.3,8.8c4.2,11.8,8.6,24,19.8,31.6h0.1h0.1c7.8,4.7,16.2,9,24,9
		c3.5,0,6.7-0.9,9.4-2.7l4.8-3.2l-5.7-0.5c-16.1-1.3-35.3-8.9-41-26.2c-3.9-26-24.1-48-48.6-53.6c16.1-17.8,35.4-34.2,57.3-48.8
		c4.5-3,9.9-4.6,15.7-4.6c15.4,0,32.3,11.7,32.9,29.1c0,9.1,5.3,19.1,15.4,20.5l0,0l0,0c1.8,0.2,3.7,0.3,5.5,0.3
		c21,0,40.3-11.9,57.3-22.3c0.2-0.1,0.4-0.3,0.6-0.4c5,15.4,11.4,31.1,18.9,46.5l0.4,0.8l0.8,0.3c1.7,0.5,3,0.8,4,0.8
		c1.9,0,2.7-0.9,3-1.5c0.8-1.5,0-3.2-0.7-4.3c-23.5-41.9-34.6-94.1-31.2-147c12.4-2.3,23.6-3.5,33.3-3.5c0.2,0,0.4,0,0.6,0
		c16.6,3.4,28.9,17.4,39.8,29.9l0.2,0.2l0.2,0.2l0.2,0.1c1.3,0.9,2.7,1.3,4,1.3c4.1,0,6.6-4,8.9-7.6c1.2-1.8,2.4-3.7,3.4-4.4l0,0
		l0,0c2.2-1.7,4.3-3.6,6.5-5.4c8.4-7.1,17-14.5,27.9-14.5c0.7,0,1.4,0,2.1,0.1c1.2,0.1,2.4,0.2,3.6,0.3c8,0.6,16.3,1.2,24.2,3
		c16.2,14.1,26,29.1,28.9,44.5c3.3,17.1-9.5,32.7-23.6,40.5h-0.1h-0.1c-3.1,2.1-6.6,3.8-10.3,5.6c-8.2,4-16.8,8.2-21.3,17.1
		c-9.2,15.1-2,32.6,4.2,44.5c1.1,2.5,3.7,2.5,4.5,2.5c0.2,0,0.4,0,0.6,0c0.2,0,0.3,0,0.5,0c0.3,0,0.4,0,0.6,0l4,0.5l-2-3.5
		c-5.6-9.8-13.4-28.4-3.5-42.3v-0.1v-0.1c3.4-5.6,9.3-8.4,15.6-11.4c2.4-1.1,4.8-2.3,7-3.6c15.6-8,33.5-25.2,32.8-47.5v-0.1v-0.1
		c-1.5-14.7-9.5-29.2-24.5-44.2c-0.4-0.5-0.8-0.9-1.2-1.2c41.9,7.1,75.6,18.5,103.1,35l2.2-3.3C498.8,51.5,429.4,29,357.9,29
		c-48.1,0-95.7,10.4-137.7,30.1c-18.1,7.6-34.8,18.4-51,28.8c-1.5,1-3,1.9-4.5,2.9c-1.6,0.8-2.6,2.2-2.8,4l-0.4,4l3.4-2.1
		c28.4-17.7,62.8-29.2,108-36.4c-1.5,29,1.7,60.4,9.6,93.4c-15.1,10.3-30.7,20.8-48.5,24.8l0,0l0,0c-1.2,0.3-2.5,0.5-3.8,0.5
		c-5.2,0-11.2-2.9-12.1-9.2c-0.9-14.1-9.1-30.9-25.3-36.7c-6.5-2.5-13.5-3.8-20.8-3.8c-10.8,0-22,2.8-32.5,8.1
		c-16.8,7.1-30.3,13.4-42.3,19.8l-0.4,0.2l-0.3,0.3C25.1,247,6.8,374.2,49.9,481.7C93,589.6,197.3,672.4,311,687.6
		c5.6,7.6,12.5,17.3,18,27.7c-54.5-3.8-108.8-21.6-157.3-51.5c-49.1-30.4-90.3-71.9-118.9-120.1c-16.2-27.1-28.7-55.9-37.1-85.7
		C7,427.2,2.8,396.2,3.2,365.6v-0.1v-0.1c-2.7-59.9,12-121,42.5-176.6c30-54.7,73.1-100.5,124.8-132.4C219.1,26.1,274.5,8,330.8,4
		C340.7,3.3,350.7,2.9,360.5,2.9L360.5,2.9 M352.9,115.2c-0.2,0.2-1.1,0.7-1.7,1c-2.4,1.3-4.9,2.6-4.9,4.9c0,0.9,0.3,2.1,2.1,3.1
		l0.1,0.1l0.2,0.1c1.7,0.6,3.5,1.3,5.2,1.9c7.9,3,16,6.1,24.4,6.1c4.1,0,7.9-0.7,11.6-2.2l0.3-0.1l0.2-0.2c5-4.4,7.1-10.3,9.1-16.1
		c1.3-3.7,2.5-7.2,4.4-10.3l2.5-4l-4.6,1c-0.4,0.1-1,0.2-1.6,0.4l-1,0.2h-0.1H399c-4.4,1.2-9.1,2.2-13.6,3.2
		c-10.9,2.3-22.2,4.7-32.2,10.7L352.9,115.2L352.9,115.2 M516.6,201.1c-5.2,0.3-22.3,2.2-27.2,15.6c-1.5,3.2-2.2,6.7-2.9,10
		c-1,4.6-1.9,9-4.7,12.5l-1.8,2.3l2.8,0.8c0.6,0.2,1.5,0.8,2.3,1.5c1.5,1.1,3.2,2.4,5.2,2.4c1.1,0,2.1-0.4,3-1.1
		c9.3-4.4,12.2-14,14.8-22.6c0.7-2.3,1.3-4.4,2.1-6.4V216v-0.1c1.1-4.1,4.6-6.4,8.3-8.8c1.4-0.9,2.9-1.9,4.3-3l5.1-4.1l-6.5,0.5
		L516.6,201.1 M359.7,275.3c-1.9-8.3-3.1-16.8-4.3-25.1c-1.3-8.8-2.6-17.9-4.6-26.6l-0.1-0.6l-0.5-0.4c-6.8-6.1-16.2-9.1-28.1-9.1
		c-3.4,0-6.9,0.2-10.6,0.7l0,0l0,0c-43.1,6.8-79.7,33.1-116.5,61.9l-10.8,8.5l12.8-5c6.6-2.6,13.1-5.7,19.4-8.8
		c4.5-2.2,9.1-4.4,13.7-6.4c-6.6,8.2-13.5,16.6-17.4,26.6c-11.6,23.7-11.5,49.8-11.4,75.1c0,10.4,0.1,21.2-0.7,31.5v0.2v0.2
		c2.5,26.5,18.9,49.4,32.2,63.9l1.6,1.7l1.5-1.8c18.7-23,38.1-46.1,56.9-68.4c-13.7,23.2-27.7,47.2-26.9,75
		c-0.2,19.3,10.7,34.9,19.9,44.6c6.5,12.6,7.2,27.3,7.9,41.6c0.1,1.5,0.1,3,0.2,4.5c-7.9,13.9-8.3,32-0.9,48.5l1,2.3l2-1.5
		c1.8-1.4,3.4-3,5-4.6c2.5-2.6,5-5,8-6.3c4.9,16.3,15.8,29.9,23.7,38.9l3.6,4.1l-0.1-5.5c-0.1-4.7,1.2-10.5,5.1-13.7
		c7.3,6.2,13.3,14.7,16.8,24.3l2,5.5l1.8-5.6c2.9-9.1,8.9-17.8,16.6-24.2c3.8,2.9,5.3,8.9,5.1,13.7l-0.3,6l3.8-4.7
		c9.4-11.5,19-24,23.5-38.7c5.9,2.9,9.7,6.5,11.2,10.8l1.4,4.1l2.2-3.7c8.4-14.4,8.5-33.4,0.4-49.6c0.2-2.6,0.3-5.2,0.5-7.7
		c0.6-11,1.2-22.4,4.9-32.8c2.2-4.7,5.3-8.7,8.6-13c4.8-6.3,9.8-12.8,11.6-21.2c8.9-33.6-8.1-62.8-24.5-91
		c5.7,6.9,11.4,13.8,17,20.5c13,15.6,26.4,31.7,39.2,47.9l0.3,0.4l0.4,0.2c0.5,0.3,1.1,0.4,1.6,0.4c2,0,3-1.7,3.6-2.7
		c0.2-0.3,0.4-0.7,0.5-0.8l0.1-0.1l0.1-0.1c18.9-22.9,28.6-44.5,29.4-66.1V393v-0.1c-1-9.7-0.9-19.7-0.9-29.4
		c0.1-10.4,0.2-21.1-1.1-31.6c-2.5-26.8-12.3-50.4-27.9-67.2c3.3,1.5,6.6,3,9.8,4.4c7.4,3.3,15.1,6.8,22.4,10.7l16.6,9l-14.4-12.3
		c-34.8-29.7-69.4-49.7-102.8-59.5l0,0l0,0c-8.2-2.2-15.9-3.3-22.9-3.3c-11.7,0-21.3,3-28.7,9l-0.5,0.4l-0.1,0.7
		c-2.5,11.6-4.4,23.5-6.2,35C361.6,263.9,360.7,269.6,359.7,275.3 M120.9,323.4l-0.6-4.2c-0.4-2.5-0.7-5-0.9-7.5
		c-1.1-9.6-2.2-19.5-8.1-27.7l-0.1-0.1l-0.1-0.1c-9.6-9.3-22.6-12.5-35.2-15.6c-2-0.5-4.1-1-6.1-1.5l-6.9-1.8l5,5.1
		c2.9,3,6.5,5.1,10,7.2c4.3,2.5,8.3,4.8,10.9,8.6l0,0l0,0c2.7,3.6,5.2,7.6,7.6,11.5c5.5,9,11.3,18.3,21,24L120.9,323.4 M600.3,322.2
		l3.1-1.8c9.1-5.2,14.6-13.9,19.8-22.4c5.7-9.1,11-17.7,20.6-22.1l0.1-0.1l0.1-0.1c0.2-0.1,0.4-0.3,0.8-0.5c6-3.7,7.6-4.9,7-6.8
		c-0.1-0.4-0.6-1.7-2.5-1.7c-0.3,0-0.6,0-1,0.1h-0.1h-0.1c-11.5,2.8-23.6,6.2-34.6,12l-0.2,0.1l-0.2,0.2
		c-10.6,9.5-12.4,24.5-12.9,39.4L600.3,322.2 M173.7,355.3c1.1,0,2.3-0.1,3.5-0.3h0.2l0.2-0.1c3.1-1,6.4-1.5,10.1-1.5
		c2.6,0,5.3,0.2,8.4,0.7l2.6,0.4l-0.3-2.6c-0.1-0.8,0-1.9,0.1-3c0.3-3,0.9-7.8-4.2-9.3c-4.8-3.9-10.4-4.5-14.8-4.5
		c-2.1,0-4.3,0.1-6.4,0.3c-2,0.1-4.1,0.3-6.1,0.3c-1.6,0-3-0.1-4.3-0.3h-0.3l-0.3,0.1c-0.4,0.1-0.9,0.1-1.3,0.1
		c-3,0-5.5-2.1-8.2-4.3c-1.6-1.3-3.3-2.7-5.2-3.8l-4.8-2.6l2,5.1C149.2,342.2,159.4,355.3,173.7,355.3 M553.3,335.6
		c-1.9,0-3.8-0.1-5.7-0.1c-1.9-0.1-3.9-0.2-5.8-0.2c-6.8,0-14.5,0.9-20.2,7.6l-0.2,0.2l-0.1,0.3c-0.9,2.1-0.8,4.4-0.7,6.6
		c0,1.2,0.1,2.3-0.1,3.4l-0.5,4.4l3.7-2.5c1.9-1.3,4.1-1.9,6.9-1.9c2.6,0,5.4,0.5,8.1,1c1.3,0.2,2.7,0.5,4,0.7
		c1.2,0.2,2.5,0.3,3.8,0.3c12.7,0,22.8-10.4,26.8-20.1l0.1-0.3v-0.1c0.1-0.2,0.3-0.7,0.5-1.1c1.2-2.4,1.9-3.8,1.1-5.1
		c-0.4-0.6-1.1-1-1.8-1c-0.5,0-1,0.2-1.5,0.5l-0.3,0.2l-0.2,0.3C566.4,334.7,559.7,335.6,553.3,335.6 M458.3,274.8
		c0,0.1,0.1,0.3,0.1,0.4c-0.2,0-0.4-0.1-0.7-0.3c0.1,0,0.1,0,0.2,0L458.3,274.8L458.3,274.8 M282.7,279
		c23.2,7.2,43.1,21.7,57.2,32.9l1.4,1.1l1.3-1.3c2.1-2.1,3.1-4.7,3.7-7.4c0.1,0.3,0.2,0.6,0.3,0.9c1,2.9,0.2,7.2-2.1,10.5
		c-1.6,2.3-3.6,3.6-5.4,3.6c-1.4,0-2.8-0.8-4.2-2.3l-0.1-0.1l-0.1-0.1C319.4,302.9,302.6,287.4,282.7,279 M438.5,279.1
		c-19.9,8.6-36.6,24-51.6,37.9l0,0l0,0c-1.4,1.4-3,2.1-4.7,2.1c-1.9,0-3.6-1-4.8-2.8c-1.2-3.5-1.7-7.2-1.8-10.9
		c0.3,1.6,0.8,3.1,1.8,4.4c1.1,1.8,2.5,2.2,3.4,2.2c2.2,0,4-1.9,5.7-3.7c0.7-0.7,1.5-1.6,2-1.8l0.1-0.1l0.1-0.1
		C402.3,296.5,419.3,285.3,438.5,279.1 M268.3,291.1c-3.5,7.5-5.9,16.3-1.8,24.3l1,1.9l1.8-1c5.2-3,10.8-4.6,16-4.6
		c3.7,0,7.2,0.8,10.4,2.4l0.1,0.1h0.1c10.4,3.6,18,12.1,25.3,20.3c0.9,1,1.8,2,2.7,3l0.7,0.7l1-0.1c0.8-0.1,1.7-0.1,2.6-0.1
		c5.3,0,11.9,1.5,15.5,5.4c-0.8-0.1-1.7-0.2-2.6-0.3c-2.1-0.2-4.3-0.5-6.4-0.5c-2.3,0-5.6,0.3-7.7,2.5l-1.6,1.6l1.8,1.4
		c4.1,3.1,7.3,7.6,9,12.7c-0.9-0.9-1.8-1.9-2.7-2.9c-3-3.4-6.5-7.2-11.5-8.4c-3.1-1.2-6.5-1.7-10-1.7c-6,0-12.5,1.7-19.7,5.2
		c0.2-5-3.8-7.9-7.1-10.4c-2.2-1.6-4.5-3.4-5.8-5.6l-0.4-0.8l-0.9-0.2c-1.1-0.2-2.2-0.3-3.3-0.3c-9.6,0-17.1,8.8-19.5,17.4v0.1v0.1
		c-1.4,7.2-2,13.8-1.8,19.9c-0.4-1.6-0.8-3.1-1.4-4.3c-3.6-12.5-1.7-27.1,5.7-42.4l0.4-0.8l-0.3-0.8
		C253.2,312.2,257.8,298.1,268.3,291.1 M282,337.5c4.2,5.7,11.2,9.2,18.7,9.2c4.5,0,8.8-1.2,12.5-3.4c2.9-1.1,4.4-3.3,3.9-5.9
		c-0.7-4.2-6.4-8.3-10-8.3c-0.6,0-1.1,0.1-1.6,0.3l-1,0.3l-0.3,1c-0.8,2.7-3.1,3.7-5.1,3.7c-1.5,0-2.8-0.5-3.7-1.4
		c-0.4-0.4-0.7-0.8-0.9-1.3c2.5-0.1,5.4-0.5,6.7-2.7c0.9-1.6,0.8-3.6-0.4-6l-0.3-0.5l-0.5-0.3c-0.6-0.4-1.2-0.7-1.8-1.1
		c-2.8-1.8-6-3.8-9.7-3.8c-1.2,0-2.4,0.2-3.6,0.7h-0.1h-0.1c-3.5,1.6-5.8,4.6-6.5,8.3C277.6,330.3,279,334.5,282,337.5 M454,291.3
		c7.6,4.4,12.6,13.2,12.3,22.2v0.2v0.2c0.2,1.7-0.2,3.7-0.7,5.8c-0.9,3.5-1.8,7.5,0.9,11.2c6.5,12.5,7.2,28.2,2.1,43
		c0.3-13.1-0.5-29.4-14-36.4l-0.1-0.1h-0.1c-0.4-0.1-0.9-0.3-1.4-0.5c-1.8-0.7-4-1.5-6.1-1.5c-1.7,0-3.1,0.5-4.1,1.6l-0.2,0.2
		l-0.1,0.3c-1.6,3-4.5,4.8-7.6,6.8c-1.5,0.9-3,1.9-4.4,3l-1.1,0.9l0.5,1.3c0.2,0.5,0.4,1,0.6,1.5c0.3,0.9,0.7,1.7,0.9,2.5
		c-8.1-3.8-15.2-5.6-21.6-5.6c-6.4,0-12,1.9-16.6,5.7c-2.6,1.3-4.3,3.7-5.7,5.8c-0.3,0.4-0.5,0.8-0.8,1.1c2-5.3,5.9-9.8,9.3-13.3
		l2.6-2.6l-3.6-0.7c-3.5-0.7-7.1-1.1-10.5-1.1c-1.6,0-3.3,0.1-4.9,0.2c3.6-3.6,9.9-5,15-5c0.9,0,1.9,0,2.7,0.1l1.1,0.1l0.7-0.8
		c9.4-11.2,19-21.5,32.1-24.8h0.1h0.1c1.9-0.7,4-1,6.1-1c6,0,12.1,2.6,16.2,4.6l1.7,0.8l0.9-1.7C460.5,307,457.2,298.7,454,291.3
		 M421.4,328.4c0.8,3.1,4.4,3.1,5.6,3.1c0.2,0,0.5,0,0.7,0c-0.9,2.8-3.7,3-4.6,3c-2.3,0-4.9-1.3-5.2-4.1l-0.2-2.2l-2.2,0.4
		c-4.9,0.9-8.5,5.3-10.7,8.6l-0.9,1.3l1.1,1.2c4.1,4.5,9.9,7,16.4,7c10,0,18.8-5.7,21.9-14.2c1.5-3.1,1.2-6.5-0.6-9.5
		c-2.2-3.5-6.1-5.7-10-5.7c-1.3,0-2.6,0.2-3.8,0.7l-0.3,0.1l-0.2,0.2c-0.5,0.4-1.5,0.9-2.4,1.4c-2.3,1.2-4.9,2.5-5.4,5
		C420.2,325.9,420.5,327.1,421.4,328.4 M658.8,346.4c0.2,0.8,0.1,2.5,0,3.5c-0.1,2-0.2,3.8,0.4,5.1c2.1,74.9-35.9,139.8-69,181.7
		c0-6.7,0.7-13.6,1.4-20.4c1.8-17.8,3.6-36.3-6.2-52.3c-5.9-11-16.3-17.1-26.3-22.9c-7.5-4.4-14.7-8.6-20-14.7
		c18.7-1,48.8-6.5,67.3-29.1l0.1-0.1l0.1-0.1c13.3-20,31.2-37.6,52-50.7C658.6,346.5,658.7,346.5,658.8,346.4 M61.2,347.3
		c10.8,4.5,19.8,13.4,28.5,22.1c2.3,2.3,4.6,4.6,7,6.8l0,0l0,0c4.6,4.1,8.3,9.3,11.8,14.3c4.7,6.7,9.6,13.6,16.9,18.3
		c14.6,10.4,33.1,16.3,54.9,17.7c-5.5,6.2-12.8,10.6-20.4,15.3c-12.1,7.4-24.6,15-29.6,30.1v0.1v0.1c-4.6,18.6-2.8,38.6-1.2,56.3
		c-0.3,1.5-0.1,3.5,0.2,5.5c0.1,0.7,0.2,1.7,0.3,2.6c-22.1-27.3-40-57.7-51.7-88C64.8,414.2,59.2,380.2,61.2,347.3 M327,360.1
		c-0.5,4.6-1.1,9.1-1.7,13.6c-1.1,8.3-2.3,16.9-2.9,25.5l-0.2,2.2h2.2c0.1,0,0.3,0,0.4,0c5.7,0,11.4,1.8,17,3.6
		c5.8,1.8,11.8,3.7,17.9,3.7c2.9,0,5.5-0.4,8.1-1.2l2.5-0.7c8.2-2.2,16.6-4.6,25.1-5.4l2-0.2l-0.2-2c-1-12.1-2.5-24.1-4.6-38.2
		c0.1,0,0.1-0.1,0.2-0.1l0.3,1.1c4.5,15.1,9.1,30.7,9.4,46.7v2.3l2.2-0.3c0.3,0,0.6-0.1,0.9-0.1c-9.4,5.9-18.6,12.3-26.1,20.7
		c-0.1-0.7-0.1-1.4-0.2-2.2c-0.1-1-0.2-1.9-0.3-2.9l-0.6-4.8l-2.9,3.8c-1.8,2.3-2.7,5.1-3.5,7.8c-0.8,2.7-1.6,5.2-3.2,7.1
		c-6.3,5.6-5.9,13.5-5.5,20.5c0.1,2.4,0.2,4.6,0.1,6.7l-0.1,2.2l2.2-0.1c0.6,0,1.1,0,1.7,0c10.4,0,19.6,4,29.4,8.3
		c5.8,2.5,11.9,5.2,18.1,6.8c2.3,0.9,4.8,0.9,7.2,1c0.2,0,0.4,0,0.7,0c-1.3,0.4-2.6,0.9-3.9,1.6l-0.9,0.5l-0.1,1
		c-1.5,14.7-9.3,27.8-16.9,40.5c0-0.4,0.1-0.9,0.1-1.3c1-13.7,2-28-2.4-41.1l-0.2-0.5l-0.4-0.4c-1.4-1.2-2.5-1.8-3.6-1.8
		c-0.8,0-1.5,0.3-2,0.8c-1.3,1.3-1.2,3.5-1.2,6.3c0,1.3,0.1,4-0.3,5c-0.9-0.6-1.5-2.1-2.3-4.1c-1.1-2.9-2.6-6.5-6.5-6.5
		c-1,0-2,0.2-3.1,0.7c-0.2,0.1-0.5,0.2-0.6,0.2c-0.6,0-1.4-0.7-2.2-1.5c-1.2-1.2-2.7-2.7-4.9-2.7c-1.1,0-2.2,0.4-3.4,1.2
		c-0.3,0.1-0.5,0.2-0.8,0.2c-0.7,0-1.5-0.6-2.4-1.2c-1.2-0.9-2.8-2-4.8-2c-0.9,0-1.9,0.2-2.8,0.7l-0.3,0.2l-0.3,0.3
		c-1.2,1.3-2.4,2-3.6,2c-0.3,0-0.6,0-0.9-0.1c-1.1-0.7-2.2-1.1-3.3-1.1c-2.3,0-3.8,1.5-5,2.8c-0.8,0.8-1.6,1.6-2.1,1.6
		c-0.2,0-0.4-0.1-0.7-0.2h-0.1h-0.1c-1-0.5-2-0.7-2.9-0.7c-3.8,0-5.3,3.7-6.5,6.6c-0.7,1.8-1.4,3.3-2.1,3.9
		c-0.3-1.1-0.3-3.3-0.3-4.4c0-3.3,0-7.8-3.9-7.8c-1,0-2.1,0.4-3.4,1.2l-0.7,0.5l-0.2,0.8c-3.2,15.9-3.9,29.9-2.2,42.6
		c-0.1-0.2-0.2-0.4-0.4-0.6c-0.5-0.8-0.9-1.6-1.4-2.3c-7-11.7-14.2-23.8-13.6-37.3l0.1-1.5l-1.4-0.5c-1-0.3-2-0.6-2.9-0.8
		c8.3-1.5,16-4.9,23.5-8.1c10.2-4.4,19.9-8.6,30.8-8.6c0.4,0,0.8,0,1.2,0l2,0.1l0.1-2c0.3-6.6,0.2-13.2-0.3-19.6l-0.1-0.7l-0.5-0.5
		c-5.8-5.9-8.6-13.9-10.9-20.9l-0.7-2.1l-2,0.9c-1.9,0.8-1.9,3.3-1.9,5.9c0,0.4,0,1,0,1.6c-6.5-8.8-15.7-14.6-24.6-20.2
		c-0.7-0.5-1.5-0.9-2.2-1.4c0.6,0.1,1.2,0.3,1.8,0.4l2.4,0.3l-0.1-2.4c-0.8-13.9,3.4-27.6,7.5-40.8
		C325.4,365.2,326.2,362.6,327,360.1 M320.4,429.3c0.5,0,0.9,0.5,1,0.9c0,0.2,0.1,0.5-0.6,0.9l-0.2,0.1l-0.2,0.2
		c-6.8,5.9-16.9,12.8-28.2,13.8c8-1,17.1-6.1,27.7-15.7C320.1,429.3,320.2,429.3,320.4,429.3 M395,429.4c1.8,0,3.5,1.7,5.1,3.3
		c0.5,0.5,1,1,1.6,1.5c7.5,6.8,16.8,10.9,24.9,10.9c0.1,0,0.2,0,0.3,0c-0.5,0-1.1,0.1-1.7,0.1c-7.2,0-15-3.4-19.6-6.4
		c-1-0.9-2.5-1.8-4.1-2.7c-2.6-1.5-6.5-3.8-6.8-5.7C394.7,430.2,394.6,429.9,395,429.4C394.8,429.4,394.9,429.4,395,429.4
		 M315.4,449.5L315.4,449.5c1,0,1.8,0.4,2,0.8c0.1,0.1,0.2,0.3,0,0.8c-5.2,4.7-11.8,8-18.4,9.3c4.7-1.8,8.6-4.9,12.3-8
		c1.2-1,2.5-2,3.7-3C315.2,449.5,315.3,449.5,315.4,449.5 M399.1,449.7c3.3,0.4,6.1,2.8,9.1,5.3c2.3,1.9,4.6,3.8,7.2,5.1
		c-6-1.4-11.9-4.4-16.4-8.3c-0.3-0.3-0.5-0.7-0.5-1.2C398.6,450.3,398.8,450,399.1,449.7 M339,456.5c0.5,0,0.8,0.7,0.9,1
		c0.1,0.4,0.2,1.3-0.8,1.7l-0.2,0.1l-0.1,0.1c-13,8.5-25.4,13.6-37.1,15.3c11.5-2.5,23.3-8.4,36.9-18.1
		C338.8,456.6,338.9,456.5,339,456.5 M376,456.8c4.2,1.2,8.2,3.9,12.3,6.7c4.2,2.9,8.6,5.9,13.7,7.4c5.6,2.3,11,3.8,16.1,4.4
		c-11.8-0.6-24.1-6.2-34.8-11.7h-0.1h-0.1c-3.4-1.4-7.3-4.2-7.5-5.9C375.6,457.4,375.7,457.1,376,456.8 M380.2,544.6
		c-0.5,7.7-3.4,17.2-9.4,23.5c-3.8,4-8.3,6.2-13.3,6.4c-12.1-3.4-19-17.1-19.3-29.7c3.6,1.7,7.5,2.2,11.3,2.7c2,0.3,4,0.5,5.9,0.9
		c0.3,1.3,0.5,2.8,0.7,4.3c0.4,3.2,0.8,6.6,2.5,8.8l2.9,3.8l0.7-4.8c0.5-3.9,1.2-8.1,2.1-12.2c0.7-0.1,1.5-0.3,2.2-0.4
		C371.1,547.3,375.8,546.5,380.2,544.6 M390.6,562.6c0,0.9,0,1.9,0.2,2.7l0,0l0,0c3.1,12,0,26.5-8.2,39.1c-3.5-2.6-8.3-4.9-12.9-4.9
		c-4.5,0-8,2.4-9.7,6.8c-0.1,0.1-0.1,0.3-0.2,0.4c-0.6-0.6-1.4-1.8-1.9-2.5c-1.1-1.6-2.2-3.2-3.5-3.9l0,0l0,0c-1.5-0.7-3-1-4.6-1
		c-4.3,0-8.3,2.4-12.1,5.3c-10.4-12.8-14.1-28.6-10.1-42c0.4,1.3,0.8,2.6,1.1,4c0.9,3.3,1.8,6.7,3.6,9.7c1.3,4.8,6.6,10.3,11.8,10.3
		c1.7,0,3.2-0.6,4.5-1.6c1.1,0.5,2.4,0.8,3.8,0.8c1.5,0,2.9-0.3,4.2-0.6s2.5-0.5,3.6-0.5c1,0,1.8,0.2,2.6,0.6c0.8,0.7,1.7,1,2.6,1
		c1.3,0,2.5-0.6,3.4-1.2c0.4-0.2,0.9-0.5,1.2-0.6c0,0.1,0.1,0.1,0.2,0.3c1,1.5,2.5,2.3,4.2,2.3c1.9,0,3.7-1,5.2-1.7
		c0.4-0.2,0.7-0.4,1-0.5l0.4-0.2l0.3-0.4C386.5,577.8,388.7,570.2,390.6,562.6 M360.4,0.9c-9.9,0-19.9,0.4-29.7,1.1
		c-57,4.1-112.7,22.5-161.2,52.7C64.5,119.5-4.2,241.4,1.3,365.5c-0.9,62.8,17.8,125.3,49.9,179.1
		c58.4,98.5,166.6,166.1,281.3,172.9c-5.6-11.2-12.8-21.7-20.3-31.8c-115-15-217.4-97.1-259-205.1c-42.3-105.4-24.8-233.2,46.3-322
		c13.7-7.3,27.9-13.7,42.2-19.8c9.8-5,20.7-8,31.6-8c6.8,0,13.6,1.2,20.1,3.7c14.4,5.2,23,20.2,24,35c0.9,7.1,7.4,11.1,14,11.1
		c1.5,0,2.9-0.2,4.3-0.6c18.7-4.2,34.8-15.3,50.3-25.9c-7.6-31.5-11.7-64.2-9.7-96.7c-38.7,6-77.6,16.3-111.1,37.1
		c0.1-1.2,0.7-2,1.7-2.5c17.9-11.4,35.7-23.3,55.4-31.6c42.7-20.1,89.8-29.9,136.9-29.9c69.3,0,138.7,21.4,194.3,63
		c-32.9-19.8-70.6-30-108.2-36c0,2.4,2.5,3.6,3.8,5.3c11.7,11.7,22.3,26.1,24,43c0.6,20.1-14.8,37-31.8,45.7
		c-8.1,4.7-18.3,7.2-23.4,15.6c-9.6,13.4-4.1,31.4,3.4,44.5c-0.3,0-0.6,0-0.9,0c-0.4,0-0.7,0-1.1,0c-1.1,0-2.2-0.1-2.7-1.3
		c-6.7-12.9-12.6-29-4.2-42.7c6.1-12.1,20.4-15.1,30.9-22c14.9-8.3,28.2-24.6,24.6-42.6c-3.5-18.4-16.1-34-30-46
		c-9.4-2.1-19.1-2.6-28.7-3.4c-0.7-0.1-1.5-0.1-2.2-0.1c-14.5,0-24.9,12-35.6,20.3c-3.6,2.5-6.3,11.6-11.2,11.6
		c-0.9,0-1.8-0.3-2.9-1c-11-12.8-23.7-27.3-41.1-30.8c-0.3,0-0.5,0-0.8,0c-11.7,0-24.3,1.7-35.2,3.9c-3.5,51,6.1,104.6,31.4,149.7
		c1.2,1.9,1,2.8-0.6,2.8c-0.8,0-1.9-0.2-3.4-0.7c-7.7-15.7-14.3-32-19.6-48.7c-17.9,11-37.5,23.7-59.1,23.7c-1.8,0-3.6-0.1-5.3-0.3
		c-9-1.3-13.7-10.1-13.7-18.5c-0.7-18-17.9-31-34.9-31c-5.8,0-11.7,1.5-16.8,5c-22,14.7-42.5,32-60,51.8c26,4.3,46.7,27,50.5,52.8
		c5.8,17.8,25.3,26.2,42.8,27.7c-2.5,1.7-5.3,2.4-8.3,2.4c-7.9,0-16.7-4.9-23-8.7c-13.5-9.2-16.7-25.5-22.4-39.6
		c-8.6-16.2-24.6-27.5-42.3-31.2c-17.5,19.3-29.2,43-39.3,66.8c-11.9,29.7-20.7,61.1-20.9,93.3c9.6-5.1,15.6-15.5,24.9-21.1
		c13.4,8.5,25.1,19.5,36.8,30.2c15.2,14.3,24.5,34.5,43.3,44.7c13.5,7.7,29,12.1,44.6,12.1c1.4,0,2.7,0,4.1-0.1
		c3.5-3.4,5.2-8.1,8.1-12c4.2,10-6.4,16.4-12,22.9c-15.3,16.1-42.3,20.1-49.9,43.1c-4.4,8.9,0.7,17.9,4,26.2
		c21.7,57.2,67,100.7,111.8,140.3c11.5,9.6,21.8,21.5,34.2,29.6c2.5-7.1,1.8-15,5.2-21.8c-10.3-5.1-21.5-10.3-26.7-21.5
		c-9.9-16.6,1.6-37-8.5-53.6c-10.7-15.9-8.9-36-7-54.1c3-20.8,6.8-42.4,13.1-62.1c2.4,19.6-7.4,37.5-9.5,56.7
		c-2.6,18-5.7,38.3,4.5,54.4c9.2,15.1,4.5,33.6,6.9,50.1c4.1,12.9,15,22.3,27.5,26.5c30,12.5,45.3,43,62.4,68.6
		c1.8,2,4.2,6.8,6.9,6.8c0.9,0,1.7-0.5,2.6-1.8c20.4-27,35.4-63.2,70-75c16.2-6.2,28.9-23.6,25-41.4c-2.1-16.3,4.1-31.2,11.3-45.2
		c4.7-28.6-3-57.3-10.5-84.7c1.9-3.6-3.7-15.6,0.6-15.8c3.5,15.8,7.9,31.4,10.8,47.4c3.4,20.7,7.1,43.6-1.6,63.4
		c-11.4,14.8-6.7,34.2-8.5,51.4c-3.2,14.9-16.3,24.1-29.4,29.8c1.7,7.3,3.6,14.5,4.3,21.9c9.1-5.2,15.9-13.4,23.8-20.1
		c49.3-43.8,100.9-90.2,124.3-153.8c9.5-15.5-0.3-34.4-14.3-43.1c-17-9.8-35.2-20-45.9-37.1c-2.2-2.6-0.8-6.2,0.1-9.1
		c2.8,4.2,4.8,9,8,13c0.7,0,1.5,0,2.2,0c26.6,0,54.9-10.6,69.9-33.6c16.1-20.4,35.5-38.3,56.7-53.3c9.2,5.1,15.3,15.9,24.8,21.2
		c0.7-30.5-7.6-60.3-18.5-88.6c-10-25.6-22.6-50.6-40.7-71.5c-20.8,3.7-38.8,19.5-46.3,39.2c-2.6,16.7-14.4,31.9-30.3,37.8
		c-4.1,0.4-9.5,2.9-14.1,2.9c-2.4,0-4.6-0.7-6.1-2.9c15.4-0.9,31.8-7.6,40-21.2c4.2-7.1,4-15.8,8.1-22.9c8.1-18.4,25-32.9,45.1-36.2
		c-17-20.4-38.7-36.9-60.1-52.8c-5.2,5.4-11.6,9-18.7,11.4c-11.3,3.3-19.1,12.3-25.3,21.8c1.4-7.8,3.6-16,8.9-22.2
		c7.8-10.2,21.8-10.9,32.1-16.9c22.2,4.7,42.3,16.8,62.8,26.3c69.3,88,87.7,212.5,47.7,317.1C628.7,586.4,525,670.4,408.7,686
		c-8.4,9.5-15,20.9-21.4,31.8c131.4-8.1,253.5-96,303.5-217.7c25-57,32.7-120.7,25.6-182.4C703.8,190.6,615.5,75.3,497.2,27.9
		C454,9.2,407.2,0.9,360.4,0.9L360.4,0.9z M402.2,102.4c-5.1,8.3-5.6,19.3-13.2,25.9c-3.6,1.5-7.2,2.1-10.8,2.1
		c-9.9,0-19.7-4.6-29-7.9c-3.8-2.2,3.9-4.5,5-5.9c13.8-8.2,30.1-9.5,45.3-13.6C400.3,102.8,401.6,102.5,402.2,102.4L402.2,102.4z
		 M521.6,202.7c-4.8,3.9-11.5,6.2-13.3,12.8c-3.6,9.9-5.1,23-16,28c-0.6,0.5-1.3,0.8-1.9,0.8c-2.4,0-4.7-3.1-7-3.8
		c5.1-6.6,4.5-15.6,7.9-22.9c3.7-10.2,15.6-13.9,25.5-14.4L521.6,202.7L521.6,202.7z M360.1,284.6c3.8-20.2,6.2-40.7,10.5-60.9
		c7.7-6.3,17.5-8.6,27.4-8.6c7.6,0,15.3,1.3,22.4,3.2c38,11.2,72.6,34,102.1,59.1c-11.7-6.3-24.2-11.2-36.2-17
		c-0.8-0.3-1.9-0.9-2.6-0.9c-0.5,0-0.8,0.4-0.1,1.6c19.4,18.1,29.2,44.3,31.6,70.3c2.4,20.3-0.1,40.7,2,61
		c-1,24.4-13.7,46.5-29,64.9c-1,0.8-1.5,3-2.8,3c-0.2,0-0.5-0.1-0.7-0.2c-19.3-24.3-39.4-47.9-59.1-71.9c-2.7-2.6-4.3-7.2-8.2-7.9
		c17.5,31.5,42.3,64.9,32.1,103.2c-2.8,13.6-14.5,22-20,34c-4.8,13.3-4.6,27.8-5.6,41.7c7.6,14.8,8.4,33.6-0.1,48.2
		c-2.3-6.4-8.4-10.4-14.4-12.9c-4.1,15.3-13.9,28.1-23.8,40.2c0.3-5.8-1.9-13.3-7.3-16.2c-8.3,6.4-15.2,15.8-18.4,26
		c-3.8-10.1-10.1-19.5-18.6-26.1c-5.3,3.3-7.3,10.3-7.2,16.2c-10.3-11.7-19.8-24.9-23.8-40.1c-6.8,1.7-10.6,8.1-15.6,11.9
		c-6.7-15-7.3-32.7,1.1-47.2c-0.9-16.1-0.9-33.1-8.5-47.8c-11.2-11.7-19.7-26.8-19.5-43.4c-1.1-32.8,19.2-60.4,34.6-87.7
		c-1.2,0-2.1,0.5-2.8,1.4c-21.9,26.1-43.9,52.1-65.4,78.5c-15.4-16.9-29.4-38.8-31.7-62.7c2.7-35.2-4.3-72.9,11.9-105.9
		c4.8-12.2,14.3-22.4,21.9-32.2c-13.7,5.2-26.6,12.8-40.2,18.1c34.2-26.7,71.6-54.5,115.5-61.5c3.4-0.4,6.9-0.7,10.4-0.7
		c9.7,0,19.5,2.1,26.8,8.6C353.5,243.9,354.3,265.1,360.1,284.6L360.1,284.6z M118.3,319.5c-13.4-7.9-19-23.2-28-35
		c-5.2-7.4-15-9.7-21.1-16c14,3.7,29.7,6.3,40.5,16.7C116.8,295.1,116.5,307.9,118.3,319.5L118.3,319.5z M602.4,318.7
		c0.4-13.2,1.7-28.5,12.2-37.9c10.7-5.7,22.4-9,34.1-11.9c0.3,0,0.5-0.1,0.7-0.1c2.6,0-5,4.4-6.4,5.3
		C623.5,283.1,620.5,308.4,602.4,318.7L602.4,318.7z M173.7,353.3c-13.3,0-22.9-12.4-27.4-24c4.8,2.6,8.5,8.3,14.3,8.3
		c0.5,0,1.1,0,1.6-0.2c1.5,0.2,3,0.3,4.6,0.3c4.1,0,8.4-0.5,12.5-0.5c5,0,9.9,0.8,13.9,4.3c5.4,1.2,2.6,7,3,10.7
		c-2.9-0.4-5.8-0.7-8.7-0.7c-3.6,0-7.2,0.4-10.7,1.6C175.8,353.2,174.8,353.3,173.7,353.3L173.7,353.3z M553.3,337.6
		c7.3,0,14.3-1.1,19.4-7.6c0.2-0.1,0.3-0.2,0.4-0.2c0.8,0-1.7,4.2-1.8,4.8c-4.1,9.9-13.9,18.8-25,18.8c-1.1,0-2.3-0.1-3.5-0.3
		c-4-0.6-8.3-1.7-12.4-1.7c-2.8,0-5.6,0.6-8.1,2.3c0.4-3.1-0.5-6.6,0.6-9.4c5-5.9,11.7-6.9,18.7-6.9
		C545.6,337.3,549.5,337.6,553.3,337.6L553.3,337.6z M458.5,272.7c-0.3,0-0.6,0.1-0.9,0.2c-26,2.8-49.3,16.7-70,31.9
		c-1.8,1-4.5,5.2-6.7,5.2c-0.7,0-1.3-0.4-1.8-1.3c-3.6-4.2,0.4-13.7-4.6-15.2c-1,7.8-1.6,16.2,1.2,23.7c1.6,2.6,4,4,6.6,4
		c2.1,0,4.3-0.9,6.1-2.7c19.4-18,40.3-37.2,67.2-42.7c1.4,1,2.4,1.4,3.2,1.4C461.3,277.2,460.6,272.7,458.5,272.7L458.5,272.7z
		 M263.5,272.9c-1.3,0.3-2.6,0.7-2.2,2.4c28.9,3.4,51.5,24.2,72,43.2c1.9,2.1,3.8,2.9,5.7,2.9c6.4,0,11.7-10.4,9.4-16.9
		c-1.3-2.9,2.6-11-2.7-11c-0.1,0-0.1,0-0.2,0c-1,5.5,0,12.5-4.3,16.9C318.7,292.4,292.7,276,263.5,272.9L263.5,272.9z M450.2,287.4
		c3.4,8.4,9,17.8,4,26.9c-5.3-2.6-11.2-4.8-17.1-4.8c-2.3,0-4.5,0.3-6.8,1.1c-14.1,3.5-24.1,14.8-33.1,25.4
		c-0.9-0.1-1.9-0.1-2.9-0.1c-7.4,0-16.3,2.7-19.1,9.6c3-0.6,6-0.8,9-0.8c3.4,0,6.8,0.4,10.1,1c-5.2,5.3-10.5,11.8-11.1,19.9
		c4.8-1.3,6-8.2,10.8-10.4c4.6-3.9,10-5.4,15.5-5.4c8.2,0,16.7,3.3,23.8,6.9c0.5-3-0.8-5.4-1.7-8c4.3-3.4,9.9-5.4,12.5-10.4
		c0.7-0.7,1.7-1,2.7-1c2.2,0,4.9,1.2,6.8,1.9c14.8,7.6,13,27.5,12.7,41.5c0.4-0.1,1.3-0.3,1.7-0.3c7.2-15.8,8.3-34.9,0.1-50.6
		c-3.7-4.8,0.9-10.7,0.2-16.1C468.8,302.1,461.1,290.8,450.2,287.4L450.2,287.4z M427,329.5c-1.7,0-3.5-0.2-3.8-2
		c-3.3-4.2,3.9-5.6,6.4-7.8c1-0.4,2-0.6,3.1-0.6c6,0,11.8,6.4,8.8,12.4c-3,8.3-11.6,13-20.1,13c-5.5,0-11-2-14.9-6.3
		c2.1-3.1,5.3-7,9.5-7.8c0.3,3.9,3.7,6,7.1,6c2.9,0,5.7-1.5,6.6-4.7c1.4-2.1,0.4-2.4-1.3-2.4C427.9,329.5,427.5,329.5,427,329.5
		L427,329.5z M272.4,287.4c-0.5,0-1.5,0.1-2.1,0.2c-13.8,6.7-19.7,23.7-14.4,37.8c-6.5,13.6-10.1,29.2-5.7,44c1.9,3.2,1.5,10.6,6,11
		c-1.5-9-0.8-18.1,1-27c2.2-7.8,9.1-15.9,17.6-15.9c0.9,0,1.9,0.1,2.9,0.3c4,7.2,16.3,8.7,11.6,18.8c6.9-3.8,14.8-7,22.7-7
		c3.1,0,6.3,0.5,9.4,1.7c7.9,1.9,11.5,11.1,17.9,14.2c-0.9-7.6-4.9-14.6-10.9-19.1c1.4-1.5,3.7-1.9,6.3-1.9c3.8,0,8.3,0.9,11.8,0.9
		c0.3,0,0.6,0,0.9,0c-2.9-7-11.8-9.6-19.2-9.6c-0.9,0-1.9,0-2.7,0.1c-8.4-9.3-16.6-19.6-28.8-23.9c-3.6-1.8-7.4-2.6-11.2-2.6
		c-5.9,0-11.8,1.9-17,4.9C263.8,305.6,268.1,295.4,272.4,287.4L272.4,287.4z M300.7,344.7c-6.6,0-13.1-2.9-17.2-8.5
		c-5.1-5-4.4-13.5,2.2-16.5c1-0.4,2-0.5,2.9-0.5c3.8,0,7.2,2.7,10.5,4.6c3.1,6.1-3.4,5.7-6.8,5.8c-0.1,4.4,3.3,6.7,6.9,6.7
		c3,0,6-1.7,7-5.1c0.3-0.1,0.6-0.1,0.9-0.1c4.3,0,12.5,7.9,5.2,10.4C308.8,343.6,304.7,344.7,300.7,344.7L300.7,344.7z M659.1,344.4
		c-0.4,0-0.9,0.1-1.6,0.4c-20.9,13.2-39.1,30.8-52.7,51.3c-16.7,20.5-44.3,27.8-69.7,28.5c12.2,17.4,38,20.8,48.5,40.5
		c13.9,22.6,3.6,50.6,4.6,75.5c0.4-0.1,1.3-0.3,1.7-0.4c41.9-52.4,73.2-117.4,71.2-185.8C659.8,352.5,662.4,344.4,659.1,344.4
		L659.1,344.4z M59.4,344.5c-5.3,71.8,26.2,141.9,70.9,196c3-1.1-0.1-9,0.9-12c-1.7-18.5-3.4-37.8,1.1-56
		c8.1-25.1,38.3-28.6,52.1-47.8c-20.3-0.7-41-5.5-57.8-17.5c-12.4-8.1-17.6-22.8-28.5-32.4C86.3,363.6,74.8,349.7,59.4,344.5
		L59.4,344.5z M328.3,357.5c-0.9,0-1.8,0.1-2.7,0.2c-4.8,16.6-11.5,33.3-10.4,51c-3.4-0.5-6.5-2.1-9.9-2.1c-0.4,0-0.8,0-1.3,0.1
		c12.3,8.8,27.2,15.4,35.7,28.5c0.3,0.1,0.5,0.2,0.7,0.2c2.7,0,0.5-8.3,2.2-9c2.5,7.8,5.5,15.6,11.4,21.7c0.5,6.4,0.6,12.9,0.3,19.4
		c-0.4,0-0.8,0-1.2,0c-22.6,0-40.6,17.6-63.4,17.6c-0.2,0-0.4,0-0.6,0c3.6,2.3,8,2.5,12,3.9c-0.6,15.1,7.9,28.3,15.3,40.8
		c1.2,1.8,2,5.1,4.6,5.1c0.1,0,0.3,0,0.4,0c-3.1-15.8-1.9-32.1,1.2-47.8c1-0.6,1.7-0.9,2.3-0.9c3.6,0,0.1,10.9,3.5,12.6
		c4.9-0.4,4.3-10.9,9.2-10.9c0.6,0,1.3,0.2,2.1,0.5c0.6,0.3,1.2,0.5,1.7,0.5c2.8,0,4.3-4.3,7.2-4.3c0.7,0,1.5,0.3,2.4,0.9
		c0.6,0.2,1.2,0.3,1.8,0.3c1.9,0,3.6-1.1,5-2.6c0.7-0.3,1.3-0.5,1.9-0.5c2.8,0,4.5,3.3,7.3,3.3c0.5,0,1.1-0.1,1.8-0.4
		c0.9-0.6,1.7-0.9,2.4-0.9c2.8,0,4.2,4.2,7.1,4.2c0.4,0,0.9-0.1,1.4-0.3c0.9-0.4,1.7-0.6,2.3-0.6c5,0,4.1,10.2,9.2,10.9
		c3.6-1.3,0.3-12.5,3-12.5c0.5,0,1.2,0.4,2.2,1.3c5,15,2.8,31.7,1.8,47.3c0.4-0.1,1.2-0.3,1.6-0.4c8.4-14.1,18-28.6,19.7-45.4
		c3.3-1.9,7.3-2.2,10.8-3.4c-4.1-3.2-10.4-1-15.2-2.9c-16.3-4.3-30.8-15.2-48.1-15.2c-0.6,0-1.2,0-1.8,0c0.5-8.8-2.7-19.2,4.8-25.9
		c3.7-4.4,3.6-10.8,6.9-15.1c0.4,3.1,0.3,6.3,1.4,9.3c9.8-12.6,23.7-20.9,37.1-28.9c-0.5-0.1-1.1-0.1-1.6-0.1c-3.3,0-6.3,1.6-9.6,2
		c-0.2-17.3-5.5-33.8-10.3-50.2c-1.3,0.3-2.5,0.8-3.8,1.3c2,13.1,3.8,26.4,4.8,39.6c-9.5,0.9-18.8,3.6-28,6.1
		c-2.5,0.8-5.1,1.2-7.6,1.2c-11.7,0-23.1-7.3-34.9-7.3c-0.1,0-0.3,0-0.4,0c1-14,3.5-27.9,5-41.8
		C328.9,357.5,328.6,357.5,328.3,357.5L328.3,357.5z M320.4,427.3c-0.6,0-1.2,0.2-1.8,0.6c-7.4,6.7-18.7,15.4-29.4,15.4
		c-4.2,0-8.4-1.4-12.1-4.8c-0.4,5.4,6.1,7.4,10.4,8.7c0.6,0,1.2,0.1,1.8,0.1c11.9,0,23.4-6.7,32.2-14.4
		C325,431.2,323.1,427.3,320.4,427.3L320.4,427.3z M395,427.4c-0.5,0-1,0.1-1.5,0.2c-4.4,5.7,7.6,9.8,10.8,12.8
		c5.4,3.5,13.6,6.8,20.8,6.8c6.1,0,11.6-2.3,14.2-8.8c-3.8,3.4-8.2,4.7-12.8,4.7c-8.5,0-17.3-4.8-23.5-10.4
		C400.7,430.7,398.3,427.4,395,427.4L395,427.4z M315.4,447.5c-0.4,0-0.7,0-1.1,0.1c-5.8,4.3-11,9.8-18.2,11.7
		c-1.7,0.9-3.4,1.2-5.1,1.2c-5.5,0-10.7-3.8-15.9-5c4.9,5.4,11.3,7.6,17.9,7.6c9.4,0,19.4-4.5,26.1-10.8
		C320.5,449.3,318,447.5,315.4,447.5L315.4,447.5z M398.6,447.7c-2.2,1.3-2.8,3.6-1,5.5c6.4,5.7,16.3,9.8,25.3,9.8
		c7,0,13.4-2.4,17.5-8.5c-4.8,2.6-9.9,5.9-15.3,5.9c-1.6,0-3.1-0.3-4.8-0.9C411.7,458.4,406.8,448.1,398.6,447.7L398.6,447.7z
		 M339,454.5c-0.4,0-0.9,0.1-1.4,0.3c-12,8.7-25.5,16.4-40.3,18.7c-1.4,0.3-2.7,0.4-4,0.4c-7.4,0-13.9-3.9-20.1-7.5
		c2.2,7,11.5,9.5,18.2,10.9c0.6,0,1.3,0,1.9,0c16.7,0,32.8-7.2,46.6-16.3C343.4,459.6,342.1,454.5,339,454.5L339,454.5z
		 M375.6,454.7c-6,4,3.5,9.4,6.8,10.8c11.1,5.8,24.6,11.9,37.6,11.9c6.3,0,12.4-1.5,18.1-5.1c1.6-1.4,5.7-5.7,4.8-5.7
		c-0.3,0-1.4,0.6-3.5,2.1c-5,3.6-10.7,5-16.6,5c-6.9,0-13.9-1.9-20.2-4.5C392.7,466.2,385.2,456.8,375.6,454.7L375.6,454.7z
		 M382.3,541.3c-6,3.6-13,4.2-19.7,5.4c-1.1,4.5-1.8,9.1-2.4,13.7c-2.3-3-1.7-9.5-3.1-13.6c-7-1.9-14.6-1-20.7-5.4
		c-1,14,6.3,31.3,21,35.2C374.1,576.1,382.7,556,382.3,541.3L382.3,541.3z M327.4,557.6c-7.6,16.9-1.6,36.5,10,49.9
		c3.5-2.8,7.9-6.1,12.4-6.1c1.3,0,2.5,0.3,3.8,0.8c2,1,4.5,6.9,6.6,6.9c0.6,0,1.3-0.5,1.8-1.9c1.6-4.1,4.5-5.6,7.8-5.6
		c4.6,0,9.9,2.9,13.3,5.8c8.4-12,13.4-27.8,9.7-42.5c-0.5-2.5,0.5-6.6-1.9-6.6c-0.4,0-0.8,0.1-1.3,0.3c-2.1,8.6-4.1,17.3-9.6,24.5
		c-1.6,0.7-3.6,2-5.4,2c-1,0-1.8-0.4-2.5-1.4c-0.6-0.9-1.2-1.2-1.8-1.2c-1.5,0-3.1,1.8-4.6,1.8c-0.5,0-1-0.2-1.5-0.7
		c-1.3-0.7-2.5-0.9-3.7-0.9c-2.7,0-5.3,1.1-7.9,1.1c-1.4,0-2.8-0.3-4.1-1.3c-1.2,1.5-2.7,2.2-4.2,2.2c-4.3,0-9-5.1-10-9.1
		C330.7,570.1,330.7,562.1,327.4,557.6L327.4,557.6z"/>
</g>
</svg>
