<?xml version="1.0" encoding="utf-8"?>
<!-- Generator: Adobe Illustrator 19.0.0, SVG Export Plug-In . SVG Version: 6.00 Build 0)  -->
<svg version="1.1" id="Слой_1" xmlns="http://www.w3.org/2000/svg" xmlns:xlink="http://www.w3.org/1999/xlink" x="0px" y="0px"
	 viewBox="0 0 556.964 675.369" style="enable-background:new 0 0 556.964 675.369;" xml:space="preserve">
<style type="text/css">
	.st0{display:none;fill:#FEFEFE;}
	.st1{fill:#011320;}
	.st2{fill:#FFFFFF;}
	.st3{fill:#919196;}
	.st4{fill:#A3B9C4;}
	.st5{fill:#C6D0DA;}
	.st6{fill:#465461;}
	.st7{fill:#C8D5DB;}
	.st8{fill:#BDF935;}
	.st9{fill:#76A708;}
	.st10{fill:#FAFFAD;}
	.st11{fill:#253039;}
	.st12{fill:#C6D4DA;}
	.st13{fill:#FEFEFE;}
	.st14{fill:#FDFEFE;}
	.st15{fill:#F8FEAC;}
	.st16{fill:#A2B8C3;}
	.st17{fill:#F6FDAB;}
	.st18{fill:#FAFBFB;}
	.st19{fill:#6A9A09;}
	.st20{fill:#5A7726;}
	.st21{fill:#7B959F;}
	.st22{fill:#476C0E;}
	.st23{fill:#92A1AC;}
	.st24{fill:#9E9DA1;}
	.st25{fill:#91979A;}
	.st26{fill:#5F6324;}
	.st27{fill:#C7D5DB;}
	.st28{fill:#BACBD3;}
	.st29{fill:#091925;}
	.st30{fill:#BCF835;}
	.st31{fill:#7DA12A;}
</style>
<g>
	<path class="st0" d="M-17.884,783.476c0-280.8,0-561.6,0-842.4c198.56,0,397.12,0,595.68,0c0,280.8,0,561.6,0,842.4
		C379.236,783.476,180.676,783.476-17.884,783.476z"/>
	<path class="st1" d="M487.178,566.929c-4.716-2.525-9.707-4.435-14.642-6.456c-18.569-7.605-37.631-13.727-57.044-18.771
		c-1.54-0.4-3.085-0.804-4.722-0.366c-11.674,3.119-23.149,6.803-33.762,12.698c-6.841,3.8-13.502,7.922-20.292,11.816
		c-18.499,10.61-37.196,20.849-56.653,29.63c-14.72,6.643-29.746,12.44-45.453,16.345c-14.103,3.507-28.418,5.322-42.949,5.442
		c-19.736,0.162-39.036-2.502-57.74-8.971c-16.415-5.677-31.382-13.875-44.343-25.549c-2.676-2.411-5.245-4.936-7.656-7.608
		c-0.908-1.006-1.645-1.172-2.88-0.539c-12.314,6.305-24.327,13.112-35.711,20.997c-0.693,0.48-1.282,1.212-2.494,1.223
		c-0.346-1.826,0.006-3.625,0.136-5.397c0.572-7.812,1.206-15.619,1.829-23.427c0.706-8.846,1.431-17.69,2.132-26.537
		c0.72-9.088,1.419-18.177,2.131-27.265c0.736-9.407,1.477-18.814,2.214-28.222c0.705-9.008,1.4-18.016,2.111-27.024
		c0.749-9.484,1.517-18.967,2.27-28.451c0.519-6.534,1.028-13.07,1.538-19.605c0.349-4.463,0.688-8.926,1.044-13.388
		c0.109-1.371-0.031-2.676-0.472-4.006c-1.633-4.925-3.168-9.883-4.754-14.824c-0.736-2.291-0.768-2.306-2.555-0.779
		c-12.224,10.447-20.857,23.258-25.395,38.741c-3.271,11.162-4.138,22.598-3.82,34.166c0.233,8.486,1.349,16.881,2.599,25.262
		c0.33,2.212,0.716,4.415,1.059,6.625c0.061,0.392,0.077,0.799,0.049,1.194c-0.037,0.524-0.329,0.895-0.852,1.024
		c-0.536,0.132-0.942-0.106-1.203-0.559c-0.198-0.343-0.371-0.709-0.497-1.084c-2.732-8.177-5.846-16.236-7.862-24.636
		c-2.619-10.916-4.226-21.962-3.907-33.229c0.011-0.38,0.001-0.76,0.001-1.134c-0.805-0.111-0.812,0.477-0.988,0.865
		c-5.182,11.461-9.465,23.22-11.7,35.648c-1.148,6.381-1.744,12.825-2.19,19.288c-0.07,1.011,0.385,2.57-1.293,2.6
		c-1.424,0.025-1.293-1.43-1.437-2.39c-1.534-10.206-2.876-20.423-2.524-30.792c0.8-23.547,8.798-44.271,23.998-62.288
		c7.158-8.486,15.082-16.093,24.133-22.527c1.889-1.342,3.696-2.801,5.522-4.23c2.12-1.658,2.113-1.67,1.246-4.138
		c-0.688-1.959-1.394-3.912-2.071-5.875c-0.859-2.489-0.791-2.621,1.672-3.786c3.554-1.68,7.319-2.744,11.095-3.765
		c6.478-1.751,13.037-3.152,19.634-4.373c1.994-0.369,3.805-1.049,5.522-2.164c6.435-4.179,12.894-8.317,19.168-12.74
		c3.389-2.389,5.499-5.416,6.012-9.621c0.611-4.998,1.405-9.975,1.796-14.998c0.185-2.372-0.069-2.659-2.468-2.611
		c-6.477,0.129-12.377,2.21-17.876,5.508c-5.443,3.264-9.804,7.674-13.306,12.935c-2.082,3.127-3.15,6.633-3.378,10.361
		c-0.152,2.472-0.096,4.956-0.131,7.435c-0.01,0.716-0.197,1.519-1.048,0.879c-3.888-2.922-8.533-2.962-13.022-3.499
		c-4.841-0.579-9.718-0.809-14.591-1.02c-1.781-0.077-3.043,0.394-3.756,2.209c-3.798,9.671-7.491,19.37-9.448,29.628
		c-0.556,2.917-0.893,5.845-0.8,8.818c0.017,0.531,0.225,1.168-0.452,1.472c-0.642,0.289-1.04-0.196-1.455-0.558
		c-9.467-8.248-19.057-16.363-27.718-25.487c-3.038-3.2-5.786-6.617-7.766-10.601c-1.763-3.548-2.412-7.268-1.737-11.175
		c0.356-2.061-0.127-3.979-0.812-5.862c-2.295-6.311-4.179-12.743-5.796-19.257c-0.038-0.155-0.116-0.3-0.153-0.454
		c-1.833-7.568,1.22-12.742,8.803-14.922c2.573-0.74,3.726-2.128,3.954-4.778c0.034-0.398,0.01-0.8,0.028-1.199
		c0.174-4.049,1.208-5.561,5.077-6.872c6.124-2.074,12.211-4.24,18.227-6.609c7.653-3.013,15.161-6.355,22.647-9.755
		c3.046-1.383,4.976-3.476,6.033-6.673c2.346-7.092,5.77-13.678,9.924-19.883c5.645-8.431,13.112-14.53,22.745-17.927
		c4.439-1.565,8.809-3.323,13.211-4.993c1.143-0.434,2.095-1.142,2.947-2.007c5.746-5.834,12.62-9.735,20.511-11.837
		c2.259-0.602,4.011-1.868,5.595-3.511c9.16-9.502,18.456-18.87,28.106-27.878c7.484-6.986,15-13.939,23.065-20.264
		c2.58-2.024,5.247-3.928,8.051-5.634c1.162-0.707,2.382-1.287,3.643-1.802c2.16-0.882,4.061-0.636,5.667,1.131
		c1.29,1.418,1.279,1.774,3.104-0.181c9.223-9.881,18.475-19.737,27.677-29.638c13.778-14.824,27.199-29.966,40.228-45.455
		c2.527-3.004,2.562-2.998,4.576,0.279c3.188,5.189,5.969,10.571,7.736,16.43c0.113,0.374,0.142,0.795,0.562,1.041
		c0.553,0.115,0.807-0.325,1.098-0.682c12.095-14.848,23.18-30.369,31.725-47.583c3.846-7.748,6.962-15.772,9.104-24.163
		c0.079-0.309,0.195-0.609,0.277-0.918c0.198-0.745,0.544-1.345,1.409-1.406c1.019-0.073,1.353,0.629,1.625,1.434
		c1.484,4.39,2.77,8.836,3.761,13.364c4.026,18.396,1.767,36.203-5.037,53.581c-1.515,3.871-3.287,7.626-5.119,11.354
		c-0.416,0.847-0.818,1.702-1.232,2.565c0.781,0.49,1.114-0.148,1.531-0.414c11.084-7.08,22.665-13.103,35.393-16.696
		c4.873-1.376,9.843-2.09,14.905-2.085c1.192,0.001,2.396,0.145,3.573,0.349c2.081,0.359,2.511,1.066,2.068,3.178
		c-0.282,1.343-0.879,2.566-1.532,3.756c-2.514,4.581-5.573,8.763-9.209,12.521c-0.332,0.343-0.655,0.696-0.953,1.067
		c-0.088,0.11-0.078,0.3-0.111,0.453c0.679,0.425,1.23-0.075,1.803-0.274c24.563-8.554,49.753-14.662,75.316-19.32
		c2.042-0.372,4.067-0.836,6.107-1.22c0.783-0.148,1.588-0.29,2.377-0.262c1.301,0.047,1.842,0.966,1.305,2.131
		c-0.232,0.503-0.591,0.948-0.902,1.413c-5.882,8.773-13.253,16.201-21.078,23.203c-3.574,3.199-7.28,6.251-10.926,9.37
		c-0.132,0.512-0.004,0.747,0.556,0.519c11.885-5.01,24.187-8.148,37.157-8.351c7.243-0.114,14.344,0.809,21.317,2.75
		c0.689,0.192,1.381,0.409,2.031,0.705c1.468,0.67,1.759,1.407,1.01,2.851c-1.226,2.367-2.955,4.361-4.888,6.176
		c-3.877,3.64-8.336,6.437-13.008,8.924c-0.629,0.335-1.237,0.712-1.836,1.1c-0.104,0.067-0.11,0.286-0.22,0.606
		c27.301,5.835,52.334,17.053,76.057,31.73c-0.868,1.154-1.959,1.207-2.908,1.433c-6.214,1.484-12.557,2.345-18.763,3.885
		c-3.641,0.904-7.32,1.653-10.978,2.489c-0.536,0.123-1.051,0.34-1.567,0.511c0.07,1.061,0.94,1.035,1.558,1.288
		c7.928,3.246,15.58,7.015,22.598,11.973c5.19,3.666,9.929,7.81,13.603,13.057c2.452,3.502,4.35,7.257,5.151,11.501
		c0.478,2.533,0.097,3.276-2.375,4.119c-3.523,1.201-7.156,1.573-10.871,1.328c-2.943-0.194-5.832-0.767-8.641-1.292
		c-0.612,0.787-0.03,1.189,0.235,1.602c9.193,14.347,14.127,30.119,15.871,46.99c0.659,6.374,1.026,12.749,0.758,19.152
		c-0.067,1.595-0.194,3.196-0.427,4.774c-0.223,1.51-0.924,1.917-2.357,1.421c-0.9-0.311-1.743-0.792-2.598-1.224
		c-5.391-2.727-10.086-6.448-14.691-10.299c-1.702-1.424-3.337-2.945-5.647-4.446c2.964,29.948-2.52,57.727-17.549,83.616
		c4.742,1.043,9.251,2.014,13.751,3.029c4.907,1.106,9.775,2.361,14.483,4.161c1.043,0.399,2.082,0.816,3.096,1.284
		c2.314,1.068,2.364,1.145,1.467,3.621c-4.865,13.438-9.35,27.004-13.732,40.605c-1.03,3.196-1.248,6.364-0.947,9.684
		c0.817,8.997,1.498,18.007,2.213,27.014c0.74,9.326,1.453,18.654,2.181,27.981c0.716,9.166,1.429,18.333,2.155,27.499
		c0.91,11.474,1.837,22.946,2.747,34.42c0.499,6.293,1.082,12.582,1.438,18.883c0.447,7.914,1.901,15.662,3.147,23.47
		c3.339,20.911,0.437,40.931-10.143,59.517c-5.751,10.102-13.563,18.347-23.296,24.743c-0.454,0.298-1.023,0.468-1.44,1.338
		c1.697,0.186,3.289,0.456,4.888,0.513c2.716,0.097,5.436,0.097,8.15-0.177c1.272-0.128,2.554-0.179,3.832-0.211
		c1.886-0.046,2.033,0.149,1.283,1.849c-2.693,6.104-6.594,11.298-11.804,15.486c-6.22,5-13.38,8.051-21.051,9.957
		c-9.483,2.355-19.118,2.827-28.818,1.892c-17.247-1.663-33.474-6.662-48.518-15.282c-11.44-6.554-21.4-14.836-28.92-25.81
		c-5.044-7.36-8.261-15.47-9.804-24.248c-0.093-0.529-0.303-1.089,0.006-1.656c0.884-0.283,1.491,0.323,2.15,0.708
		c12.596,7.35,26.213,10.884,40.761,10.587c17.64-0.359,33.414-5.729,46.538-17.924c9.348-8.687,15.662-19.286,19.872-31.235
		c0.291-0.827,0.618-1.641,0.943-2.455c0.471-1.177,0.936-0.25,1.401,0.013c1.504,0.834,2.072,2.382,2.759,3.787
		c4.364,8.926,5.402,18.405,4.483,28.169c-0.253,2.688-0.516,5.393-1.305,7.996c-0.066,0.213-0.121,0.436-0.206,0.648
		c-0.119,0.297-0.023-0.104-0.08,0.209c-0.005,0.026,0.062-0.116,0.135-0.164c2.579-5.375,4.785-10.856,5.369-16.838
		c0.57-5.838,0.456-11.653-0.803-17.413c-0.315-1.439-1.117-2.436-2.429-3.075c-1.797-0.875-3.552-1.837-5.385-2.642
		C488.34,567.977,487.533,567.76,487.178,566.929z"/>
	<path class="st2" d="M491.825,608.234c0.97-5.249,1.607-10.52,1.542-15.879c-0.101-8.448-2.052-16.366-6.354-23.671
		c-0.198-0.336-0.328-0.711-0.49-1.067c0.218-0.23,0.437-0.459,0.655-0.689c2.954,0.975,5.668,2.488,8.468,3.806
		c1.019,0.48,1.522,1.35,1.748,2.424c2.651,12.622,1.624,24.72-5.106,36.011C491.435,609.203,491.623,608.722,491.825,608.234z"/>
	<path class="st3" d="M430.47,99.992c-0.295,0.437-0.736,0.736-1.109,0.262c-0.216-0.275,0.076-0.716,0.554-0.781
		C429.974,99.78,430.224,99.883,430.47,99.992z"/>
	<path class="st4" d="M332.962,31.318c-0.304,5.443-1.406,10.76-2.627,16.049c-5.562,24.091-15.627,46.254-28.773,67.099
		c-12.086,19.164-26.435,36.508-42.232,52.696c-1.059,1.086-2.109,2.197-3.03,3.398c-0.955,1.244-0.878,2.5-0.003,3.506
		c0.905,1.04,2.397,1.28,3.7,0.444c0.797-0.511,1.473-1.218,2.181-1.862c2.417-2.198,4.417-4.821,6.977-6.875
		c3.005,2.174,4.477,7.934,2.996,11.73c-0.291,0.745-0.621,1.471-1.038,2.155c-1.955,3.321-4.598,6.111-7.039,9.053
		c-2.648,3.192-5.453,6.259-7.999,9.528c-4.766,6.121-8.071,12.972-9.711,20.585c-0.612,2.842-0.436,5.663,0.465,7.791
		c0.945-0.241,0.923-1.164,1.276-1.799c1.657-3.818,4.502-6.8,7.231-9.794c11.099-12.179,23.391-22.919,37.825-31.082
		c19.644-11.109,40.597-18.329,62.903-21.707c13.628-2.064,27.314-2.901,41.084-2.267c1.341,0.062,2.69,0.126,4.005,0.453
		c6.407,0.892,12.814,1.781,19.22,2.677c4.507,0.631,9.058,0.963,13.522,1.893c12.006,2.499,22.158,8.397,30.911,16.871
		c10.02,9.701,16.3,21.585,20.413,34.755c2.159,6.913,3.638,13.943,3.111,21.215c-0.755,10.419-3.775,20.214-8.682,29.429
		c-2.067,3.882-4.385,7.616-6.749,11.322c-6.919,10.847-13.613,21.829-19.906,33.053c-0.161,0.156-0.346,0.291-0.423,0.516
		l-0.027,0.023c-1.355-0.184-1.111-1.387-1.297-2.205c-2.119-9.302-5.184-18.274-9.553-26.757
		c-4.694-9.116-10.467-17.482-17.326-25.154c-4.378-4.897-9.303-9.171-14.031-13.676l-0.011-0.009
		c-0.231-0.076-0.358-0.27-0.506-0.441c-5.348-4.498-11.057-8.531-17.437-11.349c-6.27-2.769-12.799-4.951-19.553-6.334
		c-11.494-2.353-23.105-3.026-34.816-2.627c-18.721,0.638-36.947,4.181-54.947,9.115c-3.935,1.079-3.927,1.085-5.735-2.523
		c-2.016-4.024-4.353-7.828-7.684-10.927c-1.833-1.706-3.847-3.113-6.316-3.764c-2.188-0.577-2.577-0.187-2.002,2.06
		c0.039,0.154,0.107,0.301,0.161,0.452c0.952,2.526,0.132,4.866-0.828,7.156c-1.304,3.113-3.013,6.001-5.235,8.553
		c-3.56,4.088-7.238,8.043-11.143,11.834c-7.047,6.842-14.372,13.403-21.149,20.523c-14.654,15.395-27.638,32.049-37.918,50.708
		c-1.888,3.428-3.905,6.778-5.787,10.207l-0.007,0.014c-0.343,0.216-0.216,0.686-0.505,0.931
		c-8.049,13.496-14.38,27.805-20.105,42.403c-1.108,2.825-2.322,5.608-3.486,8.41c-4.252,11.198-15.679,15.252-27.145,14.022
		c-5.58-0.598-10.951-2.113-16.129-4.288c-1.352-0.568-1.348-0.579-2.356-1.962c1.799-0.64,3.669,0.075,5.418-0.43
		c4.575-0.19,9.008-1.275,13.47-2.168c0.75-0.15,1.65-0.266,1.84-1.269c0.188-0.988-0.551-1.425-1.214-1.871
		c-1.095-0.737-2.364-1.271-3.204-2.685c1.367-0.332,2.374,0.228,3.39,0.456c4.797,1.076,7.032-0.766,6.729-5.724
		c-0.132-2.152-0.532-4.287-0.46-6.454c0.06-1.827,0.304-2.052,2.148-1.999c0.798,0.023,1.597,0.101,2.391,0.192
		c4.876,0.558,8.768-1.168,11.73-5.044c2.053-2.687,3.529-5.701,4.903-8.769c3.536-7.895,6.064-16.148,8.641-24.383
		c4.272-13.645,8.511-27.302,13.955-40.541c4.297-10.449,9.272-20.536,16.069-29.64c3.852-5.159,8.567-9.487,13.135-13.963
		c1.885-1.847,3.758-3.707,5.613-5.584c0.361-0.365,0.954-0.645,0.786-1.328c-0.453-0.515-0.919-0.155-1.326-0.004
		c-14.959,5.54-28.505,13.333-39.537,25.052c-6.41,6.809-10.95,14.715-13.476,23.746c-0.021,0.077-0.028,0.158-0.051,0.234
		c-0.689,2.341-0.688,2.34-2.884,1.432c-0.738-0.305-1.47-0.63-2.223-0.892c-4.484-1.561-8.13-0.451-11.025,3.342
		c-0.829,1.086-1.507,2.27-2.029,3.525c-0.466,1.121-1.193,1.38-2.286,0.993c-2.187-0.774-4.426-1.363-6.71-1.768
		c-11.903-2.111-22.679,0.639-32.443,7.608c-7.969,5.688-13.86,13.184-18.616,21.646c-0.274,0.487-0.534,0.983-0.783,1.484
		c-0.879,1.765-2.276,2.612-4.265,2.45c-3.425-0.28-6.854-0.514-10.275-0.834c-3.897-0.364-7.784-0.84-11.682-1.194
		c-2.821-0.256-3.336,0.062-4.192,2.771c-3.295,10.431-6.995,20.74-9.614,31.378c-0.038,0.155-0.058,0.315-0.103,0.468
		c-0.49,1.666-0.756,1.759-1.984,0.608c-1.166-1.094-2.31-2.213-3.437-3.347c-5.128-5.166-10.199-10.385-14.864-15.982
		c-1.59-1.907-3.089-3.875-4.263-6.075c-1.235-2.315-1.888-4.706-1.396-7.374c0.389-2.11,0.414-4.283,1.036-6.359
		c0.378,0.241,0.244,0.649,0.323,0.988c-0.041-0.298,0.047-0.582,0.092-0.872c1.738-11.33,5.12-22.169,9.759-32.63
		c2.083-4.697,4.844-8.941,8.559-12.528c2.725-1.103,5.446-2.216,8.177-3.306c7.269-2.901,14.307-6.303,21.365-9.676
		c7.772-3.714,14.22-9.055,20.171-15.178c9.75-10.032,19.052-20.465,28.252-30.995c2.628-3.007,5.205-6.064,8.214-8.714
		c6.424-5.656,13.981-8.819,22.357-10.187c5.513-0.9,11.027-1.796,16.542-2.689c0.472-0.076,0.95-0.174,1.424-0.165
		c0.905,0.017,1.118,0.419,0.691,1.214c-0.509,0.948-1.602,1.585-1.598,2.821c1.076,0.592,2.116-0.027,3.128,0.137
		c7.272,0.19,13.163-2.615,18.527-7.518c10.431-9.537,20.955-18.977,31.511-28.378c3.536-3.149,7.122-6.261,10.361-9.734
		c0.013,1.748-0.219,3.502,0.087,5.243c0.358,2.033,1.074,3.863,3.115,4.791c1.416,0.644,2.08,0.222,2.199-1.314
		c0.091-1.176-0.271-2.399,0.368-3.517c0.966-0.044,1.595-0.697,2.224-1.293c5.791-5.492,11.706-10.849,17.478-16.362
		c5.429-5.186,10.885-10.346,16.08-15.757c16.481-17.169,32.651-34.619,46.392-54.135c7.094-10.075,13.661-20.463,18.117-32.038
		c0.488-1.269,0.913-2.556,1.338-3.846C332.042,32.061,332.026,31.259,332.962,31.318z"/>
	<path class="st4" d="M163.011,548.72c6.569-2.444,13.323-4.282,20.061-6.177c0.69-0.194,1.386-0.368,2.079-0.551
		c1.839-0.636,2.599,0.7,3.384,1.9c3.865,5.91,8.812,10.706,14.763,14.489c2.166,1.377,4.421,2.565,6.833,3.446
		c0.98,0.358,1.99,0.665,2.454,1.745c1.619,1.01,3.494,1.116,5.291,1.357c13.873,1.864,27.404,0.59,40.552-4.405
		c17.329-6.583,34.229-14.182,51.221-21.562c19.707-8.559,39.523-16.83,59.972-23.497c14.07-4.587,28.34-8.352,42.961-10.7
		c13.635-2.19,27.345-2.94,41.107-1.557c17.952,1.804,34.633,7.338,49.678,17.454c15.915,10.701,25.153,25.523,27.531,44.603
		c2.974,23.863-3.785,44.64-20.175,62.1c-11.332,12.071-25.624,17.289-42.14,16.363c-1.749-0.098-3.483-0.462-5.224-0.695
		c-0.908-0.121-1.818-0.226-2.788-0.123c0.809,1.124,1.909,1.715,3.014,2.286c5.579,2.882,11.603,4.024,17.795,4.318
		c2.856,0.135,5.486,0.689,8.01,2.094c3.391,1.889,7.164,2.665,10.97,3.24c0.834,0.126,1.683,0.181,2.488,0.636
		c-0.672,0.874-1.63,0.892-2.427,1.154c-9.687,3.174-19.577,5.271-29.809,5.535c-23.992,0.619-45.558-6.076-64.301-21.292
		c-3.055-2.48-5.8-5.268-8.046-8.517c-0.494-0.715-1.103-1.387-1.119-2.35c0.672-0.495,1.39-0.048,2.081-0.104
		c11.713,1.315,23.402,2.831,35.174,3.628c7.833,0.53,15.636,0.607,23.457-0.056c2.384-0.202,4.707-0.994,7.137-0.717
		c1.141-0.098,2.208,0.319,3.31,0.487c5.967,0.912,11.602-0.236,17.03-2.687c9.176-4.144,15.435-11.179,19.759-20.086
		c2.892-5.958,4.432-12.293,5.095-18.868c0.394-3.907,0.459-7.816,0.356-11.734c-0.02-0.776-0.003-1.552,0.193-2.366
		c3.327,4.807,5.153,10.157,5.966,15.866c0.818,5.738,0.29,11.443-0.816,17.153c0.945-0.098,1.17-0.736,1.457-1.291
		c4.276-8.285,6.912-16.969,6.793-26.411c-0.122-9.635-3.115-18.356-8.022-26.51c-8.546-14.199-21.059-23.338-36.588-28.636
		c-8.883-3.031-18.054-3.924-27.376-4.05c-23.583-0.319-45.943,4.99-67.456,14.351c-14.016,6.099-27.362,13.493-40.644,21.007
		c-13.837,7.828-27.598,15.798-41.963,22.645c-17.588,8.383-35.817,14.905-54.963,18.711c-14.007,2.785-28.14,4.207-42.425,3.472
		c-22.617-1.164-43.985-6.699-63.519-18.505c-7.835-4.735-15.029-10.296-21.648-16.61c-0.521-0.497-1.051-0.988-1.526-1.527
		c-0.822-0.934-0.794-1.231,0.361-1.724c6.677-2.846,13.287-5.864,20.199-8.127c3.133,2.617,5.539,5.925,8.358,8.844
		c6.266,6.489,13.22,12.051,21.067,16.472c10.677,6.016,22.198,9.385,34.365,10.539c12.205,1.158,24.228-0.192,36.114-2.974
		c21.651-5.068,41.377-14.601,60.255-26.085c6.282-3.822,12.249-8.125,18.437-12.086c1.29-0.903,2.676-1.664,3.94-2.541
		c-0.033,0.022-0.09,0.047-0.119,0.065c-1.375,0.852-2.71,1.705-4.056,2.546c-2.966,2.061-6.223,3.613-9.409,5.264
		c-10.378,5.378-21.043,10.129-32.072,14.02c-12.033,4.245-24.355,7.329-37.075,8.585c-17.292,1.706-34.003-0.298-49.656-8.346
		c-9.553-4.911-17.495-11.74-23.706-20.529C164.402,550.245,163.603,549.574,163.011,548.72z"/>
	<path class="st2" d="M455.442,397.556c-0.046-4.237-0.096-8.473-0.137-12.71c-0.025-2.559-0.017-5.119-0.056-7.678
		c-0.033-2.204-0.271-2.452-2.408-2.745c-3.558-0.488-3.763-0.325-3.757,3.18c0.008,4.799-0.002,9.599,0.08,14.398
		c0.023,1.376-0.348,2.204-1.716,2.738c-7.806,3.05-15.581,6.178-23.369,9.274c-0.139,0.055-0.307,0.035-0.641,0.067
		c-0.457-0.636-0.307-1.418-0.325-2.187c-0.299-12.873-0.3-25.748-0.319-38.623c-0.003-2.03-0.558-3.698-2.011-5.178
		c-2.537-2.586-4.01-5.739-4.471-9.35c-0.225-1.761-0.053-2.01,1.709-1.878c5.979,0.449,11.958,0.909,17.932,1.428
		c6.051,0.526,12.096,1.121,18.142,1.695c10.103,0.959,20.199,1.983,30.267,3.26c10.621,1.347,21.242,2.702,31.866,4.029
		c4.248,0.531,4.438,0.748,3.383,4.929c-0.676,2.677-1.828,5.154-3.818,7.094c-1.501,1.463-2.003,3.121-1.995,5.164
		c0.054,14.239,0.039,28.478,0.048,42.717c0,0.4,0.039,0.801,0.016,1.199c-0.022,0.378,0.123,0.844-0.301,1.081
		c-0.556,0.31-0.865-0.19-1.221-0.465c-5.375-4.159-10.738-8.333-16.124-12.479c-2.027-1.56-4.043-3.149-6.177-4.552
		c-1.786-1.174-2.549-2.609-2.504-4.78c0.107-5.197,0.011-10.398-0.018-15.597c-0.013-2.414-0.114-2.505-2.547-2.775
		c-0.239-0.026-0.476-0.061-0.716-0.078c-2.282-0.16-2.526,0.022-2.531,2.277c-0.014,5.68,0.007,11.359,0.025,17.039
		c0.044,13.518,0.095,27.036,0.137,40.554c0.001,0.396-0.075,0.792-0.115,1.188c-0.883,0.634-1.852,0.345-2.776,0.198
		c-6.77-1.072-13.505-2.356-20.283-3.384c-2.965-0.449-3.066-0.685-3.067-3.693c-0.001-10.921,0.005-21.841-0.01-32.762
		C455.633,399.286,455.824,398.396,455.442,397.556z"/>
	<path class="st5" d="M365.139,425.394c0.267,2.956,0.161,5.917-0.079,8.862c-0.374,4.589-2.623,8.152-6.363,10.772
		c-1.608,1.126-3.292,2.143-4.942,3.209c0.577,0.897,1.373,0.702,2.054,0.788c1.584,0.199,3.177,0.306,4.73,0.731
		c3.04,0.831,4.277,2.195,4.618,5.331c0.173,1.587,0.301,3.187,0.309,4.782c0.057,11.195,0.1,22.391,0.095,33.586
		c-0.001,2.664-0.133,5.312,1.93,7.341c-0.606,0.777-1.359,0.796-2.017,1.028c-5.946,2.103-11.908,4.161-17.825,6.344
		c-1.926,0.711-3.822,1.024-5.859,0.844c-2.707-0.24-5.425-0.346-8.135-0.545c-1.608-0.118-1.797-0.305-1.623-1.921
		c0.344-3.211,1.535-6.091,4.067-8.16c1.72-1.406,2.344-3.023,2.319-5.196c-0.104-9.115-0.093-18.232-0.124-27.349
		c-0.001-0.24,0.01-0.48-0.003-0.72c-0.08-1.445-0.384-1.708-1.761-1.221c-2.406,0.852-4.773,1.814-7.168,2.701
		c-1.871,0.693-3.764,1.328-5.637,2.014c-2.006,0.734-2.189,0.97-2.188,3.147c0.003,5.357,0.048,10.715,0.059,16.072
		c0.004,1.759,0.012,3.521-0.082,5.276c-0.084,1.556,0.417,2.743,1.591,3.801c2.566,2.313,4.225,5.169,4.816,8.622
		c0.435,2.547,0.43,2.598-2.087,2.542c-9.751-0.218-19.497-0.708-29.255-0.559c-2.399,0.037-4.798,0.089-7.196,0.072
		c-1.556-0.011-1.678-0.142-1.539-1.653c0.313-3.395,1.621-6.389,4.216-8.611c1.768-1.514,2.309-3.285,2.289-5.494
		c-0.06-6.637-0.033-13.276-0.019-19.913c0.032-15.434,0.074-30.867,0.122-46.301c0.002-0.714,0.094-1.427,0.144-2.141
		c1.078-0.934,2.399-0.764,3.663-0.769c6.237-0.022,12.473,0.005,18.71-0.016c3.077-0.01,3.241-0.165,3.244-3.266
		c0.015-16.551-0.007-33.102,0.029-49.653c0.003-1.372-0.421-2.928,0.991-3.98c1.455,1.044,0.953,2.613,0.956,3.969
		c0.037,20.88,0.024,41.759,0.027,62.639c0,2.48,0.013,4.96,0.005,7.44c-0.006,1.804,0.764,2.44,2.543,2.044
		c2.51-0.558,4.945-1.291,7.264-2.425c3.678-1.798,5.452-4.702,5.539-8.802c0.048-2.279-0.569-4.646,0.615-6.833
		c0.462-0.361,1.007-0.525,1.57-0.485c7.954,0.564,15.939,0.58,23.878,1.394C364.2,424.794,364.71,425.006,365.139,425.394z"/>
	<path class="st2" d="M365.139,425.394c-4.905-0.23-9.818-0.334-14.704-0.889c-0.708-0.08-1.431-0.066-2.146-0.051
		c-3.338,0.069-6.661-0.124-9.975-0.505c-1.087-1.123-0.774-2.553-0.776-3.874c-0.026-14.8-0.019-29.6-0.011-44.399
		c0.001-1.845-0.17-3.666-0.395-5.497c-0.266-2.169-1.483-3.218-3.521-3.636c-3.096-0.635-6.22-0.307-9.332-0.38
		c-0.952-0.023-1.924,0.181-2.833-0.279c-0.857,0.778-0.474,1.804-0.474,2.711c-0.003,17.196,0.032,34.392,0.046,51.588
		c0.003,3.663,0.363,3.288-3.386,3.292c-7.678,0.007-15.356,0.003-23.034,0.003c-0.282-0.941-0.149-1.907-0.148-2.86
		c0.008-20.621,0.002-41.243,0.076-61.864c0.009-2.49-0.586-4.414-2.588-6.077c-2.572-2.137-3.596-5.188-4.022-8.448
		c-0.142-1.088,0.197-1.7,1.364-1.697c0.319,0.001,0.639-0.024,0.958-0.024c16.462-0.014,32.925-0.03,49.381,0.487
		c4.392,0.138,8.758,0.542,13.029,1.735c6.829,1.908,10.631,6.355,11.656,13.341c0.408,2.777,0.645,5.569,0.665,8.351
		c0.142,19.34,0.192,38.681,0.267,58.022C365.237,424.761,365.173,425.078,365.139,425.394z"/>
	<path class="st2" d="M165.876,419.517c0.014-7.993,0.022-15.987,0.043-23.98c0.014-5.357,0.081-10.715,0.052-16.071
		c-0.013-2.434,0.398-4.71,1.358-6.98c3.079-7.277,6.091-14.58,9.353-21.78c1.167-2.576,2.727-3.776,5.601-3.877
		c6.069-0.214,12.127-0.732,18.19-1.117c3.67-0.233,7.342-0.429,11.01-0.682c4.249-0.293,8.473-0.116,12.654,0.681
		c6.613,1.261,10.324,5.155,11.449,11.836c0.828,4.92,0.687,9.881,0.666,14.834c-0.039,9.034-0.126,18.068-0.197,27.101
		c-0.004,0.478-0.047,0.956-0.071,1.434c-0.434,3.809-0.123,7.63-0.181,11.445c-0.058,3.825-0.072,7.653,0.016,11.477
		c0.036,1.558-0.627,2.208-2.063,2.258c-4.936,0.173-9.849,0.677-14.774,0.999c-1.432,0.094-2.856,0.246-4.284,0.355
		c-1.884,0.143-3.816,0.53-5.618-0.464c-0.933-1.273-0.672-2.756-0.674-4.169c-0.02-15.492-0.012-30.984-0.012-46.476
		c0-0.639,0.005-1.278-0.003-1.917c-0.053-3.969-1.387-5.212-5.287-4.723c-2.378,0.298-4.772,0.366-7.15,0.689
		c-1.695,0.23-2.4,1.018-2.336,2.652c0.013,0.318-0.018,0.638-0.016,0.958c0.115,16.924-0.834,33.838-0.496,50.765
		c0.027,1.34,0.203,2.729-0.542,3.978c-2.664,1.642-5.734,1.163-8.619,1.552c-4.984,0.672-9.988,1.225-14.99,1.768
		c-3.051,0.331-3.265,0.169-3.221-2.977C165.778,425.895,165.538,422.702,165.876,419.517z"/>
	<path class="st5" d="M123.242,437.852c6.085,4.665,12.408,8.998,18.658,13.434c6.504,4.617,9.907,11.13,11.084,18.894
		c0.733,4.835,0.869,9.722,0.803,14.595c-0.103,7.594,0.177,15.194-0.308,22.783c-0.174,2.72-0.576,5.396-1.273,8.034
		c-1.371,5.192-4.368,9.18-8.85,12.084c-3.508,2.273-7.278,4.002-11.258,5.249c-16.083,5.04-31.85,10.953-47.51,17.165
		c-0.576,0.228-1.123,0.641-2.019,0.503c-0.389-0.987-0.226-2.082-0.042-3.133c0.682-3.899,1.954-7.6,4.289-10.824
		c1.29-1.781,1.782-3.663,1.777-5.82c-0.027-13.995-0.008-27.991,0.013-41.987c0.001-0.86-0.178-1.744,0.164-2.589
		c0.766-0.221,1.201,0.341,1.699,0.692c7.056,4.973,14.08,9.992,21.176,14.909c1.77,1.227,2.583,2.665,2.413,4.823
		c-0.144,1.828-0.064,3.677-0.018,5.516c0.036,1.442,0.206,1.591,1.532,1.198c2.679-0.792,5.342-1.639,7.997-2.508
		c2.645-0.865,3.971-2.627,4.103-5.509c0.301-6.559,0.24-13.112-0.175-19.654c-0.408-6.44-3.29-11.546-8.66-15.277
		c-6.827-4.743-13.525-9.671-20.108-14.75c-3.896-3.006-6.772-6.743-8.054-11.578c0.782-0.8,1.837-0.92,2.849-1.13
		c8.924-1.857,17.899-3.441,26.863-5.088C121.343,437.708,122.288,437.67,123.242,437.852z"/>
	<path class="st5" d="M209.174,426.836c4.395,0.13,8.735-0.599,13.101-0.817c3.662-0.183,7.302-0.713,10.981-0.653
		c2.256,0.037,2.286-0.036,2.295-2.25c0.024-6.557,0.013-13.114,0.046-19.671c0.004-0.849-0.289-1.772,0.386-2.529
		c0.038,3.116,0.117,6.232,0.105,9.347c-0.036,9.437-0.21,18.875-0.135,28.311c0.064,8.044-2.902,14.421-9.52,19.093
		c-2.745,1.938-5.487,3.868-8.413,5.524c-7.649,4.33-15.267,8.717-22.971,12.947c-2.26,1.241-3.124,2.84-3.088,5.389
		c0.098,6.877,0.034,13.758-0.079,20.635c-0.032,1.918,0.426,3.336,2.037,4.53c2.575,1.908,3.792,4.682,4.223,7.802
		c0.296,2.142,0.212,2.253-1.913,2.675c-8.929,1.773-17.85,3.58-26.706,5.69c-3.489,0.831-6.975,1.679-10.525,2.534
		c-0.482-1.225-0.279-2.334-0.018-3.387c0.832-3.357,1.934-6.59,4.46-9.139c1.118-1.128,1.593-2.578,1.625-4.146
		c0.054-2.638,0.065-5.278,0.085-7.917c0.122-16.555,0.258-33.109,0.356-49.664c0.058-9.757,0.051-19.514,0.079-29.272
		c0.002-0.793-0.114-1.607,0.292-2.352c0.322,3.184,0.103,6.376,0.132,9.565c0.025,2.738-0.013,2.65,2.614,2.259
		c3.14-0.468,6.304-0.77,9.459-1.135c4.02-0.466,8.041-0.932,12.064-1.378c0.712-0.079,1.435-0.059,2.152-0.084
		c0.968,0.878,0.719,2.061,0.727,3.144c0.036,5.027-0.013,10.055,0.028,15.082c0.02,2.485,0.374,2.724,2.654,1.873
		c3.858-1.441,7.345-3.468,10.185-6.52c1.306-1.403,2.02-2.977,2.129-4.924c0.155-2.784,0.581-5.55,0.482-8.353
		C208.473,428.26,208.49,427.431,209.174,426.836z"/>
	<path class="st5" d="M274.886,370.678c0.033,0.796,0.097,1.593,0.096,2.389c-0.008,16.226-0.013,32.451-0.041,48.677
		c-0.028,16.065-0.073,32.129-0.126,48.194c-0.025,7.671-0.06,15.343-0.151,23.014c-0.022,1.886,0.52,3.37,1.971,4.645
		c2.307,2.028,3.516,4.711,4.025,7.705c0.416,2.45,0.279,2.572-2.158,2.706c-4.546,0.25-9.09,0.546-13.638,0.773
		c-6.624,0.33-13.227,0.913-19.828,1.538c-0.636,0.06-1.275,0.096-1.914,0.132c-2.371,0.136-2.546-0.059-2.109-2.315
		c0.654-3.382,2.054-6.406,4.591-8.767c1.478-1.375,1.971-2.947,1.962-4.909c-0.037-8.072,0.008-16.145,0.043-24.218
		c0.065-14.705,0.143-29.41,0.223-44.114c0.003-0.554,0.09-1.107,0.138-1.661c3.079-1.423,6.422-0.972,9.638-1.205
		c4.216-0.305,8.461-0.034,12.692-0.494c3.327-0.362,3.363-0.216,3.365-3.713c0.01-14.877-0.019-29.754,0.041-44.631
		C273.71,373.131,273.061,371.466,274.886,370.678z"/>
	<path class="st6" d="M410.337,244.38c1.502,0.483,2.496,1.694,3.615,2.668c19.728,17.168,32.666,38.392,38.109,64.064
		c0.084,0.398,0.161,0.779,0.482,1.06c-2.678,4.985-5.382,9.957-8.013,14.966c-0.59,1.123-1.411,1.414-2.546,1.269
		c-3-0.382-6.001-0.754-9.001-1.138c-3.156-0.403-6.311-0.823-9.468-1.222c-4.894-0.618-9.787-1.246-14.686-1.826
		c-3.4-0.402-6.81-0.714-10.212-1.095c-4.113-0.46-8.224-0.938-12.332-1.435c-1.196-0.145-1.406-0.471-0.875-1.588
		c1.904-4.009,2.736-8.313,3.586-12.616c0.188-0.951,0.211-1.909-0.024-2.853c-0.279-1.121,0.097-1.786,1.201-2.214
		c2.995-1.159,5.172-3.361,7.216-5.753c5.149-6.024,9.579-12.553,13.722-19.29c0.923-1.502,1.209-1.567,2.427-0.108
		c3.888,4.656,7.721,9.363,10.833,14.591c3.564,5.988,6.679,12.18,8.169,19.064c0.063,0.293,0.269,0.555,0.459,0.931
		c0.767-0.357,0.781-0.973,0.794-1.581c0.146-6.708-0.113-13.378-1.251-20.02c-1.202-7.022-3.07-13.839-5.557-20.503
		c-3.226-8.642-7.866-16.379-14.476-22.883C411.729,246.102,410.734,245.493,410.337,244.38z"/>
	<path class="st7" d="M317.646,552.122c-6.223,4.731-12.805,8.929-19.436,13.048c-8.009,4.975-16.339,9.372-24.864,13.385
		c-12.223,5.753-24.874,10.28-38.142,12.987c-6.238,1.272-12.494,2.249-18.887,2.43c-2.125,0.06-4.279,0.473-6.422,0.353
		c-11.408-0.64-22.606-2.226-33.239-6.802c-7.526-3.239-14.573-7.25-20.933-12.376c-5.395-4.348-10.317-9.226-14.736-14.59
		c-0.859-1.043-1.956-1.896-2.421-3.231c5.447-2.409,11.127-4.187,16.743-6.136c2.546-0.884,5.06-1.883,7.703-2.471
		c1.217-0.187,1.709,0.744,2.194,1.535c2.923,4.758,6.884,8.634,11.018,12.241c5.798,5.057,12.423,8.89,19.628,11.691
		c6.343,2.466,12.873,4.07,19.633,4.864c5.069,0.595,10.155,1.22,15.238,0.832c5.294-0.404,10.591-0.819,15.862-1.683
		c9.306-1.525,18.37-3.905,27.26-6.953c7.618-2.613,15.081-5.635,22.372-9.088c3.826-1.812,7.653-3.617,11.421-5.542
		c3.188-1.629,6.341-3.328,9.509-4.996C317.644,551.458,317.765,551.67,317.646,552.122z"/>
	<path class="st2" d="M377.207,426.344c-0.061-4.95-0.143-9.9-0.179-14.85c-0.124-17.015-0.266-34.03-0.304-51.045
		c-0.005-2.329-0.588-4.102-2.358-5.689c-2.532-2.271-3.692-5.344-4.242-8.65c-0.298-1.793-0.049-2.079,1.852-1.994
		c5.586,0.252,11.172,0.495,16.755,0.812c6.22,0.354,12.436,0.772,18.652,1.193c2.129,0.144,2.204,0.249,1.974,2.278
		c-0.361,3.184-1.418,6.125-3.84,8.291c-1.661,1.486-2.156,3.163-2.135,5.295c0.15,15.258,0.229,30.517,0.325,45.775
		c0.005,0.877-0.044,1.755-0.068,2.632c0.339,5.734,0.045,11.475,0.159,17.211c0.034,1.711-1.09,1.713-2.256,1.616
		c-5.084-0.42-10.167-0.875-15.241-1.397c-2.221-0.229-4.47-0.105-6.667-0.592C378.781,427.041,377.879,427.016,377.207,426.344z"/>
	<path class="st2" d="M274.886,370.678c-0.735,0.829-0.399,1.835-0.401,2.756c-0.03,15.491-0.032,30.982-0.04,46.473
		c0,0.319,0.001,0.639,0,0.958c-0.012,2.609-0.026,2.444-2.61,2.668c-5.252,0.456-10.523,0.19-15.763,0.535
		c-2.701,0.178-5.401,0.283-8.103,0.398c-0.358-2.147-0.071-4.3-0.066-6.45c0.046-19.821,0.076-39.642,0.163-59.463
		c0.008-1.829-0.523-3.179-1.952-4.362c-2.57-2.128-3.984-4.948-4.322-8.276c-0.227-2.239-0.18-2.317,2.047-2.399
		c5.429-0.202,10.859-0.394,16.291-0.527c6.07-0.149,12.141-0.24,18.212-0.332c3.011-0.045,3.007,0.024,2.531,2.888
		c-0.503,3.022-1.746,5.634-4.009,7.71c-1.403,1.287-1.893,2.869-1.89,4.723C274.979,362.211,274.919,366.444,274.886,370.678z"/>
	<path class="st6" d="M212.585,563.572c-0.489-0.258-0.955-0.58-1.47-0.764c-10.149-3.638-17.718-10.42-23.537-19.321
		c-0.604-0.924-1.185-1.696-2.427-1.494c3.068-0.766,6.131-1.547,9.203-2.296c10.99-2.68,22.088-4.834,33.23-6.76
		c6.899-1.193,13.807-2.374,20.748-3.276c5.126-0.666,10.274-1.224,15.437-1.639c6.125-0.491,12.248-0.786,18.386-1.004
		c3.025-0.107,6.058-0.353,9.08-0.239c2.9,0.11,5.798,0.397,9.16,0.385c-1.577,1.681-3.214,2.353-4.674,3.224
		c-10.017,5.975-20.21,11.639-30.779,16.582c-12.662,5.923-25.529,11.327-39.235,14.421c-3.886,0.877-7.804,1.565-11.791,1.786
		C213.439,563.203,212.949,563.171,212.585,563.572z"/>
	<path class="st6" d="M179.431,327.013c0.412-1.903,1.508-3.499,2.394-5.177c6.568-12.454,14.14-24.261,22.83-35.35
		c3.941-5.029,8.093-9.875,12.376-14.611c9.062-10.02,19.037-19.118,28.747-28.485c3.964-3.824,7.758-7.831,10.966-12.332
		c2.049-2.875,3.675-5.965,4.468-9.462c0.271-1.196,0.206-2.375,0.279-3.564c3.581,6.896,6.34,14.102,7.909,21.721
		c0.641,3.112,1.107,6.262,1.222,9.465c0.112,3.112-1.033,5.59-3.19,7.702c-4.005,3.921-8.396,7.376-13.052,10.47
		c-9.441,6.273-18.995,12.376-28.415,18.68c-9.15,6.124-18.229,12.366-26.868,19.2c-6.295,4.98-11.587,10.95-16.369,17.39
		C181.643,324.119,180.855,325.811,179.431,327.013z"/>
	<path class="st5" d="M377.207,426.344c3.238,0.287,6.484,0.467,9.717,0.854c2.043,0.244,4.111,0.377,6.166,0.53
		c3.009,0.225,6.005,0.507,8.993,0.91c1.196,0.161,1.404-0.021,1.409-1.516c0.018-4.705-0.01-9.411-0.003-14.116
		c0.001-0.872-0.117-1.756,0.149-2.615c0.438,0.74,0.279,1.558,0.282,2.346c0.068,18.069,0.11,36.138,0.196,54.207
		c0.035,7.434,0.172,14.867,0.237,22.301c0.02,2.262-0.01,2.304-2.087,2.71c-7.761,1.518-15.402,3.527-23.024,5.613
		c-0.459,0.126-0.897,0.37-1.424,0.119c-0.474-0.679-0.305-1.499-0.31-2.28c-0.122-20.386-0.237-40.773-0.346-61.159
		C377.149,431.614,376.953,428.978,377.207,426.344z"/>
	<path class="st8" d="M440.461,80.413c-1.692,1.933-3.724,3.491-5.666,5.149c-10.962,8.855-23.707,14.443-36.568,19.752
		c-21.993,9.078-44.72,15.934-67.709,21.967c-5.877,1.542-11.756,3.083-17.691,4.386c-0.909,0.199-2.107,1.139-2.824-0.421
		c6.238-6.676,13.335-12.298,21.04-17.177c13.87-3.774,27.621-7.898,40.902-13.469c10.102-4.238,20.038-8.827,29.329-14.645
		c4.499-2.818,9.561-3.462,14.489-4.671c6.361-1.561,12.801-2.744,19.327-3.421c1.295-0.134,2.541-0.079,3.788,0.291
		C440.022,78.493,440.694,79.126,440.461,80.413z"/>
	<path class="st8" d="M491.46,127.318c3.718,0.92,7.233,2.422,10.79,3.797c8.254,3.192,16.254,6.944,24.115,10.999
		c0.351,0.181,0.671,0.421,1.006,0.634c-0.438,1.373-1.698,1.08-2.598,1.072c-11.746-0.109-23.5,0.535-35.238-0.338
		c-2.076-0.154-4.157-0.018-6.235-0.079c-18.856-0.554-37.683-1.479-56.299-4.809c-5.279-0.944-10.492-2.192-15.372-4.523
		c-1.669-0.797-3.245-1.757-4.477-3.164c-1.983-2.266-1.877-5.034,0.217-6.962c5.288-2.064,10.75-3.452,16.37-4.229
		c6.736,0.913,13.161,3.179,19.8,4.531c11.906,2.426,23.849,4.44,36.057,4.297C483.591,128.498,487.492,127.597,491.46,127.318z"/>
	<path class="st9" d="M310.001,131.245c0.384,0.456,0.837,0.296,1.313,0.182c13.188-3.149,26.306-6.563,39.317-10.382
		c7.659-2.248,15.296-4.57,22.842-7.176c12.004-4.146,23.908-8.538,35.446-13.892c8.717-4.045,17.19-8.482,24.982-14.146
		c0.238-0.173,0.593-0.184,0.893-0.27c-2.037,2.5-4.616,4.422-7.179,6.285c-12.214,8.882-24.083,18.257-37.042,26.086
		c-19.706,11.906-40.617,20.894-63.115,25.98c-8.103,1.832-16.294,3.235-24.656,3.198c-3.396-0.015-3.489-0.176-1.889-3.295
		c1.945-3.792,4.384-7.245,7.153-10.471C308.686,132.623,309.355,131.943,310.001,131.245z"/>
	<path class="st9" d="M496.072,322.009c0.2-21.159,2.287-42.083,7.798-62.579c1.58-5.874,3.606-11.591,6.218-17.092
		c0.171-0.36,0.33-0.73,0.537-1.069c0.786-1.291,1.021-1.328,2.164-0.304c3.258,2.92,4.891,6.701,5.448,10.925
		c1.424,10.803,1.746,21.622,0.621,32.499c-1.821,17.598-7.301,33.967-15.995,49.314c-0.394,0.695-0.819,1.373-1.256,2.041
		c-0.529,0.808-1.267,1.107-2.253,1.036c-2.773-0.202-3.271-0.689-3.278-3.496C496.064,329.525,496.072,325.767,496.072,322.009z"/>
	<path class="st9" d="M407.369,123.945c-1.861,2.294-0.988,5.89,1.357,7.554c2.936,2.083,6.181,3.317,9.544,4.302
		c5.968,1.748,12.091,2.756,18.254,3.552c6.711,0.866,13.433,1.545,20.189,1.986c5.485,0.358,10.975,0.614,16.457,0.963
		c5.424,0.345,10.853,0.145,16.261,0.474c12.049,0.733,24.104,0.21,36.154,0.385c0.615,0.009,1.297,0.179,1.785-0.413
		c0.615,0.364,0.473,0.815-0.001,1.09c-0.468,0.272-1.032,0.402-1.57,0.528c-11.101,2.589-22.151,5.427-33.407,7.286
		c-5.19,0.857-10.429,1.35-15.69,1.714c-5.75,0.398-11.492,0.444-17.237,0.289c-9.343-0.252-18.611-1.351-27.805-2.99
		c-15.181-2.705-30.042-6.669-44.637-11.635c-0.887-0.302-2.196-0.309-2.389-1.306c-0.192-0.993,1.024-1.515,1.734-2.099
		C392.656,130.458,399.609,126.473,407.369,123.945z"/>
	<path class="st5" d="M455.442,397.556c0.674,0.757,0.383,1.68,0.386,2.528c0.038,10.948,0.044,21.896,0.072,32.845
		c0.007,2.914-0.206,2.463,2.376,2.861c6.205,0.956,12.375,2.112,18.578,3.071c1.647,0.255,3.277,0.617,4.916,0.93
		c0.054,3.995,0.125,7.991,0.159,11.986c0.059,6.797,0.095,13.595,0.14,20.392c0.041,6.157,0.081,12.315,0.122,18.472
		c0.003,0.4,0.023,0.8,0.008,1.2c-0.066,1.787-0.287,1.986-2.001,1.469c-5.591-1.688-11.278-2.94-17.048-3.826
		c-1.579-0.242-3.158-0.485-4.743-0.677c-2.506-0.305-2.524-0.292-2.54-2.728c-0.035-5.599-0.054-11.198-0.087-16.796
		c-0.057-9.517-0.017-19.036-0.205-28.55c-0.273-13.836-0.119-27.672-0.246-41.508C455.325,398.668,455.403,398.112,455.442,397.556
		z"/>
	<path class="st8" d="M161.064,297.2c3.016,2.066,3.603,1.82,3.967-1.69c0.478-4.613,0.922-9.215,2.63-13.598
		c3.849-9.884,10.25-17.802,18.529-24.297c0.112-0.088,0.291-0.089,0.447-0.132c0.555,0.332,0.141,0.682-0.031,0.958
		c-10.112,16.178-16.877,33.85-23.017,51.788c-4.061,11.862-7.959,23.779-11.954,35.663c-0.814,2.422-1.698,4.822-2.609,7.21
		c-1.146,3.007-3.345,4.548-6.587,4.664c-2.236,0.08-4.469,0.264-6.701,0.428c-2.949,0.217-4.469,1.441-5.39,4.268
		c-0.711,2.183-0.598,4.416-0.424,6.653c0.043,0.558,0.156,1.11,0.19,1.668c0.1,1.64-0.497,2.107-1.961,1.417
		c-1.805-0.851-3.547-1.835-5.334-2.727c-3.219-1.608-3.962-1.171-4.025,2.334c-0.016,0.873-0.002,1.746-0.002,2.895
		c-1.159-1.167-1.106-2.491-1.242-3.69c-0.584-5.175,0.099-10.213,1.916-15.082c3.308-8.861,8.34-16.436,15.909-22.345
		c11.616-9.069,20.132-20.46,24.76-34.581C160.333,298.399,160.475,297.774,161.064,297.2z"/>
	<path class="st6" d="M401.153,160.418c-5.752,0.005-11.505-0.074-17.254,0.032c-13.841,0.255-27.526,1.9-41.034,4.929
		c-15.825,3.548-30.933,9.069-45.193,16.815c-11.633,6.319-22.472,13.756-31.94,23.091c-6.036,5.951-12.035,11.928-16.922,18.905
		c-0.175,0.25-0.468,0.419-0.705,0.625c-0.023-2.985,1.371-5.555,2.568-8.131c2.506-5.393,6.074-10.11,9.808-14.704
		c6.138-7.552,12.648-14.799,18.477-22.606c0.905-1.213,2.034-2.238,3.25-3.17c1.845-1.413,3.543-3.018,4.936-4.87
		c0.784-1.042,1.651-1.61,2.911-1.845c5.635-1.049,11.245-2.241,16.89-3.227c6.2-1.083,12.342-2.429,18.501-3.703
		c9.372-1.939,18.621-4.363,27.801-7.051c3.299-0.966,6.503-2.229,9.486-3.96c1.368-0.794,2.639-0.84,4.099-0.251
		c9.963,4.017,20.455,6.056,30.913,8.234C398.885,159.768,400.132,159.694,401.153,160.418z"/>
	<path class="st2" d="M123.242,437.852c-1.949,0.948-4.116,1.035-6.183,1.375c-7.347,1.209-14.631,2.737-21.948,4.1
		c-1.476,0.275-2.916,0.754-4.436,0.776c-1.01-2.477-1.194-5.116-1.501-7.728c-0.626-5.333-0.584-10.692-0.577-16.049
		c0.015-12.877,0.035-25.753,0.063-38.63c0.005-2.468-0.025-4.944,0.714-7.759c0.344,1.716,0.54,3.077,0.897,4.394
		c0.868,3.195,2.397,6.083,4.279,8.791c4.741,6.822,10.42,12.756,17.103,17.679c2.078,1.531,3.003,3.279,2.9,5.863
		c-0.182,4.556,0.174,9.089,0.874,13.612c0.794,5.136,3.072,9.356,6.998,12.721C122.723,437.253,122.971,437.566,123.242,437.852z"
		/>
	<path class="st8" d="M504.909,177.122c1.217,0.679,2.429,1.367,3.36,2.44c0.816,1.586,0.771,3.393,1.315,5.058
		c1.893,5.788,5.273,10.691,9.032,15.368c5.053,6.289,10.777,11.92,16.964,17.085c1.048,0.875,1.886,1.937,2.8,2.933
		c2.022,4.788,3.195,9.826,4.226,14.887c1.545,7.586,2.434,15.253,2.205,23.014c-0.023,0.788,0.451,1.786-0.617,2.326
		c-4.05-2.964-6.891-7.062-10.036-10.852c-9.03-10.886-17.416-22.247-24.48-34.526c-4.827-8.391-9.202-16.99-10.909-26.669
		c-0.553-3.136-0.555-6.204,1.129-9.057C501.121,177.056,502.446,176.535,504.909,177.122z"/>
	<path class="st4" d="M204.912,139.194c0.634,1.799,0.247,3.744,0.808,5.559c0.301,0.972,0.773,1.742,1.85,1.894
		c0.889,0.125,1.736-0.001,2.338-0.782c0.505-0.654,0.531-1.458,0.681-2.223c1.188-2.215,3.075-3.888,4.746-5.669
		c6.556-6.985,13.009-14.066,19.481-21.125c7.981-8.706,16.033-17.348,23.931-26.132c3.895-4.332,7.827-8.637,11.84-12.859
		c2.367-2.49,4.413-5.279,7.011-7.541c0.981-0.855,0.816-2.242,1.685-3.104c0.73,1.711,0.689,3.557,0.858,5.352
		c0.362,3.821,0.104,7.651-0.036,11.477c-1.617,2.991-4.195,5.206-6.481,7.595c-9.362,9.788-18.642,19.655-28.134,29.321
		c-3.679,3.747-7.329,7.539-10.97,11.332c-0.831,0.866-1.741,1.619-2.74,2.274c-10.266,5.166-18.869,12.607-27.458,20.068
		c-2.456-1.195-4.506-0.234-6.544,1.137c-3.917,2.635-7.433,5.759-10.956,8.871c-6.998,6.181-13.402,12.975-20.024,19.543
		c-0.691,0.685-1.445,1.243-2.311,1.665c-1.912,0.092-3.784,0.676-5.72,0.457c-0.155-1.462,1.084-2.054,1.882-2.855
		c13.662-13.706,27.347-27.39,41.049-41.056C202.768,141.324,203.657,140.073,204.912,139.194z"/>
	<path class="st9" d="M41.141,384.056c2.609-3.246,5.654-6.075,8.804-8.755c13.787-11.727,28.715-21.84,44.34-30.937
		c11.262-6.557,22.216-13.57,32.367-21.768c5.924-4.784,11.312-10.102,15.755-16.333c2.524-3.54,4.541-7.318,5.831-11.476
		c0.071-0.228,0.178-0.447,0.236-0.678c0.824-3.335,3.247-5.255,7.443-2.244c-0.841,9.412-4.854,17.485-10.673,24.719
		c-7.825,9.728-17.86,16.855-28.246,23.528c-13.788,8.858-28.306,16.531-41.865,25.758c-6.683,4.548-13.066,9.483-18.8,15.208
		c-2.437,2.433-4.493,5.197-6.647,7.874c-1.482,1.841-3.283,3.297-5.401,4.287c-3.13,1.463-5.211,0.046-5.156-3.384
		C39.162,387.699,39.949,385.809,41.141,384.056z"/>
	<path class="st9" d="M504.909,177.122c-3.776,0.322-5.603,2.37-5.814,6.496c-0.209,4.068,0.87,7.916,2.108,11.708
		c2.493,7.635,6.265,14.669,10.369,21.536c6.896,11.54,14.887,22.294,23.479,32.612c3.012,3.617,6.094,7.174,9.144,10.759
		c-1.025,0.121-1.583-0.693-2.237-1.209c-16.843-13.284-31.851-28.328-43.87-46.182c-7.788-11.568-14.411-23.746-18.498-37.167
		c-0.906-2.976-1.691-5.986-2.234-9.054c-0.346-1.956-0.004-2.298,1.949-1.686c3.656,1.146,7.266,2.434,10.756,4.019
		C495.215,171.297,500.32,173.743,504.909,177.122z"/>
	<path class="st8" d="M392.057,281.936c-3.468,4.232-7.826,7.244-12.933,9.104c-2.712,0.988-5.529,0.791-8.175-0.384
		c-3.932-1.747-8.045-2.431-12.315-2.587c-7.333-0.269-14.662-0.646-21.992-1.014c-1.91-0.096-3.827-0.274-5.652-0.897
		c-1.467-0.501-1.654-1.01-0.688-2.26c1.998-2.584,3.956-5.213,6.483-7.333c7.382-5.095,15.676-7.7,24.48-8.79
		c7.471-0.925,14.753,0.527,21.993,2.129c2.267,0.502,4.394,1.428,6.294,2.815C392.85,275.126,393.669,278.119,392.057,281.936z"/>
	<path class="st8" d="M323.867,275.631c-3.442,3.603-7.275,6.575-12.528,6.65c-4.97,0.071-9.863-0.6-14.546-2.389
		c-1.489-0.569-2.944-1.213-4.317-2.04c-3.039-1.831-4.489-4.488-4.05-8.023c0.486-3.912,1.607-7.631,3.834-10.947
		c3.176-3.474,7.523-4.063,11.794-4.44c5.896-0.521,11.637,0.604,17.022,3.034c7.771,3.507,9.242,10.27,3.839,16.9
		c-0.202,0.248-0.388,0.506-0.572,0.766l0,0.001C324.19,275.313,324.045,275.488,323.867,275.631z"/>
	<path class="st8" d="M41.141,384.056c-0.359,2.037-1.478,3.875-1.461,6.023c0.023,2.936,1.449,3.964,4.125,2.752
		c2.135-0.967,4.019-2.358,5.405-4.259c5.913-8.101,13.434-14.491,21.493-20.306c9.921-7.159,20.516-13.25,31.014-19.497
		c9.605-5.716,19.195-11.457,28.07-18.302c6.804-5.247,13.089-11.011,17.905-18.178c3.636-5.411,6.343-11.257,7.26-17.808
		c0.13-0.927,0.184-1.913,0.964-2.615c1.316,0.806,1.374,1.881,0.992,3.3c-2.954,10.988-8.579,20.404-16.488,28.525
		c-6.066,6.229-13.05,11.277-20.31,15.981c-8.924,5.782-18.276,10.84-27.428,16.238c-9.649,5.691-19.063,11.717-27.524,19.127
		c-16.156,14.148-25.965,31.781-29.149,53.035c-0.556,3.709-0.774,7.469-1.148,11.205c-0.66,0.824,0.533,2.186-0.816,2.809
		c-1.809-9.715-1.454-19.405,0.346-29.075c0.529-2.84,1.661-5.499,2.542-8.233c0.562-1.745,1.278-3.45,1.435-5.305
		c-0.187-0.346-0.43-0.133-0.659-0.066c-1.614,0.978-2.702,2.467-3.817,3.928c-5.384,7.05-9.148,14.966-12.378,23.169
		c-2.957,7.509-5.526,15.147-7.679,22.924c-0.162,0.585-0.232,1.204-0.86,1.833c-0.368-1.049-0.211-1.908-0.199-2.735
		c0.237-16.064,5.069-30.767,13.201-44.491c3.883-6.552,8.359-12.667,13.442-18.337C39.95,385.107,40.422,384.451,41.141,384.056z"
		/>
	<path class="st7" d="M332.962,31.318c-1.099,2.804-1.967,5.689-3.179,8.458c-2.373,5.42-5.065,10.665-8.135,15.72
		c-5.052,8.319-10.637,16.275-16.605,23.951c-3.222,4.144-6.492,8.258-9.995,12.184c-3.921,4.395-7.665,8.947-11.554,13.37
		c-1.894,2.154-3.879,4.241-5.866,6.302c-7.539,7.822-14.847,15.879-22.794,23.293c-3.738,3.487-7.296,7.159-11.074,10.592
		c-3.657,3.323-7.269,6.696-10.924,10.021c-0.586,0.533-1.236,1.015-1.915,1.421c-0.606,0.362-0.524-0.307-0.689-0.587
		c0.285-4.81,2.472-8.672,5.949-11.88c4.167-3.846,8.423-7.6,12.51-11.53c20.285-19.502,39.831-39.698,57.191-61.898
		c7.875-10.07,15.307-20.46,21.468-31.696c1.648-3.005,3.125-6.104,4.68-9.16c0.309-0.25,0.212-0.7,0.476-0.972l0.001-0.003
		c1.202,0.128,0.603,0.929,0.567,1.519C333.036,30.721,332.999,31.02,332.962,31.318z"/>
	<path class="st6" d="M464.993,632.765c-1.731,0.914-3.676,1.069-5.537,1.28c-7.881,0.897-15.788,0.915-23.698,0.312
		c-2.787-0.213-5.579-0.323-8.367-0.583c-6.201-0.578-12.378-1.324-18.542-2.198c-2.686-0.381-5.367-0.807-8.05-1.206
		c-0.548-0.081-1.13-0.029-1.574-0.46c3.439-0.123,6.835,0.463,10.255,0.661c4.233,0.245,8.433,0.329,12.663-0.03
		c3.337-0.283,6.663-0.549,9.974-1.096c11.46-1.893,21.97-5.994,31.272-13.059c8.211-6.237,14.642-13.971,19.62-22.961
		c0.566-1.023,1.2-2.009,1.928-3.222c0.581,2.04-0.103,3.729-0.345,5.388c-1.273,8.732-3.508,17.19-7.756,25.015
		c-1.493,2.749-3.349,5.247-5.24,7.718c-1.078,1.409-2.523,2.122-4.375,2.038c-1.878-0.086-3.763-0.019-5.831-0.019
		C462.142,632.242,463.942,631.911,464.993,632.765z"/>
	<path class="st9" d="M524.021,184.889c-1.735-1.514-3.224-3.273-4.908-4.848c-8.753-8.186-19.056-13.841-29.905-18.641
		c-0.855-0.379-1.832-0.546-2.563-1.443c0.678-0.671,1.593-0.698,2.379-0.862c4.754-0.996,9.522-1.927,14.289-2.864
		c1.27-0.25,2.511-0.254,3.741,0.326c8.161,3.844,16.145,8.012,23.766,12.851c0.19,0.121,0.318,0.34,0.475,0.513
		c2.267,2.648,4.731,5.122,6.242,8.367c2.229,4.786,0.549,7.606-4.745,7.748C529.805,186.115,526.932,185.367,524.021,184.889z"/>
	<path class="st6" d="M115.115,386.114c-1.552,0.821-3.279,0.08-5.021,0.562c0.983,1.024,2.264,1.258,3.4,1.692
		c6.291,2.406,12.734,4.085,19.551,3.93c9.426-0.214,16.749-4.013,21.413-12.42c0.23-0.414,0.411-0.87,0.869-1.107
		c-0.534,2.838-1.843,5.408-2.871,8.067c-2.27,5.873-4.737,11.651-7.859,17.154c-2.868,5.053-6.011,4.992-10.499,4.425
		c-1.665-0.21-3.208-0.929-4.741-1.595c-10.337-4.497-19.101-11.145-26.608-19.504c-0.369-0.411-0.772-0.811-0.786-1.632
		c2.179-0.42,4.287,0.597,6.463,0.431C110.642,385.949,112.884,386.102,115.115,386.114z"/>
	<path class="st8" d="M378.073,72.736c-4.192,6.146-9.423,11.276-15.369,15.705c-0.227,0.296-0.675,0.183-0.899,0.484l-0.003,0.002
		c-5.881,3.847-12.299,6.234-19.27,7.165c-4.447,0.594-8.731-0.043-12.851-1.706c-1.173-0.473-2.639-0.843-2.858-2.507
		c6.002-4.663,12.322-8.841,19.022-12.435c1.02,0.135,1.818-0.492,2.694-0.818c7.619-2.836,15.35-5.307,23.237-7.282
		c1.328-0.332,2.675-0.436,4.031-0.298C376.88,71.155,377.875,71.427,378.073,72.736z"/>
	<path class="st2" d="M345.746,316.049c-1.275,0.793-1.978,1.861-2.843,2.741c-2.401,2.445-4.85,2.238-6.728-0.592
		c-0.736-1.109-1.375-2.295-2.73-3.506c-0.349,3.697-0.663,6.998-0.969,10.3c-0.044,0.477-0.001,0.965-0.076,1.436
		c-0.13,0.823-0.61,1.255-1.488,1.204c-1.277-0.075-2.559-0.079-3.832-0.192c-1.59-0.141-1.767-0.317-1.693-1.945
		c0.11-2.395,0.306-4.787,0.478-7.179c0.407-5.662,0.813-11.324,1.236-16.984c0.16-2.14,0.183-2.091,2.2-2.178
		c2.703-0.117,4.618,1.083,5.844,3.408c1.307,2.48,2.812,4.833,4.357,7.164c0.216,0.325,0.376,0.717,1.057,0.949
		c2.245-2.403,4.578-4.885,6.893-7.383c1.885-2.033,4.077-2.604,6.632-1.681c0.956,0.345,1.4,1.007,1.201,2.039
		c-1.287,6.676-1.807,13.462-2.858,20.171c-0.247,1.579-0.472,3.163-0.676,4.748c-0.116,0.904-0.619,1.24-1.477,1.142
		c-1.191-0.136-2.384-0.258-3.57-0.426c-1.746-0.247-1.915-0.398-1.76-2.126c0.213-2.386,0.561-4.76,0.793-7.145
		C345.858,318.79,346.225,317.544,345.746,316.049z"/>
	<path class="st9" d="M392.057,281.936c0.021-0.637-0.029-1.286,0.075-1.909c0.482-2.906-0.552-5.102-2.928-6.8
		c-2.539-1.815-5.453-2.662-8.42-3.264c-3.978-0.807-8.02-1.195-12.064-1.612c-8.813-0.909-16.858,1.666-24.788,4.942
		c-2.42,0.999-4.766,2.176-7.146,3.272c3.99-4.669,8.796-8.342,14.119-11.33c5.542-3.111,11.406-5.324,17.781-6.097
		c4.768-0.578,9.406,0.097,13.993,1.208c5.331,1.291,10.222,3.636,14.75,6.723c2.461,1.678,2.718,2.454,1.485,5.204
		C397.271,275.936,395.23,279.345,392.057,281.936z"/>
	<path class="st10" d="M440.461,80.413c-0.703-2.035-2.474-2.073-4.103-1.96c-2.775,0.192-5.556,0.503-8.296,0.985
		c-7.136,1.255-14.205,2.835-21.238,4.581c-1.109,0.275-2.125,0.672-3.079,1.257c-10.499,6.442-21.526,11.823-32.927,16.464
		c-12.424,5.057-25.115,9.279-38.181,12.347c-0.552,0.13-1.066,0.353-1.595-0.021c8.347-5.539,17.272-10.003,26.397-14.081
		c20.193-9.022,41.22-15.534,62.696-20.659c8.308-1.983,16.652-3.816,24.982-5.712c0.462-0.105,0.937-0.219,1.543,0.067
		c-0.504,1.602-1.954,2.403-2.968,3.531C442.679,78.338,441.543,79.351,440.461,80.413z"/>
	<path class="st2" d="M284.533,298.426c1.916,0,3.833,0.008,5.749-0.003c1.185-0.007,1.756,0.508,1.702,1.744
		c-0.045,1.035-0.012,2.078,0.058,3.113c0.085,1.256-0.494,1.666-1.698,1.691c-3.033,0.061-6.065,0.2-9.096,0.347
		c-1.528,0.074-1.657,0.264-1.675,1.927c-0.019,1.764,0.284,2.304,1.647,2.307c2.79,0.005,5.58-0.143,8.37-0.19
		c2.231-0.038,2.312,0.06,2.372,2.221c0.024,0.878,0.02,1.757,0.063,2.635c0.06,1.222-0.51,1.722-1.719,1.722
		c-2.636,0-5.272,0.041-7.907,0.108c-2.091,0.054-3.079,1.989-1.977,3.777c0.427,0.692,1.083,0.559,1.707,0.545
		c2.715-0.063,5.429-0.155,8.145-0.205c2.042-0.038,2.042-0.016,2.264,2.098c0.452,4.31,0.312,4.284-3.935,4.46
		c-4.222,0.175-8.458,0.203-12.67,0.686c-2.242,0.258-2.295,0.128-2.459-2.051c-0.594-7.884-1.194-15.768-1.798-23.651
		c-0.164-2.142-0.044-2.338,2.098-2.493C277.358,298.952,280.934,298.559,284.533,298.426z"/>
	<path class="st7" d="M224.463,150.84c-0.629,1.561-0.63,1.56-2.476,3.261c-4.216,3.884-8.391,7.814-12.657,11.642
		c-4.915,4.411-9.896,8.747-14.735,13.246c-3.027,2.814-6.127,5.564-9.25,8.272c-2.454,2.128-4.654,4.564-7.514,6.247
		c-3.799,2.235-7.784,3.607-12.234,3.42c-0.553-0.023-1.133,0.067-1.534-0.457c2.904-0.905,5.171-2.75,7.34-4.807
		c13.682-12.975,27.607-25.682,42.069-37.789c3.676-3.077,7.433-6.051,11.344-8.824c0.502-0.356,0.909-0.927,2.005-0.832
		C225.781,146.408,224.978,148.581,224.463,150.84z"/>
	<path class="st2" d="M322.464,326.897c-2.042,0.301-4.104-0.056-6.165-0.098c-0.882-0.018-1.35-0.566-1.634-1.463
		c-0.815-2.576-1.456-2.959-4.141-2.956c-1.596,0.001-3.193-0.069-4.789-0.105c-1.872-0.042-2.192,0.161-2.899,1.836
		c-1.012,2.397-1.012,2.393-3.689,2.376c-1.421-0.009-2.841-0.002-4.22-0.002c-0.306-1.091,0.298-1.735,0.57-2.449
		c3.016-7.909,6.316-15.701,9.699-23.458c1.136-2.606,3.164-3.418,5.811-2.355c1.091,0.438,1.422,1.469,1.804,2.418
		c2.268,5.627,4.53,11.256,6.746,16.904c0.932,2.377,1.748,4.8,2.61,7.205C322.405,325.415,322.772,326.066,322.464,326.897z"/>
	<path class="st10" d="M491.46,127.318c-1.543,1.187-3.448,1.169-5.217,1.378c-5.554,0.655-11.115,0.703-16.711,0.185
		c-4.208-0.39-8.39-0.876-12.57-1.476c-7.739-1.111-15.359-2.769-22.922-4.711c-3.462-0.889-6.991-1.555-10.3-2.977
		c7.807-1.466,15.683-1.764,23.593-1.325c14.412,0.799,28.424,3.713,42.144,8.118C490.154,126.727,490.799,127.046,491.46,127.318z"
		/>
	<path class="st8" d="M439.554,102.396c6.738-2.556,13.713-4.119,20.871-4.834c1.812-0.181,3.623-0.621,5.469-0.346
		c3.489,0.441,6.886,1.262,10.061,2.786c1.572,0.755,3.206,1.626,2.849,3.874c-3.198,2.279-6.712,3.928-10.401,5.229
		c-7.799,2.481-15.574,2.299-23.301-0.289c-2.053-0.687-4.064-1.569-5.42-3.373C438.99,104.523,438.046,103.473,439.554,102.396z"/>
	<path class="st9" d="M324.341,275.142c0.276-1.367,1.335-2.329,1.848-3.582c0.82-2.005,1.482-3.984,1.151-6.235
		c-0.351-2.394-1.614-4.12-3.46-5.507c-3.222-2.42-7.035-3.385-10.872-4.156c-4.743-0.954-9.498-0.924-14.228,0.296
		c-2.356,0.607-4.386,1.865-6.521,2.925c2.352-5.488,6.552-8.481,12.433-9.188c6.193-0.745,12.389-1.341,18.625-0.459
		c2.539,0.359,5.052,0.823,7.369,1.969c3.729,1.843,5.041,4.557,4.222,8.628c-0.126,0.623-0.275,1.256-0.521,1.839
		C332.145,266.983,328.793,271.474,324.341,275.142z"/>
	<path class="st11" d="M119.051,345.655c-0.002,1.445-0.528,2.341-1.024,3.235c-2.194,3.951-3.567,8.208-4.252,12.632
		c-0.847,5.469-0.831,10.928,1.421,16.168c0.681,1.585,0.385,2.12-1.334,2.551c-5.799,1.454-11.06,0.263-15.793-3.337
		c-0.504-0.383-0.925-0.882-1.349-1.36c-0.427-0.481-0.475-1.07-0.028-1.521c2.625-2.647,3.364-6.072,3.959-9.545
		c0.239-1.396,0.936-2.325,2.249-2.84c3.186-1.249,5.214-3.863,7.375-6.313c1.699-1.926,3.043-4.072,4.178-6.381
		C115.322,347.175,117.191,346.639,119.051,345.655z"/>
	<path class="st9" d="M326.822,91.878c3.201,2.748,7.139,3.457,11.12,3.686c5.578,0.322,10.873-1.137,16.019-3.198
		c2.002-0.802,3.937-1.734,5.862-2.697c0.628-0.314,1.197-0.823,1.979-0.742c-2.21,2.258-4.951,3.717-7.782,4.979
		c-6.195,2.76-12.3,5.696-18.145,9.136c-5.995,3.529-12.646,5.202-19.249,7.019c-1.576,0.434-3.132,1.175-4.991,0.831
		C314.646,102.809,319.326,96.225,326.822,91.878z"/>
	<path class="st2" d="M263.79,299.944c5.177-0.541,4.222,0.256,4.635,4.391c0.124,1.243-0.44,1.714-1.632,1.752
		c-1.433,0.046-2.864,0.183-4.294,0.305c-1.78,0.152-2.103,0.445-1.941,2.229c0.33,3.652,0.762,7.295,1.145,10.943
		c0.25,2.38,0.521,4.758,0.721,7.142c0.135,1.62,0.037,1.717-1.611,1.974c-1.023,0.16-2.063,0.212-3.092,0.339
		c-1.954,0.241-2.132,0.129-2.374-1.885c-0.684-5.697-1.346-11.397-2.017-17.096c-0.274-2.333-0.306-2.38-2.665-2.184
		c-1.43,0.119-2.856,0.297-4.278,0.492c-1.224,0.168-1.758-0.327-1.816-1.558c-0.044-0.951-0.307-1.89-0.393-2.842
		c-0.127-1.408,0.105-1.708,1.475-1.885c3.004-0.389,6.014-0.733,9.02-1.106C257.679,300.582,260.672,300.091,263.79,299.944z"/>
	<path class="st2" d="M220.905,302.688c0.837,3.464,1.54,6.952,2.115,10.466c0.304,1.858-0.415,3.627-0.516,5.453
		c-0.036,0.65-0.672,0.882-1.18,1.062c-2.703,0.954-5.389,1.998-8.26,2.334c-6.016,0.705-12.037,1.373-18.056,2.047
		c-0.389,0.044-0.788,0.006-1.169,0.006c-0.372-0.72,0.19-1.059,0.531-1.439c2.461-2.744,5.245-5.132,8.227-7.286
		c5.43-3.923,10.876-7.823,16.326-11.717C219.486,303.212,219.997,302.649,220.905,302.688z"/>
	<path class="st10" d="M538.38,220.007c-2.052-0.976-3.507-2.716-5.164-4.169c-4.429-3.884-8.694-7.945-12.533-12.435
		c-3.994-4.67-7.774-9.486-10.324-15.127c-1.246-2.756-2.366-5.577-2.089-8.714c3.796,2.392,7.03,5.458,10.154,8.628
		c8.491,8.614,14.853,18.625,19.33,29.847c0.147,0.368,0.236,0.758,0.352,1.138l0.065,0.11
		C538.24,219.526,538.31,219.766,538.38,220.007z"/>
	<path class="st6" d="M231.782,134.563c0.148-0.581,0.631-0.91,1.013-1.305c5.501-5.68,11.029-11.334,16.511-17.033
		c8.194-8.519,16.367-17.058,24.527-25.61c2.091-2.191,3.928-4.625,6.273-6.575c-0.165,1.654-0.214,3.331-0.526,4.956
		c-0.367,1.909-1.312,3.544-2.728,4.952c-9.687,9.631-19.338,19.298-29.001,28.953c-2.825,2.823-5.691,5.608-8.462,8.484
		C237.287,133.567,234.944,135,231.782,134.563z"/>
	<path class="st8" d="M291.259,283.311c3.3,1.928,5.829,4.63,7.934,7.709c-0.363,0.683-0.903,0.476-1.326,0.476
		c-8.554-0.002-17.084,0.579-25.62,1.013c-2.312,0.118-4.621,0.318-6.931,0.48c-0.994,0.148-2.37,0.671-2.824-0.291
		c-0.452-0.96,0.76-1.823,1.529-2.478c5.931-5.054,12.496-8.595,20.565-8.525C286.949,281.714,289.192,282.126,291.259,283.311z"/>
	<path class="st4" d="M103.737,213.266c-10,11.656-20.31,22.409-31.609,32.558c-0.366-0.803-0.303-1.412-0.132-1.975
		c0.393-1.298,0.762-2.614,1.297-3.856c5.01-11.627,13.1-20.305,24.696-25.565C99.648,213.675,101.382,213.019,103.737,213.266z"/>
	<path class="st9" d="M439.554,102.396c-0.605,0.89-0.263,1.687,0.302,2.408c0.747,0.954,1.686,1.678,2.775,2.237
		c3.538,1.818,7.344,2.702,11.259,2.941c4.46,0.272,8.933,0.213,13.325-0.862c0.375-0.092,0.792-0.014,1.189-0.015
		c-4.513,2.187-8.925,4.022-14.301,3.573c-11.373-0.95-22.775-0.837-33.973,1.988c-1.078,0.272-2.191,0.416-3.295,0.566
		c-1.097,0.149-2.204,0.23-3.318,0.342C414.943,113.319,431.93,104.729,439.554,102.396z"/>
	<path class="st8" d="M524.021,184.889c0.743-0.836,1.599-0.354,2.432-0.215c2.196,0.366,4.379,0.859,6.63,0.707
		c0.477-0.032,0.965-0.002,1.432-0.088c3.161-0.585,4.238-2.619,2.995-5.612c-1.306-3.142-3.429-5.725-5.609-8.276
		c-0.337-0.394-1.25-0.654-0.604-1.484c5.174,3.365,10.064,7.08,14.212,11.687c2.156,2.394,3.893,5.071,4.995,8.115
		c0.619,1.71,0.386,2.045-1.379,2.497c-1.968,0.503-3.977,0.494-5.961,0.298c-3.501-0.346-6.96-1.006-10.317-2.07
		C529.438,189.368,526.49,187.493,524.021,184.889z"/>
	<path class="st7" d="M204.912,139.194c-0.161,1.228-1.132,1.885-1.909,2.663c-14.158,14.169-28.324,28.33-42.482,42.499
		c-0.616,0.617-1.333,1.15-1.753,1.946c-1.068,0.214-2.127,0.662-3.202,0.229c-0.294-0.8,0.311-1.091,0.655-1.471
		c13.382-14.758,27.22-29.066,41.972-42.471c1.598-1.452,3.228-2.873,5.065-4.021C204.016,138.095,204.8,137.829,204.912,139.194z"
		/>
	<path class="st6" d="M164.488,185.845c9.765-10.126,19.554-20.224,30.669-28.919c1.39-1.087,2.871-2.035,4.413-2.876
		c2.305-1.257,2.97-1.149,4.753,0.579c-8.331,7.183-16.56,14.475-24.415,22.185c-1.816,1.783-3.906,3.331-5.536,5.277
		c-2.257,2.693-5.166,3.555-8.45,3.736C165.446,185.855,164.966,185.841,164.488,185.845z"/>
	<path class="st9" d="M473.505,332.599c1.469-3.189,3.129-5.81,4.681-8.484c2.962-5.103,6.1-10.097,9.431-14.97
		c0.27-0.395,0.552-0.781,0.825-1.174c0.234-0.337,0.516-0.674,0.955-0.559c0.469,0.122,0.466,0.582,0.475,0.981
		c0.046,2.003-0.076,4.043-0.643,5.921c-1.788,5.915-2.16,12.052-3.117,18.096c-0.277,1.748-0.499,2.021-2.366,1.769
		C480.439,333.733,477.148,333.168,473.505,332.599z"/>
	<path class="st7" d="M35.343,273.208c0.275,0.145,1.064,0.178,0.499,0.643c-4.729,3.891-7.238,9.219-9.595,14.642
		c-3.217,7.402-5.467,15.121-7.328,22.958c-0.695,2.926-1.303,5.874-1.964,8.872c-0.506-0.675-0.067-1.432-0.344-2.073
		c0.53-4.277,1.031-8.558,1.597-12.831c1.059-7.997,2.188-15.984,3.215-23.985c0.281-2.188,1.167-3.771,3.319-4.518
		C28.278,275.689,31.809,274.445,35.343,273.208z"/>
	<path class="st12" d="M279.284,67.211c0.152,1.634-0.56,2.793-1.696,3.974c-4.421,4.594-8.78,9.251-13.037,13.996
		c-3.352,3.736-6.745,7.432-10.153,11.117c-3.786,4.095-7.547,8.214-11.335,12.308c-3.571,3.859-7.087,7.768-10.665,11.622
		c-3.849,4.145-7.678,8.312-11.493,12.488c-2.845,3.115-5.754,6.176-8.526,9.359c-0.517,0.594-1.029,1.233-1.789,1.567
		c-0.288-1.9,0.886-3.167,2.002-4.402c2.301-2.546,4.685-5.017,7.012-7.54c14.555-15.784,29.364-31.335,43.718-47.305
		c4.748-5.283,9.365-10.682,14.069-16.005C277.88,67.835,278.138,66.766,279.284,67.211z"/>
	<path class="st9" d="M291.259,283.311c-1.989-0.121-3.864-0.88-5.871-0.962c-7.052-0.286-13.073,2.336-18.597,6.435
		c-1.517,1.126-2.974,2.306-4.225,3.838c1.025,0.571,1.933,0.064,2.752,0.366c-1.362,0.537-3.257,1.032-4.004,0.05
		c-0.902-1.186,0.842-2.31,1.616-3.346c1.666-2.23,3.526-4.324,5.08-6.626c2.866-4.247,6.8-5.814,11.743-5.047
		C284.077,278.689,287.945,280.414,291.259,283.311z"/>
	<path class="st13" d="M142.145,416.14c5.841-2.019,8.669-6.748,11.637-11.42c0.651,6.884,0.637,13.686,0.2,20.514
		C152.45,424.756,145.23,419.224,142.145,416.14z"/>
	<path class="st11" d="M129.596,313.18c-0.26-1.487-0.312-3.171-0.002-4.753c0.475-2.423,0.383-4.885,0.817-7.308
		c0.914-5.106,1.103-5.039,5.262-3.474c1.411,0.531,2.805,1.106,4.204,1.669c1.001,0.403,1.287,1.006,0.755,2.053
		c-0.689,1.355-1.516,2.613-2.413,3.826c-2.175,2.942-4.453,5.794-7.53,7.877C130.432,313.243,130.183,313.465,129.596,313.18z"/>
	<path class="st6" d="M271.113,179.656c0.301-1.457,0.706-2.902,0.881-4.374c0.424-3.558-0.906-6.635-2.84-9.511
		c2.086-2.717,4.446-5.19,6.847-7.623c1.183-1.199,2.202-0.862,2.668,0.851c0.749,2.756,0.751,5.532-0.212,8.218
		C276.806,171.821,274.427,176.021,271.113,179.656z"/>
	<path class="st14" d="M251.567,284.846c-1.129,1.254-1.999,2.174-2.815,3.141c-0.717,0.85-1.586,1.659-2.018,2.648
		c-1.642,3.753-4.996,4.877-8.513,5.656c-3.331,0.738-6.719,1.222-10.133,1.827C229.678,294.987,246.052,285.653,251.567,284.846z"
		/>
	<path class="st15" d="M378.073,72.736c-0.705-0.873-1.603-1.173-2.73-1.149c-3.48,0.076-6.743,1.162-10.003,2.166
		c-5.708,1.759-11.358,3.705-17.048,5.524c-0.766,0.245-1.578,0.979-2.447,0.166c8.758-4.801,17.81-8.828,27.773-10.407
		c1.727-0.274,3.47-0.485,5.214-0.601c1.321-0.088,1.751,0.656,1.067,1.809C379.376,71.125,378.688,71.908,378.073,72.736z"/>
	<path class="st16" d="M8.999,307.794c-1.339-4.325-2.677-8.655-3.473-13.117c-0.563-3.154,2.201-6.404,5.414-6.534
		c1.089-0.044,0.775,0.785,0.732,1.354c-0.281,3.65-0.51,7.307-0.916,10.943c-0.274,2.45-0.257,4.934-0.825,7.35
		C9.621,308.08,9.311,308.078,8.999,307.794z"/>
	<path class="st17" d="M478.804,103.877c-0.345-1.731-1.552-2.667-3.061-3.328c-2.471-1.083-5.055-1.826-7.668-2.456
		c-0.786-0.189-1.514-0.433-2.181-0.876c5.529-0.385,10.969,0.396,16.397,1.287c1.444,0.237,1.699,1.096,0.614,2.112
		C481.631,101.808,480.359,103.027,478.804,103.877z"/>
	<path class="st18" d="M96.153,359.408c-0.135,3.065-0.2,5.627-1.244,8.012c-0.343,0.785-0.409,2.076-1.712,1.913
		c-1.118-0.14-2.258-2.01-2.102-3.149c0.032-0.235,0.083-0.48,0.186-0.691C92.364,363.261,93.721,361.246,96.153,359.408z"/>
	<path class="st19" d="M362.197,295.889c-5.052-0.586-10.104-1.17-15.155-1.76c-1.159-0.135-2.315-0.289-3.583-0.448
		c3.055-1.418,11.368-0.66,19.692,1.729C363.189,296.28,362.648,295.994,362.197,295.889z"/>
	<path class="st20" d="M34.047,442.086c0.741-0.8,0.129-1.993,0.816-2.809c0.169,1.093,0.165,2.181-0.186,3.24
		c-0.063,0.191-0.274,0.464-0.513,0.2C34.042,442.582,34.081,442.301,34.047,442.086z"/>
	<path class="st21" d="M333.073,30.423c-0.247-0.485,0.022-1.162-0.567-1.519c-0.017-0.398,0.009-0.813,0.498-0.878
		c0.438-0.059,0.439,0.339,0.447,0.625C333.467,29.267,333.463,29.889,333.073,30.423z"/>
	<path class="st22" d="M362.197,295.889c0.343-0.11,0.74-0.114,0.954-0.479c0.481,0.012,0.812,0.275,1.381,0.7
		C363.524,296.36,362.837,296.415,362.197,295.889z"/>
	<path class="st23" d="M8.999,307.794c0.311-0.001,0.621-0.002,0.932-0.004c0.083,0.441,0.208,1.136-0.227,1.178
		C9.076,309.029,8.929,308.382,8.999,307.794z"/>
	<path class="st24" d="M491.825,608.234c0.194,0.292,0.072,0.741,0.462,0.936c-0.061,0.401-0.234,0.882-0.636,0.827
		c-0.53-0.073-0.278-0.605-0.215-0.929C491.493,608.776,491.69,608.511,491.825,608.234z"/>
	<path class="st25" d="M101.079,356.467c0.101,0.138,0.254,0.256,0.238,0.343c-0.045,0.248-0.239,0.426-0.494,0.408
		c-0.186-0.013-0.582-0.003-0.319-0.381C100.624,356.663,100.884,356.586,101.079,356.467z"/>
	<path class="st6" d="M178.918,327.958c-0.038-0.422,0.091-0.754,0.505-0.931C179.475,327.457,179.315,327.772,178.918,327.958z"/>
	<path class="st26" d="M37.71,399.407c0.107-0.305,0.328-0.46,0.634-0.355c0.249,0.085,0.267,0.265,0.025,0.421
		C38.149,399.451,37.93,399.429,37.71,399.407z"/>
	<path class="st21" d="M332.506,28.907c0.105,0.453-0.099,0.755-0.476,0.972C331.983,29.455,332.107,29.114,332.506,28.907z"/>
	<path class="st9" d="M361.805,88.924c0.154-0.433,0.491-0.526,0.899-0.484C362.516,88.808,362.219,88.975,361.805,88.924z"/>
	<path class="st9" d="M323.867,275.631c0.033-0.284,0.177-0.46,0.474-0.488C324.33,275.449,324.157,275.597,323.867,275.631z"/>
	<polygon class="st8" points="538.17,219.285 538.062,219.276 538.104,219.173 538.229,219.179 	"/>
	<path class="st6" d="M452.571,312.148c-0.009-0.295,0.207-0.405,0.423-0.516C452.992,311.919,452.871,312.107,452.571,312.148z"/>
	<path class="st6" d="M409.82,243.93c0.281,0.019,0.46,0.154,0.506,0.441C410.027,244.373,409.864,244.219,409.82,243.93z"/>
	<path class="st7" d="M478.574,250.39c-2.916-5.581-5.925-10.847-9.245-15.918c-2.136-3.262-4.424-6.436-6.826-9.507
		c-3.246-4.149-6.75-8.094-10.653-11.644c-5.138-4.673-10.626-8.869-16.65-12.385c-7.911-4.618-16.294-8.092-25.045-10.681
		c-6.253-1.85-12.611-3.276-19.036-4.456c-4.454-0.818-8.921-1.569-13.401-2.148c-3.381-0.437-6.768-0.922-10.179-1.208
		c-2.361-0.198-4.757-0.235-7.101-0.759c-1.704-0.38-3.491-0.327-5.219-0.461c-2.614-0.202-5.229-0.491-7.851-0.654
		c-3.407-0.212-6.832-0.286-10.21-0.862c-0.235-0.04-0.48-0.07-0.716-0.053c-3.601,0.254-7.141-0.779-10.741-0.503
		c-0.988,0.076-1.873-0.233-3.165-0.736c5.96-1.092,11.469-2.347,17.077-3.186c4.081-0.611,8.177-1.158,12.264-1.689
		c2.268-0.295,4.604-0.439,6.877-0.713c3.324-0.401,6.696-0.039,9.983-0.792c0.611-0.14,1.274-0.067,1.913-0.068
		c4.079-0.009,8.158,0.018,12.237-0.023c5.823-0.059,11.609,0.339,17.409,0.893c6.906,0.659,13.716,1.76,20.426,3.449
		c10.596,2.668,20.693,6.586,29.698,12.894c9.256,6.484,16.531,14.739,21.287,25.053c2.915,6.321,4.818,12.952,5.863,19.863
		c0.751,4.968,1.137,9.946,1.334,14.952C478.915,249.413,479.027,249.815,478.574,250.39z"/>
	<path class="st1" d="M113.63,262.205c-0.52-0.63-0.965-1.254-0.634-2.166c0.188-0.518,0.127-1.126,0.32-1.641
		c0.622-1.668,0.641-2.232-1.512-2.467c-1.523-0.166-2.938-0.729-4.186-1.659c-0.254-0.189-0.536-0.34-0.508-0.322
		c-0.175-0.704,0.053-0.808,0.278-0.85c3.886-0.727,7.151-2.685,10.143-5.154c7.781-6.422,15.091-13.341,21.719-20.952
		c2.477-2.845,5.468-4.521,9.178-5.158c3.932-0.675,7.842-1.499,11.733-2.385c5.472-1.245,10.09-3.929,13.53-8.459
		c0.097-0.127,0.192-0.256,0.297-0.376c1.517-1.735,2.049-1.624,3.072,0.644c0.848,3.13-0.909,5.396-2.689,7.535
		c-1.631,1.96-3.562,3.666-5.385,5.459c-1.406,1.382-2.407,3-2.875,4.9c-0.691,2.799-1.631,5.516-2.525,8.25
		c-0.218,0.666-0.765,1.454-0.267,2.046c0.667,0.793,1.457-0.029,2.185-0.205c0.313-0.076,0.619-0.148,0.942-0.113
		c1.64-0.415,2.672-1.662,3.725-2.827c1.225-1.356,2.306-2.843,3.507-4.222c1.284-1.473,1.645-1.455,3.286-0.084
		c3.077,3.142,1.083,8.806-2.377,11.889c-1.876,1.672-4.105,2.767-6.445,3.614c-5.833,2.112-11.896,2.912-18.059,3.409
		c-6.321,0.51-12.787-0.046-18.856,2.64c-4.995,2.211-9.704,4.86-14.172,7.978C116.034,262.241,115.019,263.241,113.63,262.205z"/>
	<path class="st6" d="M113.63,262.205c1.015,0.132,1.792-0.268,2.618-0.87c4.779-3.488,9.851-6.475,15.391-8.608
		c3.982-1.533,8.092-2.123,12.38-2.175c6.597-0.081,13.178-0.664,19.61-2.291c2.628-0.665,5.18-1.556,7.594-2.83
		c5.663-2.99,7.562-7.394,5.741-13.431c2.095,1.511,3.861,3.348,5.21,5.543c1.996,3.249,1.407,6.327-1.637,8.653
		c-3.088,2.359-6.647,3.809-10.288,5.025c-8.629,2.882-17.288,5.673-25.929,8.519c-5.391,1.776-10.489,4.295-15.799,6.276
		c-3.367,1.256-6.763,2.447-10.422,2.498c-0.718,0.01-1.447,0.026-2.153-0.08c-2.006-0.301-2.891-1.388-2.884-3.434
		C113.064,264.03,113.202,263.088,113.63,262.205z"/>
	<path class="st1" d="M100.707,245.928c-1.778,1.618-3.06,3.666-4.696,5.407c-0.524,0.558-1.064,1.581-1.889,1.039
		c-0.693-0.455-0.299-1.494-0.024-2.236c0.805-2.174,1.772-4.279,2.947-6.28c5.268-8.971,11.29-17.422,17.771-25.547
		c2.489-3.12,5.724-5.322,9.345-6.928c10.936-4.848,22.357-8.002,34.191-9.695c3.876-0.554,7.754-1.055,11.682-0.949
		c0.857,0.023,1.771-0.157,2.502,0.572c-0.237,0.994-1.1,1.078-1.825,1.293c-0.982,0.29-2.031,0.375-2.9,0.993
		c-4.458,1.975-9.2,3.072-13.834,4.506c-8.547,2.645-17.061,5.452-24.778,10.064c-5.431,3.246-9.968,7.647-14.229,12.336
		c-4.183,4.603-8.313,9.25-12.399,13.937C102.042,245.048,101.401,245.523,100.707,245.928z"/>
	<path class="st1" d="M53.23,307.862c-0.431,0.763-0.792,1.579-1.31,2.277c-0.774,1.041-1.843,1.307-2.974,0.894
		c-1.129-0.413-1.77-1.321-1.664-2.613c0.064-0.785,0.316-1.56,0.529-2.327c0.832-2.999,1.984-5.901,2.652-8.95
		c0.418-1.905,0.371-3.791,0.02-5.701c-0.307-1.675-1.332-2.447-2.934-2.671c-1.547-0.217-3.026,0.176-4.503,0.491
		c-1.022,0.218-2.039,0.382-3.078,0.437c-1.179,0.062-1.978-0.416-2.39-1.562c-0.404-1.122-0.125-2.045,0.719-2.815
		c0.289-0.264,0.639-0.497,1.003-0.635c4.287-1.634,8.693-2.623,13.318-2.473c2.618,0.085,4.609,1.133,5.8,3.529
		c0.951,1.092,0.807,2.415,0.545,3.628c-1.316,6.103-2.366,12.295-5.371,17.894l-0.012,0.023
		C53.476,307.486,53.295,307.638,53.23,307.862z"/>
	<path class="st27" d="M100.707,245.928c6.912-8.49,14.096-16.73,22.305-24.011c3.303-2.93,7.006-5.23,11.053-7.049
		c10.877-4.889,22.237-8.296,33.746-11.27c0.451,0.638-0.223,0.643-0.486,0.75c-5.387,2.193-10.84,4.234-16.166,6.567
		c-6.646,2.912-13.414,5.611-19.59,9.483c-1.946,1.22-3.73,2.717-5.499,4.194c-4.216,3.519-8.413,7.062-12.552,10.67
		c-3.484,3.036-6.87,6.184-10.312,9.268C102.485,245.177,101.951,246.2,100.707,245.928z"/>
	<path class="st7" d="M223.225,165.96c2.527,2.696,4.576,5.415,7.319,7.55c4.85,3.776,9.929,6.776,16.176,7.679
		c2.89,0.418,5.671,0.286,8.546-0.009c-2.03,1.571-4.291,2.602-6.707,3.303c-3.762,1.092-7.505,1.874-11.495,0.984
		c-4.513-1.006-8.149-3.183-10.629-7.074C224.085,174.71,222.433,170.778,223.225,165.96z"/>
	<path class="st1" d="M36.677,302.284c0.022-1.769-0.009-3.852,0.633-5.865c0.856-2.681,2.797-3.438,5.208-2.019
		c1.649,0.97,2.445,2.461,2.574,4.342c0.2,2.913-0.289,5.742-1.169,8.495c-0.533,1.669-1.226,3.29-1.916,4.903
		c-0.32,0.747-0.849,1.388-1.784,1.386c-1.035-0.002-1.566-0.697-1.923-1.546C37.04,308.977,36.763,305.801,36.677,302.284z"/>
	<path class="st6" d="M166.446,239.131c-0.777,0.873-1.815,1.263-2.915,1.443c-1.125,0.184-1.55-0.262-1.195-1.307
		c1.254-3.687,2.427-7.394,3.444-11.157c0.435-1.61,1.409-3,2.675-4.175c1.634-1.516,3.155-3.152,4.768-4.693
		c2.289-2.186,3.53-4.855,3.837-7.983c1.359,1.772,1.046,3.786,0.658,5.719c-0.65,3.241-2.171,6.131-3.989,8.872
		c-1.627,2.454-3.461,4.769-4.911,7.342C167.763,235.067,166.694,236.934,166.446,239.131z"/>
	<path class="st6" d="M53.592,307.262c0.731-2.513,1.411-5.042,2.205-7.534c1.04-3.263,1.621-6.635,2.476-9.941
		c0.345-1.334,0.116-2.697,0.145-4.047c3.312,0.785,4.191,2.167,3.563,5.436c-0.842,4.386-3.126,8.116-5.379,11.848
		C55.709,304.503,54.903,306.07,53.592,307.262z"/>
	<path class="st6" d="M53.23,307.862c-0.031-0.282,0.087-0.473,0.35-0.576C53.618,307.572,53.485,307.754,53.23,307.862z"/>
	<path class="st28" d="M317.646,552.122c-0.167-0.167-0.333-0.335-0.5-0.502c1.281-1.089,2.636-2.044,4.329-2.384h0.002
		C320.581,550.704,319.048,551.327,317.646,552.122z"/>
	<path class="st28" d="M321.475,549.236c0.128-0.191,0.225-0.416,0.391-0.564c0.211-0.188,0.493-0.484,0.721-0.042
		c0.034,0.066-0.253,0.36-0.44,0.46c-0.194,0.104-0.445,0.102-0.671,0.146H321.475z"/>
	<path class="st1" d="M321.446,365.884c0.302-0.282,0.654-0.476,1.07-0.464c3.831,0.116,7.676-0.177,11.492,0.382
		c2.802,0.411,3.71,1.367,3.917,4.205c0.099,1.353,0.15,2.712,0.155,4.068c0.053,16.068,0.093,32.136,0.142,48.204
		c0.002,0.557,0.06,1.114,0.092,1.671c-0.026,2.393-0.103,4.787-0.068,7.179c0.058,3.995-1.687,6.866-5.188,8.74
		c-3.213,1.72-6.732,2.433-10.239,3.197c-0.831,0.181-1.21-0.242-1.28-0.989c-0.06-0.634-0.044-1.276-0.044-1.915
		c-0.002-10.463,0.004-20.925-0.003-31.388C321.482,394.477,321.462,380.181,321.446,365.884z"/>
	<path class="st1" d="M209.174,426.836c-0.246,3.584-0.041,7.182-0.43,10.768c-0.236,2.175-0.968,3.971-2.534,5.508
		c-3.63,3.561-8.018,5.741-12.81,7.217c-0.281,0.086-0.611,0.011-1.103,0.011c0-7.234,0-14.415,0-21.596
		c0.063-6.472,0.133-12.944,0.188-19.416c0.105-12.388,0.199-24.776,0.307-37.164c0.02-2.348,0.044-2.32,2.43-2.516
		c2.547-0.209,5.088-0.497,7.634-0.712c0.953-0.081,1.925-0.154,2.871-0.057c2.334,0.241,3.426,1.382,3.487,3.763
		c0.079,3.116,0.036,6.235,0.026,9.353c-0.047,14.55-0.101,29.099-0.148,43.649C209.09,426.041,209.145,426.438,209.174,426.836z"/>
	<path class="st29" d="M311.125,315.911c-1.669,0.207-3.424,0.744-4.202-0.115c-0.91-1.006,0.437-2.438,0.841-3.672
		c0.22-0.671,0.565-1.3,0.924-2.109C310.247,311.699,310.402,313.756,311.125,315.911z"/>
	<path class="st30" d="M129.95,246.357c1.193-1.732,2.943-2.898,4.421-4.34c2.972-2.898,6.202-5.558,8.114-9.384
		c0.532-1.064,1.512-1.661,2.737-1.648c1.679,0.018,3.363,0.029,5.032,0.18c1.279,0.116,1.502,0.514,1.047,1.777
		c-0.92,2.556-1.926,5.08-2.887,7.62c-0.529,1.399-1.524,2.18-2.997,2.44c-4.88,0.861-9.675,2.087-14.448,3.405
		C130.619,246.61,130.277,246.632,129.95,246.357z"/>
	<path class="st31" d="M129.95,246.357c0.34,0.017,0.68,0.034,1.02,0.052c-0.258,0.348-0.617,0.504-1.022,0.386
		C129.643,246.706,129.656,246.504,129.95,246.357z"/>
</g>
</svg>
