<?xml version="1.0" encoding="utf-8"?>
<!-- Generator: Adobe Illustrator 21.0.0, SVG Export Plug-In . SVG Version: 6.00 Build 0)  -->
<svg version="1.1" id="Layer_2" xmlns="http://www.w3.org/2000/svg" xmlns:xlink="http://www.w3.org/1999/xlink" x="0px" y="0px"
	 viewBox="0 0 141 199.4" style="enable-background:new 0 0 141 199.4;" xml:space="preserve">
<style type="text/css">
	.st0{fill:none;}
	.st1{fill:#FFFFFF;}
</style>
<g>
	<path class="st0" d="M76.1,98.4v1.7H78v-1.7h0.5v4H78v-1.9h-1.9v1.9h-0.5v-4H76.1z"/>
	<path class="st0" d="M79.4,98.4h0.5v3.5h1.7v0.4h-2.2V98.4z"/>
	<path class="st0" d="M82.4,98.8h-1.2v-0.4h2.9v0.4h-1.2v3.5h-0.5C82.4,102.3,82.4,98.8,82.4,98.8z"/>
	<path class="st0" d="M85.7,102.4l-1.3-4h0.6l0.6,2c0.2,0.5,0.3,1,0.4,1.5l0,0c0.1-0.5,0.3-1,0.5-1.5l0.7-2h0.5l-1.4,4H85.7z"/>
	<path class="st0" d="M87.7,102.1c0-0.2,0.1-0.4,0.4-0.4c0.2,0,0.3,0.2,0.3,0.4c0,0.2-0.1,0.4-0.4,0.4
		C87.8,102.5,87.7,102.3,87.7,102.1z"/>
	<path class="st0" d="M91.6,100.9c0,1.1-0.7,1.5-1.4,1.5c-0.8,0-1.4-0.6-1.4-1.5c0-1,0.6-1.5,1.4-1.5C91,99.5,91.6,100.1,91.6,100.9
		z M89.2,101c0,0.6,0.4,1.1,0.9,1.1s0.9-0.5,0.9-1.1c0-0.5-0.2-1.1-0.9-1.1C89.4,99.9,89.2,100.4,89.2,101z"/>
	<path class="st0" d="M92.2,100.4c0-0.3,0-0.6,0-0.9h0.5v0.6l0,0c0.1-0.4,0.4-0.6,0.8-0.6c0.1,0,0.1,0,0.1,0v0.5c-0.1,0-0.1,0-0.2,0
		c-0.4,0-0.6,0.3-0.7,0.7c0,0.1,0,0.2,0,0.2v1.5h-0.5C92.3,102.4,92.3,100.4,92.2,100.4z"/>
	<path class="st0" d="M96.6,99.5c0,0.2,0,0.4,0,0.8v1.7c0,0.7-0.1,1.1-0.4,1.3c-0.3,0.3-0.7,0.3-1,0.3s-0.7-0.1-1-0.2l0.1-0.4
		c0.2,0.1,0.5,0.2,0.8,0.2c0.5,0,0.9-0.3,0.9-1v-0.3l0,0c-0.2,0.3-0.5,0.5-0.9,0.5c-0.7,0-1.2-0.6-1.2-1.4c0-1,0.6-1.5,1.3-1.5
		c0.5,0,0.8,0.3,0.9,0.5l0,0v-0.4L96.6,99.5L96.6,99.5z M96.1,100.7c0-0.1,0-0.2,0-0.2c-0.1-0.3-0.3-0.5-0.7-0.5
		c-0.5,0-0.8,0.4-0.8,1.1c0,0.6,0.3,1,0.8,1c0.3,0,0.6-0.2,0.7-0.5c0-0.1,0-0.2,0-0.3V100.7z"/>
</g>
<g>
	<path d="M136.4,86.7c0.4-0.3,2.6-2.1,2.6-3.9c-0.7-32.2-13.9-41.2-13.9-41.2c-1.2,15.6-4.4,32.9-4.4,32.9l2.4,2.3
		c-1.8,0.4-3.9,1.5-6,3.7c-0.8,0.9-1.6,2-2.4,3.2c0,0,0,0,0,0c0.1-0.9,0.1-1.9,0.1-2.8c0-3-0.2-6-0.7-8.9c-0.3-2.1-0.8-4.1-1.3-5.9
		c-0.7-2.7-1.5-4.7-2.2-6.2c-0.7-0.9-1.3-1.9-1.5-3c0-0.2,0.1-0.3,0.2-0.4c0,0,0-0.1,0-0.1c0.1,0,0.1,0,0.2,0
		c0.7-0.4,2.1-0.6,3.3-0.6c2.7-0.9,4.4-2.8,3.6-6.3c-5.6-27.7-17.5-35.3-17.5-35.3C98.1,19,96,41.9,96.2,45c0.1,4.3,6,5,3.9,8
		c-7.7,2.8-10.2,9.2-11.1,12.7c0,0.1-0.1,0.2-0.1,0.3c-0.1,0.4-0.2,0.8-0.3,1.1c0,0,0,0,0,0c-0.2-4.3-1.6-8.3-3.4-11.7
		c-0.2-0.3-0.3-0.6-0.5-0.9c-1.5-2.9-3.4-5.3-5.5-7c-0.3-0.2-0.5-0.4-0.8-0.6c-0.5-0.4-1.1-0.8-1.5-1c2.2,0,6.8,0.2,6.3-5.1
		C79.5,8.9,70.5,1.5,70.5,1.5h0c0,0-9,7.4-12.7,39.1c-0.5,5.3,4.2,5.1,6.3,5.1c-0.4,0.2-1,0.6-1.5,1c-0.3,0.2-0.5,0.4-0.8,0.6
		c-2.1,1.7-4,4.1-5.5,7c-0.2,0.3-0.3,0.6-0.5,0.9c-1.8,3.4-3.2,7.4-3.4,11.7c0,0,0,0,0,0c-0.1-0.4-0.2-0.8-0.3-1.1
		c0-0.1-0.1-0.2-0.1-0.3c-0.8-3.5-3.4-9.9-11.1-12.7c-2.1-2.9,3.8-3.7,3.9-8c0.1-3-2-26-2.6-30.8c0,0-11.9,7.6-17.5,35.3
		c-0.8,3.4,0.8,5.3,3.6,6.3c1.2,0.1,2.6,0.2,3.3,0.6c0.1,0,0.1,0,0.2,0c0,0,0,0.1,0,0.1c0.1,0.1,0.2,0.3,0.2,0.4
		c-0.2,1.1-0.8,2.1-1.5,3c-0.7,1.6-1.5,3.6-2.2,6.2c-0.5,1.8-1,3.8-1.3,5.9c-0.5,2.9-0.7,5.9-0.7,8.9c0,1,0,1.9,0.1,2.8c0,0,0,0,0,0
		c-0.7-1.2-1.5-2.3-2.4-3.2c-2.1-2.2-4.2-3.3-6-3.7l2.4-2.3c0,0-3.3-17.3-4.4-32.9c0,0-13.2,9-13.9,41.2c0,1.8,2.2,3.6,2.6,3.9
		c-0.1,0.3-0.2,0.6-0.2,0.9c-0.7,2.8-0.9,6-0.6,9.2c0.3,2.7,0.7,5.1,1.4,7.4c0.7,2.2,1.6,4.2,2.8,5.8c1.2,1.8,2.6,3.2,4.2,4.2
		c1.1,0.7,2.3,1.2,3.5,1.5c-0.7,0.4-2,1.1-3.9,1.9c-3.1,1.3-3.4,3.7-3.1,7.9c0.3,4.2,2.7,40.6,26.1,59.9c13.9,4.9,19.3,1.3,19.3,1.3
		v5.7c0,4.9,7.7,5.4,16.3,5.4h0c8.6,0,14.5-0.5,14.5-5.4l0.2-5.9c1.5,1.5,4.9,5.1,9.8,5.1c14.1,0,34-26.2,36.2-43.3
		c-0.3-3.3,0.4-3.6,1.6-6.4c1.5-5,0.9-23.4,0.9-23.4c-1.8-2.2-3.6-3.5-5.1-4.2c0.1,0,0.1-0.1,0.2-0.1c1.6-1,3-2.4,4.2-4.2
		c1.1-1.7,2.1-3.6,2.8-5.8c0.7-2.2,1.2-4.7,1.4-7.4c0.3-3.2,0.1-6.4-0.6-9.2C136.6,87.3,136.5,87,136.4,86.7z"/>
	<path class="st1" d="M101,59.5c-5.7,0-8.8,13.5-8.8,24.5c0,9.5,2.9,15.3,6.7,15.3c5.7,0,9.9-7.4,9.9-18.3
		C108.9,69.9,105.4,59.5,101,59.5z"/>
	<path class="st1" d="M125.4,82.4c-5.9,0-9.8,13-9.8,18.1c0,6.3,3.2,9.7,7.3,9.7c3.6,0,7.6-4.5,8.5-13.9
		C132.1,88.5,129.3,82.4,125.4,82.4z"/>
	<g>
		<path class="st1" d="M127.5,53.5c0,0,7.5,14.3,6.4,28.3c0,0-4.8-8-8.2-10C125.7,71.8,127.9,61.3,127.5,53.5z"/>
	</g>
	<g>
		<path class="st1" d="M102.2,24.5c0,0,7.2,13.8,8.5,26.6c0,0-5.2-6.7-9.6-6.8C101.1,44.3,102.1,32.9,102.2,24.5z"/>
	</g>
	<path class="st1" d="M40,59.5c-4.4,0-7.9,10.4-7.9,21.4c0,11,4.2,18.3,9.9,18.3c3.8,0,6.7-5.8,6.7-15.3C48.8,73,45.7,59.5,40,59.5z
		"/>
	<path class="st1" d="M15.6,82.4c-3.9,0-6.7,6.1-6,13.9c0.9,9.4,4.9,13.9,8.5,13.9c4.1,0,7.3-3.4,7.3-9.7
		C25.4,95.3,21.5,82.4,15.6,82.4z"/>
	<ellipse class="st1" cx="70.5" cy="74.2" rx="12.7" ry="24.2"/>
	<g>
		<path class="st1" d="M13.5,53.5c0,0-7.5,14.3-6.4,28.3c0,0,4.8-8,8.2-10C15.3,71.8,13.1,61.3,13.5,53.5z"/>
	</g>
	<g>
		<path class="st1" d="M38.8,24.5c0,0-7.2,13.8-8.5,26.6c0,0,5.2-6.7,9.6-6.8C39.9,44.3,38.9,32.9,38.8,24.5z"/>
	</g>
	<path class="st1" d="M70.5,9.3c0,0-6.5,13.3-7.4,31.3c0,0,2.1-1.4,7.4-1.4c5.3,0,7.4,1.4,7.4,1.4C77,22.6,70.5,9.3,70.5,9.3z"/>
	<path class="st1" d="M49.8,145c0-0.5-0.2-0.8,0-1.2c0.8-1.5,6.2-2.7,6.2-17.6c0-15.5-9.7-14.9-9.7-14.9s-9.3-0.4-32.2,11.9
		c0,0,0.2,35.8,22.9,56.8c3.7,2.3,11,2.7,11,2.7s9.6-0.4,9.6-17.3C57.6,147.1,49.8,146,49.8,145z M32.5,138.6c0-1.4-0.3-9.9-0.3-9.9
		s0-1.2,1.2-1.4c1.1-0.2,2.4-0.5,2.8-0.5c0.4,0,2.2,0,2.5,3.9c0.1,3.2,0.1,5.9,0.1,5.9s-0.2,2.5-2,3c-1.9,0.4-2.8,0.4-3.2,0.4
		C33.1,140,32.5,140,32.5,138.6z M37.4,167.5c-1,0-2.6-0.2-2.9-0.3c-0.4-0.1-0.9-0.3-1-1.8c0-1.4-0.4-11.8-0.4-11.8
		s-0.1-1.2,0.9-1.2s3,0,3,0s3,0,3.3,7.4C40.5,167.2,38.4,167.4,37.4,167.5z"/>
	<path class="st1" d="M78.6,120.4c0-3.8,0.3-3.3,2.6-6v-10.7c0,0-2.7-0.9-11.5-0.9v0c0,0,0,0,0,0c0,0,0,0,0,0v0
		c-8.7,0-11.5,0.9-11.5,0.9v10.7c2.3,2.7,2.6,2.2,2.6,6l0.5,54.2c0,1.5,0.3,4-1.8,5.5l0.1,11.4c0,0,6.2,1.1,10.1,1.1v0c0,0,0,0,0,0
		c0,0,0,0,0,0v0c3.9,0,10-1,10-1l0.2-11.5c-2.1-1.4-1.8-4-1.8-5.5L78.6,120.4z"/>
	<path class="st1" d="M127.1,141.2c0,0-6.1-1.7-18.9-4c0,0,0.4-7,0.4-7.9s-0.7-4.3-3.7-4.3c-2.9,0-2.7,3.4-2.8,4.1
		c-0.1,0.7-1.3,37.8-1.3,38.6s0,3,2.1,3.3c2.1,0.3,4.2-1.2,4.4-3.7c0.1-2.5,0.4-8.9,0.4-8.9s-0.1-0.9-1.3-0.9c-1.3,0-1.5,0-1.5,0
		l0.4-13.8c0,0,12.9,0.9,20.5,2.6c0,0-3,13.9-12,25.2s-18.4,14.8-18.4,14.8s-9.6-0.5-11.4-18.2c-0.7-16.2,0.3-38.7,0.3-39.9
		c0.4-15,8.1-21.9,21-18.5c10.1,2.8,23.1,11.4,23.1,11.4S128.8,132.4,127.1,141.2z"/>
</g>
</svg>
