<?xml version="1.0" encoding="utf-8"?>
<!-- Generator: Adobe Illustrator 21.0.0, SVG Export Plug-In . SVG Version: 6.00 Build 0)  -->
<svg version="1.1" id="Layer_1" xmlns="http://www.w3.org/2000/svg" xmlns:xlink="http://www.w3.org/1999/xlink" x="0px" y="0px"
	 viewBox="0 0 173.2 175.4" style="enable-background:new 0 0 173.2 175.4;" xml:space="preserve">
<style type="text/css">
	.st0{fill:none;}
</style>
<g>
	<g>
		<path class="st0" d="M75.5,81.6v1.7h1.9v-1.7h0.5v4h-0.5v-1.9h-1.9v1.9h-0.5v-4H75.5z"/>
		<path class="st0" d="M78.8,81.6h0.5v3.5H81v0.4h-2.2V81.6z"/>
		<path class="st0" d="M81.8,82h-1.2v-0.4h2.9V82h-1.2v3.5h-0.5V82z"/>
		<path class="st0" d="M85.1,85.6l-1.3-4h0.6l0.6,2c0.2,0.5,0.3,1,0.4,1.5h0c0.1-0.5,0.3-1,0.5-1.5l0.7-2h0.5l-1.4,4H85.1z"/>
		<path class="st0" d="M87.1,85.3c0-0.2,0.1-0.4,0.4-0.4c0.2,0,0.3,0.2,0.3,0.4c0,0.2-0.1,0.4-0.4,0.4
			C87.2,85.7,87.1,85.5,87.1,85.3z"/>
		<path class="st0" d="M91,84.1c0,1.1-0.7,1.5-1.4,1.5c-0.8,0-1.4-0.6-1.4-1.5c0-1,0.6-1.5,1.4-1.5C90.4,82.7,91,83.3,91,84.1z
			 M88.7,84.2c0,0.6,0.4,1.1,0.9,1.1c0.5,0,0.9-0.5,0.9-1.1c0-0.5-0.2-1.1-0.9-1.1S88.7,83.6,88.7,84.2z"/>
		<path class="st0" d="M91.7,83.6c0-0.3,0-0.6,0-0.9h0.5l0,0.6h0c0.1-0.4,0.4-0.6,0.8-0.6c0.1,0,0.1,0,0.1,0v0.5c-0.1,0-0.1,0-0.2,0
			c-0.4,0-0.6,0.3-0.7,0.7c0,0.1,0,0.2,0,0.2v1.5h-0.5V83.6z"/>
		<path class="st0" d="M96,82.7c0,0.2,0,0.4,0,0.8v1.7c0,0.7-0.1,1.1-0.4,1.3c-0.3,0.3-0.7,0.3-1,0.3c-0.3,0-0.7-0.1-1-0.2l0.1-0.4
			c0.2,0.1,0.5,0.2,0.8,0.2c0.5,0,0.9-0.3,0.9-1v-0.3h0c-0.2,0.3-0.5,0.5-0.9,0.5c-0.7,0-1.2-0.6-1.2-1.4c0-1,0.6-1.5,1.3-1.5
			c0.5,0,0.8,0.3,0.9,0.5h0l0-0.4H96z M95.5,83.9c0-0.1,0-0.2,0-0.2c-0.1-0.3-0.3-0.5-0.7-0.5c-0.5,0-0.8,0.4-0.8,1.1
			c0,0.6,0.3,1,0.8,1c0.3,0,0.6-0.2,0.7-0.5c0-0.1,0-0.2,0-0.3V83.9z"/>
	</g>
	<path d="M156.8,112.9c0,0,13.2-13.5,13.2-41.2s-22.2-56.2-55.8-56.2c0,0,24.5-5,42,12.5c0,0-3.5-26.2-44.8-26.2s-39.2,24.2-39.2,29
		L51.8,42.1c0,0-5.5,3-5,6.2c0,0-27.5,5.8-34.5,8s-10.2,4-7.2,10.2c0,0-3.4,10.3-1.1,15c3.6,7.3,5.6,5.2,6.6,8s2.8,11,12,13.5
		c0,0-4.2-23.2,16-23.2s20.8,19.5,20.8,23.2s-4.5,25.8-27,13.2c0,0-1.1,8.5,8.4,12.2c0,0,4.8,21,18.6,21s16.8-12,16.5-17
		c0,0-10.5,6.5-12-3c-1.5-9.5,20.3-13.2,20.3,8s-23.3,21.2-32,21.2c0,0,8,14.9,26.5,14.9s39.2-5.1,39.2-34.6s-21.8-38.5-21.8-38.5
		s28.2,11,28.2,38.2c0,18.2-6,22.8-6,22.8s32.8-10.5,32.8-51.2s-41.5-54-41.5-54S156.8,61.9,156.8,112.9z M69.8,59.2
		c-2.5,0-5.2-3.6-5.2-3.6c-1.4-1.5-1.9-4.4,2.6-4.4s11,0.1,13.4,1C83.1,53.1,73.9,59.2,69.8,59.2z"/>
</g>
</svg>
